<svg width="400" height="400" xmlns="http://www.w3.org/2000/svg" style="background:white;">
    <line x1="0" y1="200.0" x2="400" y2="200.0" stroke="black" stroke-width="1.0" />
    <line x1="200.0" y1="0" x2="200.0" y2="400" stroke="black" stroke-width="1.0" />
    <line x1="0.0" y1="0" x2="0.0" y2="400" stroke="#eee" stroke-width="0.5" />
    <line x1="25.0" y1="0" x2="25.0" y2="400" stroke="#eee" stroke-width="0.5" />
    <line x1="50.0" y1="0" x2="50.0" y2="400" stroke="#eee" stroke-width="0.5" />
    <line x1="75.0" y1="0" x2="75.0" y2="400" stroke="#eee" stroke-width="0.5" />
    <line x1="100.0" y1="0" x2="100.0" y2="400" stroke="#eee" stroke-width="0.5" />
    <line x1="125.0" y1="0" x2="125.0" y2="400" stroke="#eee" stroke-width="0.5" />
    <line x1="150.0" y1="0" x2="150.0" y2="400" stroke="#eee" stroke-width="0.5" />
    <line x1="175.0" y1="0" x2="175.0" y2="400" stroke="#eee" stroke-width="0.5" />
    <line x1="200.0" y1="0" x2="200.0" y2="400" stroke="#eee" stroke-width="0.5" />
    <line x1="225.0" y1="0" x2="225.0" y2="400" stroke="#eee" stroke-width="0.5" />
    <line x1="250.0" y1="0" x2="250.0" y2="400" stroke="#eee" stroke-width="0.5" />
    <line x1="275.0" y1="0" x2="275.0" y2="400" stroke="#eee" stroke-width="0.5" />
    <line x1="300.0" y1="0" x2="300.0" y2="400" stroke="#eee" stroke-width="0.5" />
    <line x1="325.0" y1="0" x2="325.0" y2="400" stroke="#eee" stroke-width="0.5" />
    <line x1="350.0" y1="0" x2="350.0" y2="400" stroke="#eee" stroke-width="0.5" />
    <line x1="375.0" y1="0" x2="375.0" y2="400" stroke="#eee" stroke-width="0.5" />
    <line x1="400.0" y1="0" x2="400.0" y2="400" stroke="#eee" stroke-width="0.5" />
    <line x1="0" y1="400.0" x2="400" y2="400.0" stroke="#eee" stroke-width="0.5" />
    <line x1="0" y1="375.0" x2="400" y2="375.0" stroke="#eee" stroke-width="0.5" />
    <line x1="0" y1="350.0" x2="400" y2="350.0" stroke="#eee" stroke-width="0.5" />
    <line x1="0" y1="325.0" x2="400" y2="325.0" stroke="#eee" stroke-width="0.5" />
    <line x1="0" y1="300.0" x2="400" y2="300.0" stroke="#eee" stroke-width="0.5" />
    <line x1="0" y1="275.0" x2="400" y2="275.0" stroke="#eee" stroke-width="0.5" />
    <line x1="0" y1="250.0" x2="400" y2="250.0" stroke="#eee" stroke-width="0.5" />
    <line x1="0" y1="225.0" x2="400" y2="225.0" stroke="#eee" stroke-width="0.5" />
    <line x1="0" y1="200.0" x2="400" y2="200.0" stroke="#eee" stroke-width="0.5" />
    <line x1="0" y1="175.0" x2="400" y2="175.0" stroke="#eee" stroke-width="0.5" />
    <line x1="0" y1="150.0" x2="400" y2="150.0" stroke="#eee" stroke-width="0.5" />
    <line x1="0" y1="125.0" x2="400" y2="125.0" stroke="#eee" stroke-width="0.5" />
    <line x1="0" y1="100.0" x2="400" y2="100.0" stroke="#eee" stroke-width="0.5" />
    <line x1="0" y1="75.0" x2="400" y2="75.0" stroke="#eee" stroke-width="0.5" />
    <line x1="0" y1="50.0" x2="400" y2="50.0" stroke="#eee" stroke-width="0.5" />
    <line x1="0" y1="25.0" x2="400" y2="25.0" stroke="#eee" stroke-width="0.5" />
    <line x1="0" y1="0.0" x2="400" y2="0.0" stroke="#eee" stroke-width="0.5" />
    <line x1="0.0" y1="197.0" x2="0.0" y2="203.0" stroke="black" stroke-width="0.5" />
    <text x="-1.25" y="208.0" font-size="8" fill="black">-8</text>
    <line x1="25.0" y1="197.0" x2="25.0" y2="203.0" stroke="black" stroke-width="0.5" />
    <text x="23.75" y="208.0" font-size="8" fill="black">-7</text>
    <line x1="50.0" y1="197.0" x2="50.0" y2="203.0" stroke="black" stroke-width="0.5" />
    <text x="48.75" y="208.0" font-size="8" fill="black">-6</text>
    <line x1="75.0" y1="197.0" x2="75.0" y2="203.0" stroke="black" stroke-width="0.5" />
    <text x="73.75" y="208.0" font-size="8" fill="black">-5</text>
    <line x1="100.0" y1="197.0" x2="100.0" y2="203.0" stroke="black" stroke-width="0.5" />
    <text x="98.75" y="208.0" font-size="8" fill="black">-4</text>
    <line x1="125.0" y1="197.0" x2="125.0" y2="203.0" stroke="black" stroke-width="0.5" />
    <text x="123.75" y="208.0" font-size="8" fill="black">-3</text>
    <line x1="150.0" y1="197.0" x2="150.0" y2="203.0" stroke="black" stroke-width="0.5" />
    <text x="148.75" y="208.0" font-size="8" fill="black">-2</text>
    <line x1="175.0" y1="197.0" x2="175.0" y2="203.0" stroke="black" stroke-width="0.5" />
    <text x="173.75" y="208.0" font-size="8" fill="black">-1</text>
    <line x1="200.0" y1="197.0" x2="200.0" y2="203.0" stroke="black" stroke-width="0.5" />
    <text x="198.75" y="208.0" font-size="8" fill="black">0</text>
    <line x1="225.0" y1="197.0" x2="225.0" y2="203.0" stroke="black" stroke-width="0.5" />
    <text x="223.75" y="208.0" font-size="8" fill="black">1</text>
    <line x1="250.0" y1="197.0" x2="250.0" y2="203.0" stroke="black" stroke-width="0.5" />
    <text x="248.75" y="208.0" font-size="8" fill="black">2</text>
    <line x1="275.0" y1="197.0" x2="275.0" y2="203.0" stroke="black" stroke-width="0.5" />
    <text x="273.75" y="208.0" font-size="8" fill="black">3</text>
    <line x1="300.0" y1="197.0" x2="300.0" y2="203.0" stroke="black" stroke-width="0.5" />
    <text x="298.75" y="208.0" font-size="8" fill="black">4</text>
    <line x1="325.0" y1="197.0" x2="325.0" y2="203.0" stroke="black" stroke-width="0.5" />
    <text x="323.75" y="208.0" font-size="8" fill="black">5</text>
    <line x1="350.0" y1="197.0" x2="350.0" y2="203.0" stroke="black" stroke-width="0.5" />
    <text x="348.75" y="208.0" font-size="8" fill="black">6</text>
    <line x1="375.0" y1="197.0" x2="375.0" y2="203.0" stroke="black" stroke-width="0.5" />
    <text x="373.75" y="208.0" font-size="8" fill="black">7</text>
    <line x1="400.0" y1="197.0" x2="400.0" y2="203.0" stroke="black" stroke-width="0.5" />
    <text x="398.75" y="208.0" font-size="8" fill="black">8</text>
    <line x1="197.0" y1="400.0" x2="203.0" y2="400.0" stroke="black" stroke-width="0.5" />
    <text x="192.0" y="401.25" font-size="8" fill="black">-8</text>
    <line x1="197.0" y1="375.0" x2="203.0" y2="375.0" stroke="black" stroke-width="0.5" />
    <text x="192.0" y="376.25" font-size="8" fill="black">-7</text>
    <line x1="197.0" y1="350.0" x2="203.0" y2="350.0" stroke="black" stroke-width="0.5" />
    <text x="192.0" y="351.25" font-size="8" fill="black">-6</text>
    <line x1="197.0" y1="325.0" x2="203.0" y2="325.0" stroke="black" stroke-width="0.5" />
    <text x="192.0" y="326.25" font-size="8" fill="black">-5</text>
    <line x1="197.0" y1="300.0" x2="203.0" y2="300.0" stroke="black" stroke-width="0.5" />
    <text x="192.0" y="301.25" font-size="8" fill="black">-4</text>
    <line x1="197.0" y1="275.0" x2="203.0" y2="275.0" stroke="black" stroke-width="0.5" />
    <text x="192.0" y="276.25" font-size="8" fill="black">-3</text>
    <line x1="197.0" y1="250.0" x2="203.0" y2="250.0" stroke="black" stroke-width="0.5" />
    <text x="192.0" y="251.25" font-size="8" fill="black">-2</text>
    <line x1="197.0" y1="225.0" x2="203.0" y2="225.0" stroke="black" stroke-width="0.5" />
    <text x="192.0" y="226.25" font-size="8" fill="black">-1</text>
    <line x1="197.0" y1="200.0" x2="203.0" y2="200.0" stroke="black" stroke-width="0.5" />
    <text x="192.0" y="201.25" font-size="8" fill="black">0</text>
    <line x1="197.0" y1="175.0" x2="203.0" y2="175.0" stroke="black" stroke-width="0.5" />
    <text x="192.0" y="176.25" font-size="8" fill="black">1</text>
    <line x1="197.0" y1="150.0" x2="203.0" y2="150.0" stroke="black" stroke-width="0.5" />
    <text x="192.0" y="151.25" font-size="8" fill="black">2</text>
    <line x1="197.0" y1="125.0" x2="203.0" y2="125.0" stroke="black" stroke-width="0.5" />
    <text x="192.0" y="126.25" font-size="8" fill="black">3</text>
    <line x1="197.0" y1="100.0" x2="203.0" y2="100.0" stroke="black" stroke-width="0.5" />
    <text x="192.0" y="101.25" font-size="8" fill="black">4</text>
    <line x1="197.0" y1="75.0" x2="203.0" y2="75.0" stroke="black" stroke-width="0.5" />
    <text x="192.0" y="76.25" font-size="8" fill="black">5</text>
    <line x1="197.0" y1="50.0" x2="203.0" y2="50.0" stroke="black" stroke-width="0.5" />
    <text x="192.0" y="51.25" font-size="8" fill="black">6</text>
    <line x1="197.0" y1="25.0" x2="203.0" y2="25.0" stroke="black" stroke-width="0.5" />
    <text x="192.0" y="26.25" font-size="8" fill="black">7</text>
    <line x1="197.0" y1="0.0" x2="203.0" y2="0.0" stroke="black" stroke-width="0.5" />
    <text x="192.0" y="1.25" font-size="8" fill="black">8</text>
    <polyline points="0,550.0 0.5,549.0 1.0,548.0 1.5,547.0 2.0,546.0 2.5,545.0 3.0,544.0 3.5,543.0 4.0,542.0 4.5,541.0 5.0,540.0 5.5,539.0 6.0,538.0 6.5,537.0 7.0,536.0 7.5,535.0 8.0,534.0 8.5,533.0 9.0,532.0 9.5,531.0 10.0,530.0 10.5,529.0 11.0,528.0 11.5,527.0 12.0,526.0 12.5,525.0 13.0,524.0 13.5,523.0 14.0,522.0 14.5,521.0 15.0,520.0 15.5,519.0 16.0,518.0 16.5,517.0 17.0,516.0 17.5,515.0 18.0,514.0 18.5,513.0 19.0,512.0 19.5,511.0 20.0,510.0 20.5,509.0 21.0,508.0 21.5,507.0 22.0,506.0 22.5,505.0 23.0,504.0 23.5,503.0 24.0,502.0 24.5,501.0 25.0,500.0 25.5,499.0 26.0,498.0 26.5,497.0 27.0,496.0 27.5,495.0 28.0,494.0 28.5,493.0 29.0,492.0 29.5,491.0 30.0,490.0 30.5,489.0 31.0,488.0 31.5,487.0 32.0,486.0 32.5,485.0 33.0,484.0 33.5,483.0 34.0,482.0 34.5,481.0 35.0,480.0 35.5,479.0 36.0,478.0 36.5,477.0 37.0,476.0 37.5,475.0 38.0,474.0 38.5,473.0 39.0,472.0 39.5,471.0 40.0,470.0 40.5,469.0 41.0,468.0 41.5,467.0 42.0,466.0 42.5,465.0 43.0,464.0 43.5,463.0 44.0,462.0 44.5,461.0 45.0,460.0 45.5,459.0 46.0,458.0 46.5,457.0 47.0,456.0 47.5,455.0 48.0,454.0 48.5,453.0 49.0,452.0 49.5,451.0 50.0,450.0 50.5,449.0 51.0,448.0 51.5,447.0 52.0,446.0 52.5,445.0 53.0,444.0 53.5,443.0 54.0,442.0 54.5,441.0 55.0,440.0 55.5,439.0 56.0,438.0 56.5,437.0 57.0,436.0 57.5,435.0 58.0,434.0 58.5,433.0 59.0,432.0 59.5,431.0 60.0,430.0 60.5,429.0 61.0,428.0 61.5,427.0 62.0,426.0 62.5,425.0 63.0,424.0 63.5,423.0 64.0,422.0 64.5,421.0 65.0,420.0 65.5,419.0 66.0,418.0 66.5,417.0 67.0,416.0 67.5,415.0 68.0,414.0 68.5,413.0 69.0,412.0 69.5,411.0 70.0,410.0 70.5,409.0 71.0,408.0 71.5,407.0 72.0,406.0 72.5,405.0 73.0,404.0 73.5,403.0 74.0,402.0 74.5,401.0 75.0,400.0 75.5,399.0 76.0,398.0 76.5,397.0 77.0,396.0 77.5,395.0 78.0,394.0 78.5,393.0 79.0,392.0 79.5,391.0 80.0,390.0 80.5,389.0 81.0,388.0 81.5,387.0 82.0,386.0 82.5,385.0 83.0,384.0 83.5,383.0 84.0,382.0 84.5,381.0 85.0,380.0 85.5,379.0 86.0,378.0 86.5,377.0 87.0,376.0 87.5,375.0 88.0,374.0 88.5,373.0 89.0,372.0 89.5,371.0 90.0,370.0 90.5,369.0 91.0,368.0 91.5,367.0 92.0,366.0 92.5,365.0 93.0,364.0 93.5,363.0 94.0,362.0 94.5,361.0 95.0,360.0 95.5,359.0 96.0,358.0 96.5,357.0 97.0,356.0 97.5,355.0 98.0,354.0 98.5,353.0 99.0,352.0 99.5,351.0 100.0,350.0 100.5,349.0 101.0,348.0 101.5,347.0 102.0,346.0 102.5,345.0 103.0,344.0 103.5,343.0 104.0,342.0 104.5,341.0 105.0,340.0 105.5,339.0 106.0,338.0 106.5,337.0 107.0,336.0 107.5,335.0 108.0,334.0 108.5,333.0 109.0,332.0 109.5,331.0 110.0,330.0 110.5,329.0 111.0,328.0 111.5,327.0 112.0,326.0 112.5,325.0 113.0,324.0 113.5,323.0 114.0,322.0 114.5,321.0 115.0,320.0 115.5,319.0 116.0,318.0 116.5,317.0 117.0,316.0 117.5,315.0 118.0,314.0 118.5,313.0 119.0,312.0 119.5,311.0 120.0,310.0 120.5,309.0 121.0,308.0 121.5,307.0 122.0,306.0 122.5,305.0 123.0,304.0 123.5,303.0 124.0,302.0 124.5,301.0 125.0,300.0 125.5,299.0 126.0,298.0 126.5,297.0 127.0,296.0 127.5,295.0 128.0,294.0 128.5,293.0 129.0,292.0 129.5,291.0 130.0,290.0 130.5,289.0 131.0,288.0 131.5,287.0 132.0,286.0 132.5,285.0 133.0,284.0 133.5,283.0 134.0,282.0 134.5,281.0 135.0,280.0 135.5,279.0 136.0,278.0 136.5,277.0 137.0,276.0 137.5,275.0 138.0,274.0 138.5,273.0 139.0,272.0 139.5,271.0 140.0,270.0 140.5,269.0 141.0,268.0 141.5,267.0 142.0,266.0 142.5,265.0 143.0,264.0 143.5,263.0 144.0,262.0 144.5,261.0 145.0,260.0 145.5,259.0 146.0,258.0 146.5,257.0 147.0,256.0 147.5,255.0 148.0,254.0 148.5,253.0 149.0,252.0 149.5,251.0 150.0,250.0 150.5,249.0 151.0,248.0 151.5,247.0 152.0,246.0 152.5,245.0 153.0,244.0 153.5,243.0 154.0,242.0 154.5,241.0 155.0,240.0 155.5,239.0 156.0,238.0 156.5,237.0 157.0,236.0 157.5,235.0 158.0,234.0 158.5,233.0 159.0,232.0 159.5,231.0 160.0,230.0 160.5,229.0 161.0,228.0 161.5,227.0 162.0,226.0 162.5,225.0 163.0,224.0 163.5,223.0 164.0,222.0 164.5,221.0 165.0,220.0 165.5,219.0 166.0,218.0 166.5,217.0 167.0,216.0 167.5,215.0 168.0,214.0 168.5,213.0 169.0,212.0 169.5,211.0 170.0,210.0 170.5,209.0 171.0,208.0 171.5,207.0 172.0,206.0 172.5,205.0 173.0,204.0 173.5,203.0 174.0,202.0 174.5,201.0 175.0,200.0 175.5,199.0 176.0,198.0 176.5,197.0 177.0,196.0 177.5,195.0 178.0,194.0 178.5,193.0 179.0,192.0 179.5,191.0 180.0,190.0 180.5,189.0 181.0,188.0 181.5,187.0 182.0,186.0 182.5,185.0 183.0,184.0 183.5,183.0 184.0,182.0 184.5,181.0 185.0,180.0 185.5,179.0 186.0,178.0 186.5,177.0 187.0,176.0 187.5,175.0 188.0,174.0 188.5,173.0 189.0,172.0 189.5,171.0 190.0,170.0 190.5,169.0 191.0,168.0 191.5,167.0 192.0,166.0 192.5,165.0 193.0,164.0 193.5,163.0 194.0,162.0 194.5,161.0 195.0,160.0 195.5,159.0 196.0,158.0 196.5,157.0 197.0,156.0 197.5,155.0 198.0,154.0 198.5,153.0 199.0,152.0 199.5,151.0 200.0,150.0 200.5,149.0 201.0,148.0 201.5,147.0 202.0,146.0 202.5,145.0 203.0,144.0 203.5,143.0 204.0,142.0 204.5,141.0 205.0,140.0 205.5,139.0 206.0,138.0 206.5,137.0 207.0,136.0 207.5,135.0 208.0,134.0 208.5,133.0 209.0,132.0 209.5,131.0 210.0,130.0 210.5,129.0 211.0,128.0 211.5,127.0 212.0,126.0 212.5,125.0 213.0,124.0 213.5,123.0 214.0,122.0 214.5,121.0 215.0,120.0 215.5,119.0 216.0,118.0 216.5,117.0 217.0,115.99999999999999 217.5,115.0 218.0,114.0 218.5,113.0 219.0,112.0 219.5,111.0 220.0,110.0 220.5,109.00000000000001 221.0,108.0 221.5,107.0 222.0,106.0 222.5,105.0 223.0,104.0 223.5,103.0 224.0,102.0 224.5,101.0 225.0,100.0 225.5,99.0 226.0,98.0 226.5,97.0 227.0,96.0 227.5,95.0 228.0,94.0 228.5,93.00000000000001 229.0,92.0 229.5,91.00000000000001 230.0,89.99999999999999 230.5,89.00000000000001 231.0,87.99999999999999 231.5,87.00000000000001 232.0,85.99999999999999 232.5,85.00000000000001 233.0,83.99999999999999 233.5,83.0 234.0,81.99999999999999 234.5,81.0 235.0,80.0 235.5,79.0 236.0,78.0 236.5,77.0 237.0,76.0 237.5,75.0 238.0,74.0 238.5,73.0 239.0,72.0 239.5,71.0 240.0,70.0 240.5,69.0 241.0,68.00000000000003 241.5,67.0 242.0,66.0 242.5,65.0 243.0,64.0 243.5,63.0 244.0,62.0 244.5,61.0 245.0,60.0 245.5,59.0 246.0,58.0 246.5,56.99999999999997 247.0,56.0 247.5,55.0 248.0,54.0 248.5,53.0 249.0,52.0 249.5,51.0 250.0,50.0 250.5,49.0 251.0,48.0 251.5,47.0 252.0,46.0 252.5,45.0 253.0,44.0 253.5,43.0 254.0,42.0 254.5,41.0 255.0,40.0 255.5,39.0 256.0,38.0 256.5,37.0 257.0,36.0 257.5,35.0 258.0,34.0 258.5,33.0 259.0,32.0 259.5,31.0 260.0,30.0 260.5,29.0 261.0,28.0 261.5,27.0 262.0,26.0 262.5,25.0 263.0,24.0 263.5,23.0 264.0,22.0 264.5,21.0 265.0,20.0 265.5,19.0 266.0,18.0 266.5,17.0 267.0,16.0 267.5,15.0 268.0,14.0 268.5,13.0 269.0,12.0 269.5,11.0 270.0,10.0 270.5,9.0 271.0,8.0 271.5,7.0 272.0,6.0 272.5,5.0 273.0,4.0 273.5,3.0 274.0,2.0 274.5,1.0 275.0,0.0 275.5,-0.9999999999999716 276.0,-2.0 276.5,-3.0000000000000284 277.0,-4.0 277.5,-4.999999999999972 278.0,-6.0 278.5,-7.000000000000028 279.0,-8.0 279.5,-9.0 280.0,-10.0 280.5,-11.000000000000028 281.0,-12.0 281.5,-13.0 282.0,-13.999999999999972 282.5,-15.0 283.0,-16.0 283.5,-17.0 284.0,-17.99999999999997 284.5,-19.0 285.0,-20.00000000000003 285.5,-21.0 286.0,-21.99999999999997 286.5,-23.0 287.0,-24.00000000000003 287.5,-25.0 288.0,-25.99999999999997 288.5,-27.0 289.0,-28.00000000000003 289.5,-29.0 290.0,-29.99999999999997 290.5,-31.0 291.0,-32.00000000000003 291.5,-33.0 292.0,-34.0 292.5,-35.0 293.0,-36.00000000000003 293.5,-37.0 294.0,-38.0 294.5,-38.99999999999997 295.0,-40.0 295.5,-41.0 296.0,-42.0 296.5,-42.99999999999997 297.0,-44.0 297.5,-45.00000000000003 298.0,-46.0 298.5,-46.99999999999997 299.0,-48.0 299.5,-49.00000000000003 300.0,-50.0 300.5,-50.99999999999997 301.0,-52.0 301.5,-52.99999999999997 302.0,-54.0 302.5,-54.99999999999997 303.0,-56.0 303.5,-57.0 304.0,-58.0 304.5,-59.0 305.0,-60.0 305.5,-61.0 306.0,-62.0 306.5,-63.0 307.0,-64.0 307.5,-65.0 308.0,-66.0 308.5,-67.0 309.0,-68.0 309.5,-69.0 310.0,-70.0 310.5,-71.0 311.0,-72.0 311.5,-73.0 312.0,-74.0 312.5,-75.0 313.0,-76.0 313.5,-77.0 314.0,-78.0 314.5,-79.0 315.0,-80.0 315.5,-81.0 316.0,-82.0 316.5,-83.0 317.0,-84.0 317.5,-85.0 318.0,-86.0 318.5,-87.0 319.0,-88.0 319.5,-89.0 320.0,-90.0 320.5,-91.0 321.0,-92.0 321.5,-93.0 322.0,-94.0 322.5,-95.0 323.0,-96.0 323.5,-97.0 324.0,-98.0 324.5,-99.0 325.0,-100.0 325.5,-101.0 326.0,-102.0 326.5,-103.0 327.0,-104.0 327.5,-105.0 328.0,-106.0 328.5,-107.0 329.0,-108.0 329.5,-109.0 330.0,-110.0 330.5,-111.0 331.0,-112.0 331.5,-113.0 332.0,-114.0 332.5,-115.0 333.0,-116.0 333.5,-117.0 334.0,-118.0 334.5,-119.0 335.0,-120.0 335.5,-121.0 336.0,-122.0 336.5,-123.0 337.0,-124.0 337.5,-125.0 338.0,-126.0 338.5,-127.0 339.0,-128.0 339.5,-129.0 340.0,-130.0 340.5,-131.0 341.0,-132.0 341.5,-133.0 342.0,-134.0 342.5,-135.0 343.0,-136.0 343.5,-137.0 344.0,-138.0 344.5,-139.0 345.0,-140.0 345.5,-141.0 346.0,-142.0 346.5,-143.0 347.0,-144.0 347.5,-145.0 348.0,-146.0 348.5,-147.0 349.0,-148.0 349.5,-149.0 350.0,-150.0 350.5,-151.0 351.0,-152.0 351.5,-153.0 352.0,-154.0 352.5,-155.0 353.0,-156.0 353.5,-157.0 354.0,-158.0 354.5,-159.0 355.0,-160.0 355.5,-161.0 356.0,-162.0 356.5,-163.0 357.0,-164.0 357.5,-165.0 358.0,-166.0 358.5,-167.0 359.0,-168.0 359.5,-169.0 360.0,-170.0 360.5,-171.0 361.0,-172.0 361.5,-173.0 362.0,-174.0 362.5,-175.0 363.0,-176.0 363.5,-177.0 364.0,-178.0 364.5,-179.0 365.0,-180.0 365.5,-181.0 366.0,-182.0 366.5,-183.0 367.0,-184.0 367.5,-185.0 368.0,-186.0 368.5,-187.0 369.0,-188.0 369.5,-189.0 370.0,-190.0 370.5,-191.0 371.0,-192.0 371.5,-193.0 372.0,-194.0 372.5,-195.0 373.0,-196.0 373.5,-197.0 374.0,-198.0 374.5,-199.0 375.0,-200.0 375.5,-201.0 376.0,-201.99999999999994 376.5,-202.99999999999994 377.0,-204.0 377.5,-205.0 378.0,-206.00000000000006 378.5,-207.0 379.0,-208.0 379.5,-209.0 380.0,-209.99999999999994 380.5,-210.99999999999994 381.0,-212.0 381.5,-213.0 382.0,-214.00000000000006 382.5,-215.00000000000006 383.0,-216.0 383.5,-217.0 384.0,-218.0 384.5,-218.99999999999994 385.0,-220.0 385.5,-221.0 386.0,-222.00000000000006 386.5,-223.00000000000006 387.0,-224.0 387.5,-225.0 388.0,-226.0 388.5,-226.99999999999994 389.0,-227.99999999999994 389.5,-229.0 390.0,-230.0 390.5,-231.00000000000006 391.0,-232.0 391.5,-233.0 392.0,-234.0 392.5,-234.99999999999994 393.0,-235.99999999999994 393.5,-237.0 394.0,-238.0 394.5,-239.00000000000006 395.0,-240.00000000000006 395.5,-241.0 396.0,-242.0 396.5,-243.0 397.0,-243.99999999999994 397.5,-245.0 398.0,-246.0 398.5,-247.00000000000006 399.0,-248.00000000000006 399.5,-249.0 400.0,-250.0" fill="none" stroke="green" stroke-width="1.5" />
    <polyline points="0,-325.0 0.5,-324.0 1.0,-323.0 1.5,-322.0000000000001 2.0,-321.0 2.5,-320.0 3.0,-319.0 3.5,-318.0 4.0,-317.0 4.5,-316.0 5.0,-315.0 5.5,-314.0 6.0,-313.0 6.5,-312.0 7.0,-310.99999999999994 7.5,-309.99999999999994 8.0,-309.0 8.5,-308.0 9.0,-307.0 9.5,-306.00000000000006 10.0,-305.0 10.5,-304.0 11.0,-302.99999999999994 11.5,-301.99999999999994 12.0,-301.0 12.5,-300.0 13.0,-299.0 13.5,-298.00000000000006 14.0,-297.00000000000006 14.5,-296.0 15.0,-295.0 15.5,-293.99999999999994 16.0,-293.0 16.5,-292.0 17.0,-291.0 17.5,-290.00000000000006 18.0,-289.00000000000006 18.5,-288.0 19.0,-287.0 19.5,-285.99999999999994 20.0,-284.99999999999994 20.5,-284.0 21.0,-283.0 21.5,-282.0 22.0,-281.00000000000006 22.5,-280.0 23.0,-279.0 23.5,-277.99999999999994 24.0,-276.99999999999994 24.5,-276.0 25.0,-275.0 25.5,-274.0 26.0,-273.00000000000006 26.5,-272.00000000000006 27.0,-271.0 27.5,-270.0 28.0,-268.99999999999994 28.5,-268.0 29.0,-267.0 29.5,-266.0 30.0,-265.00000000000006 30.5,-264.00000000000006 31.0,-263.0 31.5,-262.0 32.0,-260.99999999999994 32.5,-259.99999999999994 33.0,-259.0 33.5,-258.0 34.0,-257.0 34.5,-256.00000000000006 35.0,-255.0 35.5,-254.0 36.0,-252.99999999999994 36.5,-251.99999999999994 37.0,-251.0 37.5,-250.0 38.0,-249.0 38.5,-248.00000000000006 39.0,-247.00000000000006 39.5,-246.0 40.0,-245.0 40.5,-243.99999999999994 41.0,-243.0 41.5,-242.0 42.0,-241.0 42.5,-240.00000000000006 43.0,-239.00000000000006 43.5,-238.0 44.0,-237.0 44.5,-235.99999999999994 45.0,-234.99999999999994 45.5,-234.0 46.0,-233.0 46.5,-232.0 47.0,-231.00000000000006 47.5,-230.0 48.0,-229.0 48.5,-227.99999999999994 49.0,-226.99999999999994 49.5,-226.0 50.0,-225.0 50.5,-224.0 51.0,-223.00000000000006 51.5,-222.00000000000006 52.0,-221.0 52.5,-220.0 53.0,-218.99999999999994 53.5,-218.0 54.0,-217.0 54.5,-216.0 55.0,-215.00000000000006 55.5,-214.00000000000006 56.0,-213.0 56.5,-212.0 57.0,-210.99999999999994 57.5,-209.99999999999994 58.0,-209.0 58.5,-208.0 59.0,-207.0 59.5,-206.00000000000006 60.0,-205.0 60.5,-204.0 61.0,-202.99999999999994 61.5,-201.99999999999994 62.0,-201.0 62.5,-200.0 63.0,-199.0 63.5,-198.0 64.0,-197.0 64.5,-196.0 65.0,-195.0 65.5,-194.0 66.0,-193.0 66.5,-192.0 67.0,-191.0 67.5,-190.0 68.0,-189.0 68.5,-188.0 69.0,-187.0 69.5,-186.0 70.0,-185.0 70.5,-184.0 71.0,-183.0 71.5,-182.0 72.0,-181.0 72.5,-180.0 73.0,-179.0 73.5,-178.0 74.0,-177.0 74.5,-176.0 75.0,-175.0 75.5,-174.0 76.0,-173.0 76.5,-172.0 77.0,-171.0 77.5,-170.0 78.0,-169.0 78.5,-168.0 79.0,-167.0 79.5,-166.0 80.0,-165.0 80.5,-164.0 81.0,-163.0 81.5,-162.0 82.0,-161.0 82.5,-160.0 83.0,-159.0 83.5,-158.0 84.0,-157.0 84.5,-156.0 85.0,-155.0 85.5,-154.0 86.0,-153.0 86.5,-152.0 87.0,-151.0 87.5,-150.0 88.0,-149.0 88.5,-148.0 89.0,-147.0 89.5,-146.0 90.0,-145.0 90.5,-144.0 91.0,-143.0 91.5,-142.0 92.0,-141.0 92.5,-140.0 93.0,-139.0 93.5,-138.0 94.0,-137.0 94.5,-136.0 95.0,-135.0 95.5,-134.0 96.0,-133.0 96.5,-132.0 97.0,-131.0 97.5,-130.0 98.0,-129.0 98.5,-128.0 99.0,-127.0 99.5,-126.0 100.0,-125.0 100.5,-124.0 101.0,-123.0 101.5,-122.0 102.0,-121.0 102.5,-120.0 103.0,-119.0 103.5,-118.0 104.0,-117.0 104.5,-116.0 105.0,-115.0 105.5,-113.99999999999994 106.0,-113.0 106.5,-112.0 107.0,-111.00000000000006 107.5,-110.0 108.0,-109.0 108.5,-108.0 109.0,-107.0 109.5,-106.0 110.0,-105.0 110.5,-104.0 111.0,-103.0 111.5,-102.0 112.0,-101.0 112.5,-100.0 113.0,-99.0 113.5,-98.0 114.0,-97.0 114.5,-96.0 115.0,-95.0 115.5,-94.0 116.0,-93.0 116.5,-92.0 117.0,-91.0 117.5,-90.0 118.0,-88.99999999999994 118.5,-88.0 119.0,-87.0 119.5,-86.00000000000006 120.0,-85.0 120.5,-84.0 121.0,-83.0 121.5,-82.0 122.0,-81.0 122.5,-80.0 123.0,-79.0 123.5,-78.0 124.0,-77.0 124.5,-76.0 125.0,-75.0 125.5,-74.0 126.0,-73.0 126.5,-72.0 127.0,-71.0 127.5,-70.0 128.0,-69.0 128.5,-68.0 129.0,-67.0 129.5,-66.0 130.0,-65.0 130.5,-63.99999999999994 131.0,-63.0 131.5,-62.0 132.0,-61.00000000000006 132.5,-60.0 133.0,-59.0 133.5,-58.0 134.0,-57.0 134.5,-56.0 135.0,-54.99999999999997 135.5,-54.0 136.0,-53.00000000000003 136.5,-52.0 137.0,-50.99999999999997 137.5,-50.0 138.0,-49.00000000000003 138.5,-48.0 139.0,-46.99999999999997 139.5,-46.0 140.0,-45.00000000000003 140.5,-44.0 141.0,-42.99999999999997 141.5,-42.0 142.0,-41.0 142.5,-40.0 143.0,-38.99999999999997 143.5,-38.0 144.0,-37.0 144.5,-36.00000000000003 145.0,-35.0 145.5,-34.0 146.0,-33.0 146.5,-32.00000000000003 147.0,-31.0 147.5,-29.99999999999997 148.0,-29.0 148.5,-28.00000000000003 149.0,-27.0 149.5,-25.99999999999997 150.0,-25.0 150.5,-24.00000000000003 151.0,-23.0 151.5,-21.99999999999997 152.0,-21.0 152.5,-20.00000000000003 153.0,-19.0 153.5,-18.00000000000003 154.0,-17.0 154.5,-16.0 155.0,-15.0 155.5,-14.0 156.0,-13.0 156.5,-12.0 157.0,-11.0 157.5,-10.0 158.0,-9.0 158.5,-8.0 159.0,-6.999999999999972 159.5,-6.0 160.0,-4.999999999999972 160.5,-4.0 161.0,-3.0000000000000284 161.5,-2.0 162.0,-0.9999999999999716 162.5,0.0 163.0,1.0 163.5,2.0 164.0,3.0 164.5,4.0 165.0,5.0 165.5,6.0 166.0,6.999999999999972 166.5,8.0 167.0,9.0 167.5,10.0 168.0,11.0 168.5,12.0 169.0,13.0 169.5,14.0 170.0,15.0 170.5,16.0 171.0,17.0 171.5,18.00000000000003 172.0,19.0 172.5,20.0 173.0,21.0 173.5,22.0 174.0,23.0 174.5,24.0 175.0,25.0 175.5,26.0 176.0,27.0 176.5,28.0 177.0,29.0 177.5,30.0 178.0,31.0 178.5,32.0 179.0,33.0 179.5,34.0 180.0,35.0 180.5,36.0 181.0,37.0 181.5,38.0 182.0,39.0 182.5,40.0 183.0,41.0 183.5,42.0 184.0,43.0 184.5,44.0 185.0,45.0 185.5,46.0 186.0,47.0 186.5,48.0 187.0,49.0 187.5,50.0 188.0,51.0 188.5,52.0 189.0,53.0 189.5,54.0 190.0,55.0 190.5,56.0 191.0,57.0 191.5,58.0 192.0,59.0 192.5,60.0 193.0,61.0 193.5,62.0 194.0,63.0 194.5,64.0 195.0,65.0 195.5,66.0 196.0,67.0 196.5,68.0 197.0,69.0 197.5,70.0 198.0,71.0 198.5,72.0 199.0,73.0 199.5,74.0 200.0,75.0 200.5,76.0 201.0,77.0 201.5,78.0 202.0,79.0 202.5,80.0 203.0,81.0 203.5,82.0 204.0,83.0 204.5,84.00000000000001 205.0,85.00000000000001 205.5,86.00000000000001 206.0,87.00000000000001 206.5,87.99999999999999 207.0,89.00000000000001 207.5,89.99999999999999 208.0,90.99999999999999 208.5,92.0 209.0,93.0 209.5,94.0 210.0,95.0 210.5,96.0 211.0,97.0 211.5,98.0 212.0,99.0 212.5,100.0 213.0,101.0 213.5,102.0 214.0,103.0 214.5,104.0 215.0,105.0 215.5,106.0 216.0,107.0 216.5,108.0 217.0,109.00000000000001 217.5,110.0 218.0,111.0 218.5,112.0 219.0,113.0 219.5,114.0 220.0,115.0 220.5,115.99999999999999 221.0,117.0 221.5,118.0 222.0,119.0 222.5,120.0 223.0,121.0 223.5,122.0 224.0,123.0 224.5,124.0 225.0,125.0 225.5,126.0 226.0,127.0 226.5,128.0 227.0,129.0 227.5,130.0 228.0,131.0 228.5,132.0 229.0,133.0 229.5,134.0 230.0,135.0 230.5,136.0 231.0,137.0 231.5,138.0 232.0,139.0 232.5,140.0 233.0,141.0 233.5,142.0 234.0,143.0 234.5,144.0 235.0,145.0 235.5,146.0 236.0,147.0 236.5,148.0 237.0,149.0 237.5,150.0 238.0,151.0 238.5,152.0 239.0,153.0 239.5,154.0 240.0,155.0 240.5,156.0 241.0,157.0 241.5,158.0 242.0,159.0 242.5,160.0 243.0,161.0 243.5,162.0 244.0,163.0 244.5,164.0 245.0,165.0 245.5,166.0 246.0,167.0 246.5,168.0 247.0,169.0 247.5,170.0 248.0,171.0 248.5,172.0 249.0,173.0 249.5,174.0 250.0,175.0 250.5,176.0 251.0,177.0 251.5,178.0 252.0,179.0 252.5,180.0 253.0,181.0 253.5,182.0 254.0,183.0 254.5,184.0 255.0,185.0 255.5,186.0 256.0,187.0 256.5,188.0 257.0,189.0 257.5,190.0 258.0,191.0 258.5,192.0 259.0,193.0 259.5,194.0 260.0,195.0 260.5,196.0 261.0,197.0 261.5,198.0 262.0,199.0 262.5,200.0 263.0,201.0 263.5,202.0 264.0,203.0 264.5,204.0 265.0,205.0 265.5,206.0 266.0,207.0 266.5,208.0 267.0,209.0 267.5,210.0 268.0,211.0 268.5,212.0 269.0,213.0 269.5,214.0 270.0,215.0 270.5,216.0 271.0,217.0 271.5,218.0 272.0,219.0 272.5,220.0 273.0,221.0 273.5,222.0 274.0,223.0 274.5,224.0 275.0,225.0 275.5,226.0 276.0,227.0 276.5,228.0 277.0,229.0 277.5,230.0 278.0,231.0 278.5,232.0 279.0,233.0 279.5,234.0 280.0,235.0 280.5,236.0 281.0,237.0 281.5,238.0 282.0,239.0 282.5,240.0 283.0,241.0 283.5,242.0 284.0,243.0 284.5,244.0 285.0,245.0 285.5,246.0 286.0,247.0 286.5,248.0 287.0,249.0 287.5,250.0 288.0,251.0 288.5,252.0 289.0,253.0 289.5,254.0 290.0,255.0 290.5,256.0 291.0,257.0 291.5,258.0 292.0,259.0 292.5,260.0 293.0,261.0 293.5,262.0 294.0,263.0 294.5,264.0 295.0,265.0 295.5,266.0 296.0,267.0 296.5,268.0 297.0,269.0 297.5,270.0 298.0,271.0 298.5,272.0 299.0,273.0 299.5,274.0 300.0,275.0 300.5,276.0 301.0,277.0 301.5,278.0 302.0,279.0 302.5,280.0 303.0,281.0 303.5,282.0 304.0,283.0 304.5,284.0 305.0,285.0 305.5,286.0 306.0,287.0 306.5,288.0 307.0,289.0 307.5,290.0 308.0,291.0 308.5,292.0 309.0,293.0 309.5,294.0 310.0,295.0 310.5,296.0 311.0,297.0 311.5,298.0 312.0,299.0 312.5,300.0 313.0,301.0 313.5,302.0 314.0,303.0 314.5,304.0 315.0,305.0 315.5,306.0 316.0,307.0 316.5,308.0 317.0,309.0 317.5,310.0 318.0,311.0 318.5,312.0 319.0,313.0 319.5,314.0 320.0,315.0 320.5,316.0 321.0,317.0 321.5,318.0 322.0,319.0 322.5,320.0 323.0,321.0 323.5,322.0 324.0,323.0 324.5,324.0 325.0,325.0 325.5,326.0 326.0,327.0 326.5,328.0 327.0,329.0 327.5,330.0 328.0,331.0 328.5,332.0 329.0,333.0 329.5,334.0 330.0,335.0 330.5,336.0 331.0,337.0 331.5,338.0 332.0,339.0 332.5,340.0 333.0,341.0 333.5,342.0 334.0,343.0 334.5,344.0 335.0,345.0 335.5,346.0 336.0,347.0 336.5,348.0 337.0,349.0 337.5,350.0 338.0,351.0 338.5,352.0 339.0,353.0 339.5,354.0 340.0,355.0 340.5,356.0 341.0,357.0 341.5,358.0 342.0,359.0 342.5,360.0 343.0,361.0 343.5,362.0 344.0,363.0 344.5,364.0 345.0,365.0 345.5,366.0 346.0,367.0 346.5,368.0 347.0,369.0 347.5,370.0 348.0,371.0 348.5,372.0 349.0,373.0 349.5,374.0 350.0,375.0 350.5,376.0 351.0,377.0 351.5,378.0 352.0,379.0 352.5,380.0 353.0,381.0 353.5,382.0 354.0,383.0 354.5,384.0 355.0,385.0 355.5,386.0 356.0,387.0 356.5,388.0 357.0,389.0 357.5,390.0 358.0,391.0 358.5,392.0 359.0,393.0 359.5,394.0 360.0,395.0 360.5,396.0 361.0,397.0 361.5,398.0 362.0,399.0 362.5,400.0 363.0,401.0 363.5,402.0 364.0,403.0 364.5,404.0 365.0,405.0 365.5,406.0 366.0,407.0 366.5,408.0 367.0,409.0 367.5,410.0 368.0,411.0 368.5,412.0 369.0,413.0 369.5,414.0 370.0,415.0 370.5,416.0 371.0,417.0 371.5,418.0 372.0,419.0 372.5,420.0 373.0,421.0 373.5,422.0 374.0,423.0 374.5,424.0 375.0,425.0 375.5,426.0 376.0,427.0 376.5,428.0 377.0,429.0 377.5,430.0 378.0,431.0 378.5,432.0 379.0,433.0 379.5,434.0 380.0,435.0 380.5,436.0 381.0,437.0 381.5,438.0 382.0,439.0 382.5,440.0 383.0,441.0 383.5,442.0 384.0,443.0 384.5,444.0 385.0,445.0 385.5,446.0 386.0,447.0 386.5,448.0 387.0,449.0 387.5,450.0 388.0,451.0 388.5,452.0 389.0,453.0 389.5,454.0 390.0,455.0 390.5,456.0 391.0,457.0 391.5,458.0 392.0,459.0 392.5,460.0 393.0,461.0 393.5,462.0 394.0,463.0 394.5,464.0 395.0,465.0 395.5,466.0 396.0,467.0 396.5,468.0 397.0,469.0 397.5,470.0 398.0,471.0 398.5,472.0 399.0,473.0 399.5,474.0 400.0,475.0" fill="none" stroke="blue" stroke-width="1.5" />
    <polyline points="0,700.0 0.5,698.75 1.0,697.5 1.5,696.25 2.0,695.0 2.5,693.75 3.0,692.5 3.5,691.25 4.0,690.0 4.5,688.75 5.0,687.5 5.5,686.25 6.0,685.0 6.5,683.75 7.0,682.5 7.5,681.25 8.0,680.0 8.5,678.75 9.0,677.5 9.5,676.25 10.0,675.0 10.5,673.75 11.0,672.5 11.5,671.25 12.0,670.0 12.5,668.75 13.0,667.5 13.5,666.25 14.0,665.0 14.5,663.75 15.0,662.5 15.5,661.25 16.0,660.0 16.5,658.75 17.0,657.5 17.5,656.25 18.0,655.0 18.5,653.75 19.0,652.5 19.5,651.25 20.0,650.0 20.5,648.75 21.0,647.5 21.5,646.25 22.0,645.0 22.5,643.75 23.0,642.5 23.5,641.25 24.0,640.0 24.5,638.75 25.0,637.5 25.5,636.25 26.0,635.0 26.5,633.75 27.0,632.5 27.5,631.25 28.0,630.0 28.5,628.75 29.0,627.5 29.5,626.25 30.0,625.0 30.5,623.75 31.0,622.5 31.5,621.25 32.0,620.0 32.5,618.75 33.0,617.5 33.5,616.25 34.0,615.0 34.5,613.75 35.0,612.5 35.5,611.25 36.0,610.0 36.5,608.75 37.0,607.5 37.5,606.25 38.0,605.0 38.5,603.75 39.0,602.5 39.5,601.25 40.0,600.0 40.5,598.75 41.0,597.5 41.5,596.25 42.0,595.0 42.5,593.75 43.0,592.5 43.5,591.25 44.0,590.0 44.5,588.75 45.0,587.5 45.5,586.25 46.0,585.0 46.5,583.75 47.0,582.5 47.5,581.25 48.0,580.0 48.5,578.75 49.0,577.5 49.5,576.25 50.0,575.0 50.5,573.75 51.0,572.5 51.5,571.25 52.0,570.0 52.5,568.75 53.0,567.5 53.5,566.25 54.0,565.0 54.5,563.75 55.0,562.5 55.5,561.25 56.0,560.0 56.5,558.75 57.0,557.5 57.5,556.25 58.0,555.0 58.5,553.75 59.0,552.5 59.5,551.25 60.0,550.0 60.5,548.75 61.0,547.5 61.5,546.25 62.0,545.0 62.5,543.75 63.0,542.5 63.5,541.25 64.0,540.0 64.5,538.75 65.0,537.5 65.5,536.25 66.0,535.0 66.5,533.75 67.0,532.5 67.5,531.25 68.0,530.0 68.5,528.75 69.0,527.5 69.5,526.25 70.0,525.0 70.5,523.75 71.0,522.5 71.5,521.25 72.0,520.0 72.5,518.75 73.0,517.5 73.5,516.25 74.0,515.0 74.5,513.75 75.0,512.5 75.5,511.25 76.0,510.0 76.5,508.75000000000006 77.0,507.5 77.5,506.25 78.0,505.0 78.5,503.75 79.0,502.5 79.5,501.25 80.0,500.0 80.5,498.75 81.0,497.49999999999994 81.5,496.25000000000006 82.0,495.0 82.5,493.75 83.0,492.5 83.5,491.25 84.0,490.0 84.5,488.75 85.0,487.5 85.5,486.25 86.0,484.99999999999994 86.5,483.75 87.0,482.5 87.5,481.25 88.0,480.0 88.5,478.75 89.0,477.50000000000006 89.5,476.25 90.0,475.0 90.5,473.75 91.0,472.5 91.5,471.25 92.0,470.0 92.5,468.75 93.0,467.5 93.5,466.24999999999994 94.0,465.00000000000006 94.5,463.75 95.0,462.5 95.5,461.25 96.0,460.0 96.5,458.75 97.0,457.5 97.5,456.25 98.0,455.0 98.5,453.75 99.0,452.5 99.5,451.25 100.0,450.0 100.5,448.75 101.0,447.5 101.5,446.25 102.0,445.0 102.5,443.75 103.0,442.5 103.5,441.25 104.0,440.0 104.5,438.75 105.0,437.5 105.5,436.25 106.0,435.0 106.5,433.75 107.0,432.5 107.5,431.25 108.0,430.0 108.5,428.75 109.0,427.5 109.5,426.25 110.0,425.0 110.5,423.75 111.0,422.5 111.5,421.25 112.0,420.0 112.5,418.75 113.0,417.5 113.5,416.25 114.0,415.0 114.5,413.75 115.0,412.5 115.5,411.25 116.0,410.0 116.5,408.75 117.0,407.5 117.5,406.25 118.0,405.0 118.5,403.75 119.0,402.5 119.5,401.25 120.0,400.0 120.5,398.75 121.0,397.5 121.5,396.25 122.0,395.0 122.5,393.75 123.0,392.5 123.5,391.25 124.0,390.0 124.5,388.75 125.0,387.5 125.5,386.25 126.0,385.0 126.5,383.75 127.0,382.5 127.5,381.25 128.0,380.0 128.5,378.75 129.0,377.5 129.5,376.25 130.0,375.0 130.5,373.75 131.0,372.5 131.5,371.25 132.0,370.0 132.5,368.75 133.0,367.5 133.5,366.25 134.0,365.0 134.5,363.75 135.0,362.5 135.5,361.25 136.0,360.0 136.5,358.75 137.0,357.5 137.5,356.25 138.0,355.0 138.5,353.75 139.0,352.5 139.5,351.25 140.0,350.0 140.5,348.75 141.0,347.5 141.5,346.25 142.0,345.0 142.5,343.75 143.0,342.5 143.5,341.25 144.0,340.0 144.5,338.75 145.0,337.5 145.5,336.25 146.0,335.0 146.5,333.75 147.0,332.5 147.5,331.25 148.0,330.0 148.5,328.75 149.0,327.5 149.5,326.25 150.0,325.0 150.5,323.75 151.0,322.5 151.5,321.25 152.0,320.0 152.5,318.75 153.0,317.5 153.5,316.25 154.0,315.0 154.5,313.75 155.0,312.5 155.5,311.25 156.0,310.0 156.5,308.75 157.0,307.5 157.5,306.25 158.0,305.0 158.5,303.75 159.0,302.5 159.5,301.25 160.0,300.0 160.5,298.75 161.0,297.5 161.5,296.25 162.0,295.0 162.5,293.75 163.0,292.5 163.5,291.25 164.0,290.0 164.5,288.75 165.0,287.5 165.5,286.25 166.0,285.0 166.5,283.75 167.0,282.5 167.5,281.25 168.0,280.0 168.5,278.75 169.0,277.5 169.5,276.25 170.0,275.0 170.5,273.75 171.0,272.5 171.5,271.25 172.0,270.0 172.5,268.75 173.0,267.5 173.5,266.25 174.0,265.0 174.5,263.75 175.0,262.5 175.5,261.25 176.0,260.0 176.5,258.75 177.0,257.5 177.5,256.25 178.0,255.0 178.5,253.75 179.0,252.5 179.5,251.25 180.0,250.0 180.5,248.75 181.0,247.5 181.5,246.25 182.0,245.0 182.5,243.75 183.0,242.5 183.5,241.25 184.0,240.0 184.5,238.75 185.0,237.5 185.5,236.25 186.0,235.0 186.5,233.75 187.0,232.5 187.5,231.25 188.0,230.0 188.5,228.75 189.0,227.5 189.5,226.25 190.0,225.0 190.5,223.75 191.0,222.5 191.5,221.25 192.0,220.0 192.5,218.75 193.0,217.5 193.5,216.25 194.0,215.0 194.5,213.75 195.0,212.5 195.5,211.25 196.0,210.0 196.5,208.75 197.0,207.5 197.5,206.25 198.0,205.0 198.5,203.75 199.0,202.5 199.5,201.25 200.0,200.0 200.5,198.75 201.0,197.5 201.5,196.25 202.0,195.0 202.5,193.75 203.0,192.5 203.5,191.25 204.0,190.0 204.5,188.75 205.0,187.5 205.5,186.25 206.0,185.0 206.5,183.75 207.0,182.5 207.5,181.25 208.0,180.0 208.5,178.75 209.0,177.5 209.5,176.25 210.0,175.0 210.5,173.75 211.0,172.5 211.5,171.25 212.0,170.0 212.5,168.75 213.0,167.5 213.5,166.25 214.0,165.0 214.5,163.75 215.0,162.5 215.5,161.25 216.0,160.0 216.5,158.75 217.0,157.5 217.5,156.25 218.0,155.0 218.5,153.75 219.0,152.5 219.5,151.25 220.0,150.0 220.5,148.75 221.0,147.5 221.5,146.25 222.0,145.0 222.5,143.75 223.0,142.5 223.5,141.25 224.0,140.0 224.5,138.75 225.0,137.5 225.5,136.25 226.0,135.0 226.5,133.75 227.0,132.5 227.5,131.25 228.0,130.0 228.5,128.75 229.0,127.5 229.5,126.25 230.0,125.0 230.5,123.75 231.0,122.5 231.5,121.25 232.0,120.0 232.5,118.75 233.0,117.5 233.5,116.25 234.0,114.99999999999999 234.5,113.75 235.0,112.5 235.5,111.25 236.0,110.00000000000001 236.5,108.75 237.0,107.5 237.5,106.25 238.0,105.0 238.5,103.75 239.0,102.49999999999999 239.5,101.25 240.0,100.0 240.5,98.74999999999999 241.0,97.50000000000001 241.5,96.25000000000001 242.0,95.0 242.5,93.75 243.0,92.5 243.5,91.25000000000001 244.0,89.99999999999999 244.5,88.75 245.0,87.5 245.5,86.25 246.0,84.99999999999999 246.5,83.74999999999999 247.0,82.50000000000001 247.5,81.25 248.0,80.0 248.5,78.75000000000001 249.0,77.49999999999999 249.5,76.25 250.0,75.0 250.5,73.75 251.0,72.50000000000001 251.5,71.25 252.0,70.0 252.5,68.75 253.0,67.49999999999997 253.5,66.25 254.0,65.0 254.5,63.75 255.0,62.5 255.5,61.24999999999997 256.0,60.0 256.5,58.75 257.0,57.50000000000003 257.5,56.25 258.0,55.0 258.5,53.75 259.0,52.5 259.5,51.25000000000003 260.0,50.0 260.5,48.75 261.0,47.5 261.5,46.25 262.0,45.0 262.5,43.75 263.0,42.5 263.5,41.25 264.0,40.0 264.5,38.75 265.0,37.5 265.5,36.24999999999997 266.0,35.0 266.5,33.75 267.0,32.5 267.5,31.25 268.0,29.99999999999997 268.5,28.75 269.0,27.5 269.5,26.25000000000003 270.0,25.0 270.5,23.75 271.0,22.5 271.5,21.25 272.0,20.00000000000003 272.5,18.75 273.0,17.5 273.5,16.25 274.0,15.0 274.5,13.75 275.0,12.5 275.5,11.25 276.0,10.0 276.5,8.75 277.0,7.5 277.5,6.25 278.0,4.999999999999972 278.5,3.75 279.0,2.5 279.5,1.25 280.0,0.0 280.5,-1.2500000000000284 281.0,-2.5000000000000284 281.5,-3.7499999999999716 282.0,-4.999999999999972 282.5,-6.25 283.0,-7.499999999999972 283.5,-8.75 284.0,-10.0 284.5,-11.249999999999972 285.0,-12.5 285.5,-13.750000000000028 286.0,-15.0 286.5,-16.25 287.0,-17.49999999999997 287.5,-18.75 288.0,-20.00000000000003 288.5,-21.25 289.0,-22.5 289.5,-23.74999999999997 290.0,-25.0 290.5,-26.25000000000003 291.0,-27.5 291.5,-28.75 292.0,-30.00000000000003 292.5,-31.25 293.0,-32.50000000000003 293.5,-33.75000000000003 294.0,-34.99999999999997 294.5,-36.24999999999997 295.0,-37.5 295.5,-38.74999999999997 296.0,-40.0 296.5,-41.25 297.0,-42.49999999999997 297.5,-43.75 298.0,-45.00000000000003 298.5,-46.25 299.0,-47.5 299.5,-48.74999999999997 300.0,-50.0 300.5,-51.24999999999997 301.0,-52.5 301.5,-53.74999999999997 302.0,-54.99999999999997 302.5,-56.25 303.0,-57.5 303.5,-58.75 304.0,-60.0 304.5,-61.25 305.0,-62.5 305.5,-63.75 306.0,-65.00000000000006 306.5,-66.24999999999994 307.0,-67.5 307.5,-68.75 308.0,-70.0 308.5,-71.25 309.0,-72.5 309.5,-73.75 310.0,-75.0 310.5,-76.25 311.0,-77.50000000000006 311.5,-78.75 312.0,-80.0 312.5,-81.25 313.0,-82.5 313.5,-83.75 314.0,-84.99999999999994 314.5,-86.25 315.0,-87.5 315.5,-88.75 316.0,-90.0 316.5,-91.25 317.0,-92.5 317.5,-93.75 318.0,-95.0 318.5,-96.25000000000006 319.0,-97.49999999999994 319.5,-98.75 320.0,-100.0 320.5,-101.25 321.0,-102.5 321.5,-103.75 322.0,-105.0 322.5,-106.25 323.0,-107.5 323.5,-108.75000000000006 324.0,-110.0 324.5,-111.25 325.0,-112.5 325.5,-113.75 326.0,-115.0 326.5,-116.24999999999994 327.0,-117.5 327.5,-118.75 328.0,-120.0 328.5,-121.25 329.0,-122.5 329.5,-123.75 330.0,-125.0 330.5,-126.25 331.0,-127.50000000000006 331.5,-128.74999999999994 332.0,-130.0 332.5,-131.25 333.0,-132.5 333.5,-133.75 334.0,-135.0 334.5,-136.25 335.0,-137.5 335.5,-138.75 336.0,-140.00000000000006 336.5,-141.25 337.0,-142.5 337.5,-143.75 338.0,-145.0 338.5,-146.25 339.0,-147.49999999999994 339.5,-148.75 340.0,-150.0 340.5,-151.25 341.0,-152.5 341.5,-153.75 342.0,-155.0 342.5,-156.25 343.0,-157.5 343.5,-158.75000000000006 344.0,-159.99999999999994 344.5,-161.25 345.0,-162.5 345.5,-163.75 346.0,-165.0 346.5,-166.25 347.0,-167.5 347.5,-168.75 348.0,-170.0 348.5,-171.25000000000006 349.0,-172.5 349.5,-173.75 350.0,-175.0 350.5,-176.25 351.0,-177.5 351.5,-178.74999999999994 352.0,-180.0 352.5,-181.25 353.0,-182.5 353.5,-183.75 354.0,-185.0 354.5,-186.25 355.0,-187.5 355.5,-188.75 356.0,-190.00000000000006 356.5,-191.24999999999994 357.0,-192.5 357.5,-193.75 358.0,-195.0 358.5,-196.25 359.0,-197.5 359.5,-198.75 360.0,-200.0 360.5,-201.25 361.0,-202.50000000000006 361.5,-203.74999999999994 362.0,-205.00000000000006 362.5,-206.25 363.0,-207.49999999999994 363.5,-208.75000000000006 364.0,-209.99999999999994 364.5,-211.25 365.0,-212.5 365.5,-213.75 366.0,-214.99999999999994 366.5,-216.24999999999994 367.0,-217.5 367.5,-218.75 368.0,-220.0 368.5,-221.25000000000006 369.0,-222.49999999999994 369.5,-223.75 370.0,-225.0 370.5,-226.25 371.0,-227.50000000000006 371.5,-228.75000000000006 372.0,-230.0 372.5,-231.25 373.0,-232.5 373.5,-233.75000000000006 374.0,-234.99999999999994 374.5,-236.25000000000006 375.0,-237.5 375.5,-238.74999999999994 376.0,-240.00000000000006 376.5,-241.24999999999994 377.0,-242.5 377.5,-243.75 378.0,-245.0 378.5,-246.24999999999994 379.0,-247.49999999999994 379.5,-248.75 380.0,-250.0 380.5,-251.25 381.0,-252.50000000000006 381.5,-253.74999999999994 382.0,-255.0 382.5,-256.25 383.0,-257.5 383.5,-258.75000000000006 384.0,-260.00000000000006 384.5,-261.25 385.0,-262.5 385.5,-263.75 386.0,-265.00000000000006 386.5,-266.24999999999994 387.0,-267.50000000000006 387.5,-268.75 388.0,-269.99999999999994 388.5,-271.25000000000006 389.0,-272.49999999999994 389.5,-273.75 390.0,-275.0 390.5,-276.25 391.0,-277.49999999999994 391.5,-278.74999999999994 392.0,-280.0 392.5,-281.25 393.0,-282.5 393.5,-283.75000000000006 394.0,-284.99999999999994 394.5,-286.25 395.0,-287.5 395.5,-288.75 396.0,-290.00000000000006 396.5,-291.25000000000006 397.0,-292.5 397.5,-293.75 398.0,-295.0 398.5,-296.25000000000006 399.0,-297.49999999999994 399.5,-298.75000000000006 400.0,-300.0" fill="none" stroke="pink" stroke-width="1.5" />
    <polyline points="0,-100.0 0.5,-99.5 1.0,-99.0 1.5,-98.50000000000006 2.0,-98.0 2.5,-97.5 3.0,-97.0 3.5,-96.5 4.0,-96.0 4.5,-95.5 5.0,-95.0 5.5,-94.5 6.0,-94.0 6.5,-93.5 7.0,-93.0 7.5,-92.5 8.0,-92.0 8.5,-91.5 9.0,-91.0 9.5,-90.5 10.0,-90.0 10.5,-89.5 11.0,-88.99999999999994 11.5,-88.5 12.0,-88.0 12.5,-87.5 13.0,-87.0 13.5,-86.5 14.0,-86.00000000000006 14.5,-85.5 15.0,-85.0 15.5,-84.5 16.0,-84.0 16.5,-83.5 17.0,-83.0 17.5,-82.5 18.0,-82.0 18.5,-81.5 19.0,-81.0 19.5,-80.5 20.0,-80.0 20.5,-79.5 21.0,-79.0 21.5,-78.5 22.0,-78.0 22.5,-77.5 23.0,-77.0 23.5,-76.49999999999994 24.0,-76.0 24.5,-75.5 25.0,-75.0 25.5,-74.5 26.0,-74.0 26.5,-73.50000000000006 27.0,-73.0 27.5,-72.5 28.0,-72.0 28.5,-71.5 29.0,-71.0 29.5,-70.5 30.0,-70.0 30.5,-69.5 31.0,-69.0 31.5,-68.5 32.0,-68.0 32.5,-67.5 33.0,-67.0 33.5,-66.5 34.0,-66.0 34.5,-65.5 35.0,-65.0 35.5,-64.5 36.0,-63.99999999999994 36.5,-63.5 37.0,-63.0 37.5,-62.5 38.0,-62.0 38.5,-61.5 39.0,-61.00000000000006 39.5,-60.5 40.0,-60.0 40.5,-59.5 41.0,-59.0 41.5,-58.5 42.0,-58.0 42.5,-57.5 43.0,-57.0 43.5,-56.5 44.0,-56.0 44.5,-55.49999999999997 45.0,-54.99999999999997 45.5,-54.5 46.0,-54.0 46.5,-53.5 47.0,-53.00000000000003 47.5,-52.5 48.0,-52.0 48.5,-51.49999999999997 49.0,-50.99999999999997 49.5,-50.5 50.0,-50.0 50.5,-49.5 51.0,-49.00000000000003 51.5,-48.50000000000003 52.0,-48.0 52.5,-47.5 53.0,-46.99999999999997 53.5,-46.5 54.0,-46.0 54.5,-45.5 55.0,-45.00000000000003 55.5,-44.50000000000003 56.0,-44.0 56.5,-43.5 57.0,-42.99999999999997 57.5,-42.49999999999997 58.0,-42.0 58.5,-41.5 59.0,-41.0 59.5,-40.50000000000003 60.0,-40.0 60.5,-39.5 61.0,-38.99999999999997 61.5,-38.49999999999997 62.0,-38.0 62.5,-37.5 63.0,-37.0 63.5,-36.50000000000003 64.0,-36.00000000000003 64.5,-35.5 65.0,-35.0 65.5,-34.49999999999997 66.0,-34.0 66.5,-33.5 67.0,-33.0 67.5,-32.50000000000003 68.0,-32.00000000000003 68.5,-31.5 69.0,-31.0 69.5,-30.49999999999997 70.0,-29.99999999999997 70.5,-29.5 71.0,-29.0 71.5,-28.5 72.0,-28.00000000000003 72.5,-27.5 73.0,-27.0 73.5,-26.49999999999997 74.0,-25.99999999999997 74.5,-25.5 75.0,-25.0 75.5,-24.5 76.0,-24.00000000000003 76.5,-23.50000000000003 77.0,-23.0 77.5,-22.5 78.0,-21.99999999999997 78.5,-21.5 79.0,-21.0 79.5,-20.5 80.0,-20.00000000000003 80.5,-19.50000000000003 81.0,-19.0 81.5,-18.5 82.0,-17.99999999999997 82.5,-17.49999999999997 83.0,-17.0 83.5,-16.5 84.0,-16.0 84.5,-15.500000000000028 85.0,-15.0 85.5,-14.5 86.0,-13.999999999999972 86.5,-13.499999999999972 87.0,-13.0 87.5,-12.5 88.0,-12.0 88.5,-11.500000000000028 89.0,-11.000000000000028 89.5,-10.5 90.0,-10.0 90.5,-9.499999999999972 91.0,-9.0 91.5,-8.5 92.0,-8.0 92.5,-7.500000000000028 93.0,-7.000000000000028 93.5,-6.5 94.0,-6.0 94.5,-5.499999999999972 95.0,-4.999999999999972 95.5,-4.5 96.0,-4.0 96.5,-3.5 97.0,-3.0000000000000284 97.5,-2.5 98.0,-2.0 98.5,-1.4999999999999716 99.0,-0.9999999999999716 99.5,-0.5 100.0,0.0 100.5,0.5 101.0,1.0 101.5,1.5 102.0,2.0 102.5,2.5 103.0,3.0 103.5,3.5 104.0,4.0 104.5,4.5 105.0,5.0 105.5,5.500000000000028 106.0,6.0 106.5,6.5 107.0,6.999999999999972 107.5,7.5 108.0,8.0 108.5,8.5 109.0,9.0 109.5,9.5 110.0,10.0 110.5,10.5 111.0,11.0 111.5,11.5 112.0,12.0 112.5,12.5 113.0,13.0 113.5,13.5 114.0,14.0 114.5,14.5 115.0,15.0 115.5,15.5 116.0,16.0 116.5,16.5 117.0,17.0 117.5,17.5 118.0,18.00000000000003 118.5,18.5 119.0,19.0 119.5,19.49999999999997 120.0,20.0 120.5,20.5 121.0,21.0 121.5,21.5 122.0,22.0 122.5,22.5 123.0,23.0 123.5,23.5 124.0,24.0 124.5,24.5 125.0,25.0 125.5,25.5 126.0,26.0 126.5,26.5 127.0,27.0 127.5,27.5 128.0,28.0 128.5,28.5 129.0,29.0 129.5,29.5 130.0,30.0 130.5,30.50000000000003 131.0,31.0 131.5,31.5 132.0,31.99999999999997 132.5,32.5 133.0,33.0 133.5,33.5 134.0,34.0 134.5,34.5 135.0,35.0 135.5,35.5 136.0,36.0 136.5,36.5 137.0,37.0 137.5,37.5 138.0,38.0 138.5,38.5 139.0,39.0 139.5,39.5 140.0,40.0 140.5,40.5 141.0,41.0 141.5,41.5 142.0,42.0 142.5,42.5 143.0,43.00000000000003 143.5,43.5 144.0,44.0 144.5,44.49999999999997 145.0,45.0 145.5,45.5 146.0,46.0 146.5,46.5 147.0,47.0 147.5,47.5 148.0,48.0 148.5,48.5 149.0,49.0 149.5,49.5 150.0,50.0 150.5,50.5 151.0,51.0 151.5,51.5 152.0,52.0 152.5,52.5 153.0,53.0 153.5,53.5 154.0,54.0 154.5,54.5 155.0,55.0 155.5,55.5 156.0,56.0 156.5,56.5 157.0,57.0 157.5,57.5 158.0,58.0 158.5,58.5 159.0,59.0 159.5,59.5 160.0,60.0 160.5,60.5 161.0,61.0 161.5,61.5 162.0,62.0 162.5,62.5 163.0,63.0 163.5,63.5 164.0,64.0 164.5,64.5 165.0,65.0 165.5,65.5 166.0,66.0 166.5,66.5 167.0,67.0 167.5,67.5 168.0,68.0 168.5,68.5 169.0,69.0 169.5,69.5 170.0,70.0 170.5,70.5 171.0,71.0 171.5,71.5 172.0,72.0 172.5,72.50000000000001 173.0,73.0 173.5,73.49999999999999 174.0,74.0 174.5,74.50000000000001 175.0,75.0 175.5,75.49999999999999 176.0,76.0 176.5,76.50000000000001 177.0,77.0 177.5,77.49999999999999 178.0,78.0 178.5,78.49999999999999 179.0,79.0 179.5,79.5 180.0,80.0 180.5,80.5 181.0,81.0 181.5,81.5 182.0,82.0 182.5,82.5 183.0,83.0 183.5,83.5 184.0,84.00000000000001 184.5,84.5 185.0,85.00000000000001 185.5,85.5 186.0,85.99999999999999 186.5,86.5 187.0,87.00000000000001 187.5,87.5 188.0,87.99999999999999 188.5,88.5 189.0,88.99999999999999 189.5,89.5 190.0,89.99999999999999 190.5,90.5 191.0,90.99999999999999 191.5,91.5 192.0,92.0 192.5,92.5 193.0,93.0 193.5,93.5 194.0,94.0 194.5,94.5 195.0,95.0 195.5,95.5 196.0,96.0 196.5,96.50000000000001 197.0,97.0 197.5,97.50000000000001 198.0,98.0 198.5,98.50000000000001 199.0,99.0 199.5,99.50000000000001 200.0,100.0 200.5,100.5 201.0,101.0 201.5,101.5 202.0,102.0 202.5,102.5 203.0,103.0 203.5,103.5 204.0,104.0 204.5,104.5 205.0,105.0 205.5,105.5 206.0,106.0 206.5,106.5 207.0,107.0 207.5,107.5 208.0,108.0 208.5,108.5 209.0,109.0 209.5,109.5 210.0,110.0 210.5,110.5 211.0,111.0 211.5,111.5 212.0,112.0 212.5,112.5 213.0,113.0 213.5,113.5 214.0,114.0 214.5,114.5 215.0,115.0 215.5,115.5 216.0,116.0 216.5,116.5 217.0,117.0 217.5,117.5 218.0,118.0 218.5,118.5 219.0,119.0 219.5,119.5 220.0,120.0 220.5,120.5 221.0,121.0 221.5,121.5 222.0,122.0 222.5,122.5 223.0,123.0 223.5,123.5 224.0,124.0 224.5,124.5 225.0,125.0 225.5,125.5 226.0,126.0 226.5,126.5 227.0,127.0 227.5,127.5 228.0,128.0 228.5,128.5 229.0,129.0 229.5,129.5 230.0,130.0 230.5,130.5 231.0,131.0 231.5,131.5 232.0,132.0 232.5,132.5 233.0,133.0 233.5,133.5 234.0,134.0 234.5,134.5 235.0,135.0 235.5,135.5 236.0,136.0 236.5,136.5 237.0,137.0 237.5,137.5 238.0,138.0 238.5,138.5 239.0,139.0 239.5,139.5 240.0,140.0 240.5,140.5 241.0,141.0 241.5,141.5 242.0,142.0 242.5,142.5 243.0,143.0 243.5,143.5 244.0,144.0 244.5,144.5 245.0,145.0 245.5,145.5 246.0,146.0 246.5,146.5 247.0,147.0 247.5,147.5 248.0,148.0 248.5,148.5 249.0,149.0 249.5,149.5 250.0,150.0 250.5,150.5 251.0,151.0 251.5,151.5 252.0,152.0 252.5,152.5 253.0,153.0 253.5,153.5 254.0,154.0 254.5,154.5 255.0,155.0 255.5,155.5 256.0,156.0 256.5,156.5 257.0,157.0 257.5,157.5 258.0,158.0 258.5,158.5 259.0,159.0 259.5,159.5 260.0,160.0 260.5,160.5 261.0,161.0 261.5,161.5 262.0,162.0 262.5,162.5 263.0,163.0 263.5,163.5 264.0,164.0 264.5,164.5 265.0,165.0 265.5,165.5 266.0,166.0 266.5,166.5 267.0,167.0 267.5,167.5 268.0,168.0 268.5,168.5 269.0,169.0 269.5,169.5 270.0,170.0 270.5,170.5 271.0,171.0 271.5,171.5 272.0,172.0 272.5,172.5 273.0,173.0 273.5,173.5 274.0,174.0 274.5,174.5 275.0,175.0 275.5,175.5 276.0,176.0 276.5,176.5 277.0,177.0 277.5,177.5 278.0,178.0 278.5,178.5 279.0,179.0 279.5,179.5 280.0,180.0 280.5,180.5 281.0,181.0 281.5,181.5 282.0,182.0 282.5,182.5 283.0,183.0 283.5,183.5 284.0,184.0 284.5,184.5 285.0,185.0 285.5,185.5 286.0,186.0 286.5,186.5 287.0,187.0 287.5,187.5 288.0,188.0 288.5,188.5 289.0,189.0 289.5,189.5 290.0,190.0 290.5,190.5 291.0,191.0 291.5,191.5 292.0,192.0 292.5,192.5 293.0,193.0 293.5,193.5 294.0,194.0 294.5,194.5 295.0,195.0 295.5,195.5 296.0,196.0 296.5,196.5 297.0,197.0 297.5,197.5 298.0,198.0 298.5,198.5 299.0,199.0 299.5,199.5 300.0,200.0 300.5,200.5 301.0,201.0 301.5,201.5 302.0,202.0 302.5,202.5 303.0,203.0 303.5,203.5 304.0,204.0 304.5,204.5 305.0,205.0 305.5,205.5 306.0,206.0 306.5,206.5 307.0,207.0 307.5,207.5 308.0,208.0 308.5,208.5 309.0,209.0 309.5,209.5 310.0,210.0 310.5,210.5 311.0,211.0 311.5,211.5 312.0,212.0 312.5,212.5 313.0,213.0 313.5,213.5 314.0,214.0 314.5,214.5 315.0,215.0 315.5,215.5 316.0,216.0 316.5,216.5 317.0,217.0 317.5,217.5 318.0,218.0 318.5,218.5 319.0,219.0 319.5,219.5 320.0,220.0 320.5,220.5 321.0,221.0 321.5,221.5 322.0,222.0 322.5,222.5 323.0,223.0 323.5,223.5 324.0,224.0 324.5,224.5 325.0,225.0 325.5,225.5 326.0,226.0 326.5,226.5 327.0,227.0 327.5,227.5 328.0,228.0 328.5,228.5 329.0,229.0 329.5,229.5 330.0,230.0 330.5,230.5 331.0,231.0 331.5,231.5 332.0,232.0 332.5,232.5 333.0,233.0 333.5,233.5 334.0,234.0 334.5,234.5 335.0,235.0 335.5,235.5 336.0,236.0 336.5,236.5 337.0,237.0 337.5,237.5 338.0,238.0 338.5,238.5 339.0,239.0 339.5,239.5 340.0,240.0 340.5,240.5 341.0,241.0 341.5,241.5 342.0,242.0 342.5,242.5 343.0,243.0 343.5,243.5 344.0,244.0 344.5,244.5 345.0,245.0 345.5,245.5 346.0,246.0 346.5,246.5 347.0,247.0 347.5,247.5 348.0,248.0 348.5,248.5 349.0,249.0 349.5,249.5 350.0,250.0 350.5,250.5 351.0,251.0 351.5,251.5 352.0,252.0 352.5,252.5 353.0,253.0 353.5,253.5 354.0,254.0 354.5,254.5 355.0,255.0 355.5,255.5 356.0,256.0 356.5,256.5 357.0,257.0 357.5,257.5 358.0,258.0 358.5,258.5 359.0,259.0 359.5,259.5 360.0,260.0 360.5,260.5 361.0,261.0 361.5,261.5 362.0,262.0 362.5,262.5 363.0,263.0 363.5,263.5 364.0,264.0 364.5,264.5 365.0,265.0 365.5,265.5 366.0,266.0 366.5,266.5 367.0,267.0 367.5,267.5 368.0,268.0 368.5,268.5 369.0,269.0 369.5,269.5 370.0,270.0 370.5,270.5 371.0,271.0 371.5,271.5 372.0,272.0 372.5,272.5 373.0,273.0 373.5,273.5 374.0,274.0 374.5,274.5 375.0,275.0 375.5,275.5 376.0,276.0 376.5,276.5 377.0,277.0 377.5,277.5 378.0,278.0 378.5,278.5 379.0,279.0 379.5,279.5 380.0,280.0 380.5,280.5 381.0,281.0 381.5,281.5 382.0,282.0 382.5,282.5 383.0,283.0 383.5,283.5 384.0,284.0 384.5,284.5 385.0,285.0 385.5,285.5 386.0,286.0 386.5,286.5 387.0,287.0 387.5,287.5 388.0,288.0 388.5,288.5 389.0,289.0 389.5,289.5 390.0,290.0 390.5,290.5 391.0,291.0 391.5,291.5 392.0,292.0 392.5,292.5 393.0,293.0 393.5,293.5 394.0,294.0 394.5,294.5 395.0,295.0 395.5,295.5 396.0,296.0 396.5,296.5 397.0,297.0 397.5,297.5 398.0,298.0 398.5,298.5 399.0,299.0 399.5,299.5 400.0,300.0" fill="none" stroke="black" stroke-width="1.5" />
    <text x="37.5" y="100.0" font-size="18" fill="black">y = mx+b</text>
    <text x="65.9" y="154.5" font-size="18" fill="black" text-anchor="end">m = </text>
    <text x="87.5" y="144.6" font-size="18" fill="black" text-anchor="middle">y - b</text>
    <text x="87.5" y="162.6" font-size="18" fill="black" text-anchor="middle">x</text>
    <line x1="69.5" y1="150.0" x2="105.5" y2="150.0" stroke="black" stroke-width="0.5" />
</svg>