<svg width="400" height="400" xmlns="http://www.w3.org/2000/svg" style="background:white;">
    <line x1="0" y1="200.0" x2="400" y2="200.0" stroke="black" stroke-width="1.0" />
    <line x1="200.0" y1="0" x2="200.0" y2="400" stroke="black" stroke-width="1.0" />
    <line x1="0.0" y1="0" x2="0.0" y2="400" stroke="#eee" stroke-width="0.5" />
    <line x1="25.0" y1="0" x2="25.0" y2="400" stroke="#eee" stroke-width="0.5" />
    <line x1="50.0" y1="0" x2="50.0" y2="400" stroke="#eee" stroke-width="0.5" />
    <line x1="75.0" y1="0" x2="75.0" y2="400" stroke="#eee" stroke-width="0.5" />
    <line x1="100.0" y1="0" x2="100.0" y2="400" stroke="#eee" stroke-width="0.5" />
    <line x1="125.0" y1="0" x2="125.0" y2="400" stroke="#eee" stroke-width="0.5" />
    <line x1="150.0" y1="0" x2="150.0" y2="400" stroke="#eee" stroke-width="0.5" />
    <line x1="175.0" y1="0" x2="175.0" y2="400" stroke="#eee" stroke-width="0.5" />
    <line x1="200.0" y1="0" x2="200.0" y2="400" stroke="#eee" stroke-width="0.5" />
    <line x1="225.0" y1="0" x2="225.0" y2="400" stroke="#eee" stroke-width="0.5" />
    <line x1="250.0" y1="0" x2="250.0" y2="400" stroke="#eee" stroke-width="0.5" />
    <line x1="275.0" y1="0" x2="275.0" y2="400" stroke="#eee" stroke-width="0.5" />
    <line x1="300.0" y1="0" x2="300.0" y2="400" stroke="#eee" stroke-width="0.5" />
    <line x1="325.0" y1="0" x2="325.0" y2="400" stroke="#eee" stroke-width="0.5" />
    <line x1="350.0" y1="0" x2="350.0" y2="400" stroke="#eee" stroke-width="0.5" />
    <line x1="375.0" y1="0" x2="375.0" y2="400" stroke="#eee" stroke-width="0.5" />
    <line x1="400.0" y1="0" x2="400.0" y2="400" stroke="#eee" stroke-width="0.5" />
    <line x1="0" y1="400.0" x2="400" y2="400.0" stroke="#eee" stroke-width="0.5" />
    <line x1="0" y1="375.0" x2="400" y2="375.0" stroke="#eee" stroke-width="0.5" />
    <line x1="0" y1="350.0" x2="400" y2="350.0" stroke="#eee" stroke-width="0.5" />
    <line x1="0" y1="325.0" x2="400" y2="325.0" stroke="#eee" stroke-width="0.5" />
    <line x1="0" y1="300.0" x2="400" y2="300.0" stroke="#eee" stroke-width="0.5" />
    <line x1="0" y1="275.0" x2="400" y2="275.0" stroke="#eee" stroke-width="0.5" />
    <line x1="0" y1="250.0" x2="400" y2="250.0" stroke="#eee" stroke-width="0.5" />
    <line x1="0" y1="225.0" x2="400" y2="225.0" stroke="#eee" stroke-width="0.5" />
    <line x1="0" y1="200.0" x2="400" y2="200.0" stroke="#eee" stroke-width="0.5" />
    <line x1="0" y1="175.0" x2="400" y2="175.0" stroke="#eee" stroke-width="0.5" />
    <line x1="0" y1="150.0" x2="400" y2="150.0" stroke="#eee" stroke-width="0.5" />
    <line x1="0" y1="125.0" x2="400" y2="125.0" stroke="#eee" stroke-width="0.5" />
    <line x1="0" y1="100.0" x2="400" y2="100.0" stroke="#eee" stroke-width="0.5" />
    <line x1="0" y1="75.0" x2="400" y2="75.0" stroke="#eee" stroke-width="0.5" />
    <line x1="0" y1="50.0" x2="400" y2="50.0" stroke="#eee" stroke-width="0.5" />
    <line x1="0" y1="25.0" x2="400" y2="25.0" stroke="#eee" stroke-width="0.5" />
    <line x1="0" y1="0.0" x2="400" y2="0.0" stroke="#eee" stroke-width="0.5" />
    <line x1="0.0" y1="197.0" x2="0.0" y2="203.0" stroke="black" stroke-width="0.5" />
    <text x="-6.0" y="214.0" font-size="12" fill="black">-8</text>
    <line x1="25.0" y1="197.0" x2="25.0" y2="203.0" stroke="black" stroke-width="0.5" />
    <text x="19.0" y="214.0" font-size="12" fill="black">-7</text>
    <line x1="50.0" y1="197.0" x2="50.0" y2="203.0" stroke="black" stroke-width="0.5" />
    <text x="44.0" y="214.0" font-size="12" fill="black">-6</text>
    <line x1="75.0" y1="197.0" x2="75.0" y2="203.0" stroke="black" stroke-width="0.5" />
    <text x="69.0" y="214.0" font-size="12" fill="black">-5</text>
    <line x1="100.0" y1="197.0" x2="100.0" y2="203.0" stroke="black" stroke-width="0.5" />
    <text x="94.0" y="214.0" font-size="12" fill="black">-4</text>
    <line x1="125.0" y1="197.0" x2="125.0" y2="203.0" stroke="black" stroke-width="0.5" />
    <text x="119.0" y="214.0" font-size="12" fill="black">-3</text>
    <line x1="150.0" y1="197.0" x2="150.0" y2="203.0" stroke="black" stroke-width="0.5" />
    <text x="144.0" y="214.0" font-size="12" fill="black">-2</text>
    <line x1="175.0" y1="197.0" x2="175.0" y2="203.0" stroke="black" stroke-width="0.5" />
    <text x="169.0" y="214.0" font-size="12" fill="black">-1</text>
    <line x1="200.0" y1="197.0" x2="200.0" y2="203.0" stroke="black" stroke-width="0.5" />
    <text x="194.0" y="214.0" font-size="12" fill="black">0</text>
    <line x1="225.0" y1="197.0" x2="225.0" y2="203.0" stroke="black" stroke-width="0.5" />
    <text x="219.0" y="214.0" font-size="12" fill="black">1</text>
    <line x1="250.0" y1="197.0" x2="250.0" y2="203.0" stroke="black" stroke-width="0.5" />
    <text x="244.0" y="214.0" font-size="12" fill="black">2</text>
    <line x1="275.0" y1="197.0" x2="275.0" y2="203.0" stroke="black" stroke-width="0.5" />
    <text x="269.0" y="214.0" font-size="12" fill="black">3</text>
    <line x1="300.0" y1="197.0" x2="300.0" y2="203.0" stroke="black" stroke-width="0.5" />
    <text x="294.0" y="214.0" font-size="12" fill="black">4</text>
    <line x1="325.0" y1="197.0" x2="325.0" y2="203.0" stroke="black" stroke-width="0.5" />
    <text x="319.0" y="214.0" font-size="12" fill="black">5</text>
    <line x1="350.0" y1="197.0" x2="350.0" y2="203.0" stroke="black" stroke-width="0.5" />
    <text x="344.0" y="214.0" font-size="12" fill="black">6</text>
    <line x1="375.0" y1="197.0" x2="375.0" y2="203.0" stroke="black" stroke-width="0.5" />
    <text x="369.0" y="214.0" font-size="12" fill="black">7</text>
    <line x1="400.0" y1="197.0" x2="400.0" y2="203.0" stroke="black" stroke-width="0.5" />
    <text x="394.0" y="214.0" font-size="12" fill="black">8</text>
    <line x1="197.0" y1="400.0" x2="203.0" y2="400.0" stroke="black" stroke-width="0.5" />
    <text x="186.0" y="404.0" font-size="12" fill="black">-8</text>
    <line x1="197.0" y1="375.0" x2="203.0" y2="375.0" stroke="black" stroke-width="0.5" />
    <text x="186.0" y="379.0" font-size="12" fill="black">-7</text>
    <line x1="197.0" y1="350.0" x2="203.0" y2="350.0" stroke="black" stroke-width="0.5" />
    <text x="186.0" y="354.0" font-size="12" fill="black">-6</text>
    <line x1="197.0" y1="325.0" x2="203.0" y2="325.0" stroke="black" stroke-width="0.5" />
    <text x="186.0" y="329.0" font-size="12" fill="black">-5</text>
    <line x1="197.0" y1="300.0" x2="203.0" y2="300.0" stroke="black" stroke-width="0.5" />
    <text x="186.0" y="304.0" font-size="12" fill="black">-4</text>
    <line x1="197.0" y1="275.0" x2="203.0" y2="275.0" stroke="black" stroke-width="0.5" />
    <text x="186.0" y="279.0" font-size="12" fill="black">-3</text>
    <line x1="197.0" y1="250.0" x2="203.0" y2="250.0" stroke="black" stroke-width="0.5" />
    <text x="186.0" y="254.0" font-size="12" fill="black">-2</text>
    <line x1="197.0" y1="225.0" x2="203.0" y2="225.0" stroke="black" stroke-width="0.5" />
    <text x="186.0" y="229.0" font-size="12" fill="black">-1</text>
    <line x1="197.0" y1="200.0" x2="203.0" y2="200.0" stroke="black" stroke-width="0.5" />
    <text x="186.0" y="204.0" font-size="12" fill="black">0</text>
    <line x1="197.0" y1="175.0" x2="203.0" y2="175.0" stroke="black" stroke-width="0.5" />
    <text x="186.0" y="179.0" font-size="12" fill="black">1</text>
    <line x1="197.0" y1="150.0" x2="203.0" y2="150.0" stroke="black" stroke-width="0.5" />
    <text x="186.0" y="154.0" font-size="12" fill="black">2</text>
    <line x1="197.0" y1="125.0" x2="203.0" y2="125.0" stroke="black" stroke-width="0.5" />
    <text x="186.0" y="129.0" font-size="12" fill="black">3</text>
    <line x1="197.0" y1="100.0" x2="203.0" y2="100.0" stroke="black" stroke-width="0.5" />
    <text x="186.0" y="104.0" font-size="12" fill="black">4</text>
    <line x1="197.0" y1="75.0" x2="203.0" y2="75.0" stroke="black" stroke-width="0.5" />
    <text x="186.0" y="79.0" font-size="12" fill="black">5</text>
    <line x1="197.0" y1="50.0" x2="203.0" y2="50.0" stroke="black" stroke-width="0.5" />
    <text x="186.0" y="54.0" font-size="12" fill="black">6</text>
    <line x1="197.0" y1="25.0" x2="203.0" y2="25.0" stroke="black" stroke-width="0.5" />
    <text x="186.0" y="29.0" font-size="12" fill="black">7</text>
    <line x1="197.0" y1="0.0" x2="203.0" y2="0.0" stroke="black" stroke-width="0.5" />
    <text x="186.0" y="4.0" font-size="12" fill="black">8</text>
    <polyline points="0,525.0 0.5,524.0 1.0,523.0 1.5,522.0 2.0,521.0 2.5,520.0 3.0,519.0 3.5,518.0 4.0,517.0 4.5,516.0 5.0,515.0 5.5,514.0 6.0,513.0 6.5,512.0 7.0,511.0 7.5,510.0 8.0,509.0 8.5,508.0 9.0,507.0 9.5,506.0 10.0,505.0 10.5,504.0 11.0,503.0 11.5,502.0 12.0,501.0 12.5,500.0 13.0,499.0 13.5,498.0 14.0,497.0 14.5,496.0 15.0,495.0 15.5,494.0 16.0,493.0 16.5,492.0 17.0,491.0 17.5,490.0 18.0,489.0 18.5,488.0 19.0,487.0 19.5,486.0 20.0,485.0 20.5,484.0 21.0,483.0 21.5,482.0 22.0,481.0 22.5,480.0 23.0,479.0 23.5,478.0 24.0,477.0 24.5,476.0 25.0,475.0 25.5,474.0 26.0,473.0 26.5,472.0 27.0,471.0 27.5,470.0 28.0,469.0 28.5,468.0 29.0,467.0 29.5,466.0 30.0,465.0 30.5,464.0 31.0,463.0 31.5,462.0 32.0,461.0 32.5,460.0 33.0,459.0 33.5,458.0 34.0,457.0 34.5,456.0 35.0,455.0 35.5,454.0 36.0,453.0 36.5,452.0 37.0,451.0 37.5,450.0 38.0,449.0 38.5,448.0 39.0,447.0 39.5,446.0 40.0,445.0 40.5,444.0 41.0,443.0 41.5,442.0 42.0,441.0 42.5,440.0 43.0,439.0 43.5,438.0 44.0,437.0 44.5,436.0 45.0,435.0 45.5,434.0 46.0,433.0 46.5,432.0 47.0,431.0 47.5,430.0 48.0,429.0 48.5,428.0 49.0,427.0 49.5,426.0 50.0,425.0 50.5,424.0 51.0,423.0 51.5,422.0 52.0,421.0 52.5,420.0 53.0,419.0 53.5,418.0 54.0,417.0 54.5,416.0 55.0,415.0 55.5,414.0 56.0,413.0 56.5,412.0 57.0,411.0 57.5,410.0 58.0,409.0 58.5,408.0 59.0,407.0 59.5,406.0 60.0,405.0 60.5,404.0 61.0,403.0 61.5,402.0 62.0,401.0 62.5,400.0 63.0,399.0 63.5,398.0 64.0,397.0 64.5,396.0 65.0,395.0 65.5,394.0 66.0,393.0 66.5,392.0 67.0,391.0 67.5,390.0 68.0,389.0 68.5,388.0 69.0,387.0 69.5,386.0 70.0,385.0 70.5,384.0 71.0,383.0 71.5,382.0 72.0,381.0 72.5,380.0 73.0,379.0 73.5,378.0 74.0,377.0 74.5,376.0 75.0,375.0 75.5,374.0 76.0,373.0 76.5,372.0 77.0,371.0 77.5,370.0 78.0,369.0 78.5,368.0 79.0,367.0 79.5,366.0 80.0,365.0 80.5,364.0 81.0,363.0 81.5,362.0 82.0,361.0 82.5,360.0 83.0,359.0 83.5,358.0 84.0,357.0 84.5,356.0 85.0,355.0 85.5,354.0 86.0,353.0 86.5,352.0 87.0,351.0 87.5,350.0 88.0,349.0 88.5,348.0 89.0,347.0 89.5,346.0 90.0,345.0 90.5,344.0 91.0,343.0 91.5,342.0 92.0,341.0 92.5,340.0 93.0,339.0 93.5,338.0 94.0,337.0 94.5,336.0 95.0,335.0 95.5,334.0 96.0,333.0 96.5,332.0 97.0,331.0 97.5,330.0 98.0,329.0 98.5,328.0 99.0,327.0 99.5,326.0 100.0,325.0 100.5,324.0 101.0,323.0 101.5,322.0 102.0,321.0 102.5,320.0 103.0,319.0 103.5,318.0 104.0,317.0 104.5,316.0 105.0,315.0 105.5,314.0 106.0,313.0 106.5,312.0 107.0,311.0 107.5,310.0 108.0,309.0 108.5,308.0 109.0,307.0 109.5,306.0 110.0,305.0 110.5,304.0 111.0,303.0 111.5,302.0 112.0,301.0 112.5,300.0 113.0,299.0 113.5,298.0 114.0,297.0 114.5,296.0 115.0,295.0 115.5,294.0 116.0,293.0 116.5,292.0 117.0,291.0 117.5,290.0 118.0,289.0 118.5,288.0 119.0,287.0 119.5,286.0 120.0,285.0 120.5,284.0 121.0,283.0 121.5,282.0 122.0,281.0 122.5,280.0 123.0,279.0 123.5,278.0 124.0,277.0 124.5,276.0 125.0,275.0 125.5,274.0 126.0,273.0 126.5,272.0 127.0,271.0 127.5,270.0 128.0,269.0 128.5,268.0 129.0,267.0 129.5,266.0 130.0,265.0 130.5,264.0 131.0,263.0 131.5,262.0 132.0,261.0 132.5,260.0 133.0,259.0 133.5,258.0 134.0,257.0 134.5,256.0 135.0,255.0 135.5,254.0 136.0,253.0 136.5,252.0 137.0,251.0 137.5,250.0 138.0,249.0 138.5,248.0 139.0,247.0 139.5,246.0 140.0,245.0 140.5,244.0 141.0,243.0 141.5,242.0 142.0,241.0 142.5,240.0 143.0,239.0 143.5,238.0 144.0,237.0 144.5,236.0 145.0,235.0 145.5,234.0 146.0,233.0 146.5,232.0 147.0,231.0 147.5,230.0 148.0,229.0 148.5,228.0 149.0,227.0 149.5,226.0 150.0,225.0 150.5,224.0 151.0,223.0 151.5,222.0 152.0,221.0 152.5,220.0 153.0,219.0 153.5,218.0 154.0,217.0 154.5,216.0 155.0,215.0 155.5,214.0 156.0,213.0 156.5,212.0 157.0,211.0 157.5,210.0 158.0,209.0 158.5,208.0 159.0,207.0 159.5,206.0 160.0,205.0 160.5,204.0 161.0,203.0 161.5,202.0 162.0,201.0 162.5,200.0 163.0,199.0 163.5,198.0 164.0,197.0 164.5,196.0 165.0,195.0 165.5,194.0 166.0,193.0 166.5,192.0 167.0,191.0 167.5,190.0 168.0,189.0 168.5,188.0 169.0,187.0 169.5,186.0 170.0,185.0 170.5,184.0 171.0,183.0 171.5,182.0 172.0,181.0 172.5,180.0 173.0,179.0 173.5,178.0 174.0,177.0 174.5,176.0 175.0,175.0 175.5,174.0 176.0,173.0 176.5,172.0 177.0,171.0 177.5,170.0 178.0,169.0 178.5,168.0 179.0,167.0 179.5,166.0 180.0,165.0 180.5,164.0 181.0,163.0 181.5,162.0 182.0,161.0 182.5,160.0 183.0,159.0 183.5,158.0 184.0,157.0 184.5,156.0 185.0,155.0 185.5,154.0 186.0,153.0 186.5,152.0 187.0,151.0 187.5,150.0 188.0,149.0 188.5,148.0 189.0,147.0 189.5,146.0 190.0,145.0 190.5,144.0 191.0,143.0 191.5,142.0 192.0,141.0 192.5,140.0 193.0,139.0 193.5,138.0 194.0,137.0 194.5,136.0 195.0,135.0 195.5,134.0 196.0,133.0 196.5,132.0 197.0,131.0 197.5,130.0 198.0,129.0 198.5,128.0 199.0,127.0 199.5,126.0 200.0,125.0 200.5,124.0 201.0,123.0 201.5,122.0 202.0,121.0 202.5,120.0 203.0,119.0 203.5,118.0 204.0,117.0 204.5,116.0 205.0,115.0 205.5,114.0 206.0,113.0 206.5,112.0 207.0,111.0 207.5,110.0 208.0,109.0 208.5,108.0 209.0,107.0 209.5,106.0 210.0,105.0 210.5,104.0 211.0,103.0 211.5,102.0 212.0,101.0 212.5,100.0 213.0,99.0 213.5,98.0 214.0,97.0 214.5,96.0 215.0,95.0 215.5,94.0 216.0,93.0 216.5,92.0 217.0,90.99999999999999 217.5,89.99999999999999 218.0,89.00000000000001 218.5,87.99999999999999 219.0,87.00000000000001 219.5,85.99999999999999 220.0,85.00000000000001 220.5,84.00000000000001 221.0,83.0 221.5,82.0 222.0,81.0 222.5,80.0 223.0,79.0 223.5,78.0 224.0,77.0 224.5,76.0 225.0,75.0 225.5,74.0 226.0,73.0 226.5,72.0 227.0,71.0 227.5,70.0 228.0,69.0 228.5,68.00000000000003 229.0,67.0 229.5,66.0 230.0,65.0 230.5,64.0 231.0,63.0 231.5,62.0 232.0,61.0 232.5,60.0 233.0,59.0 233.5,58.0 234.0,56.99999999999997 234.5,56.0 235.0,55.0 235.5,54.0 236.0,53.0 236.5,52.0 237.0,51.0 237.5,50.0 238.0,49.0 238.5,48.0 239.0,47.0 239.5,46.0 240.0,45.0 240.5,44.0 241.0,43.00000000000003 241.5,42.0 242.0,41.0 242.5,40.0 243.0,39.0 243.5,38.0 244.0,37.0 244.5,36.0 245.0,35.0 245.5,34.0 246.0,33.0 246.5,31.99999999999997 247.0,31.0 247.5,30.0 248.0,29.0 248.5,28.0 249.0,27.0 249.5,26.0 250.0,25.0 250.5,24.0 251.0,23.0 251.5,22.0 252.0,21.0 252.5,20.0 253.0,19.0 253.5,18.0 254.0,17.0 254.5,16.0 255.0,15.0 255.5,14.0 256.0,13.0 256.5,12.0 257.0,11.0 257.5,10.0 258.0,9.0 258.5,8.0 259.0,7.0 259.5,6.0 260.0,5.0 260.5,4.0 261.0,3.0 261.5,2.0 262.0,1.0 262.5,0.0 263.0,-0.9999999999999716 263.5,-2.0 264.0,-3.0000000000000284 264.5,-4.0 265.0,-4.999999999999972 265.5,-6.0 266.0,-7.000000000000028 266.5,-8.0 267.0,-9.0 267.5,-10.0 268.0,-11.000000000000028 268.5,-12.0 269.0,-13.0 269.5,-13.999999999999972 270.0,-15.0 270.5,-16.0 271.0,-17.0 271.5,-17.99999999999997 272.0,-19.0 272.5,-20.00000000000003 273.0,-21.0 273.5,-21.99999999999997 274.0,-23.0 274.5,-24.00000000000003 275.0,-25.0 275.5,-25.99999999999997 276.0,-27.0 276.5,-28.00000000000003 277.0,-29.0 277.5,-29.99999999999997 278.0,-31.0 278.5,-32.00000000000003 279.0,-33.0 279.5,-34.0 280.0,-35.0 280.5,-36.00000000000003 281.0,-37.0 281.5,-38.0 282.0,-38.99999999999997 282.5,-40.0 283.0,-41.0 283.5,-42.0 284.0,-42.99999999999997 284.5,-44.0 285.0,-45.00000000000003 285.5,-46.0 286.0,-46.99999999999997 286.5,-48.0 287.0,-49.00000000000003 287.5,-50.0 288.0,-50.99999999999997 288.5,-52.0 289.0,-53.00000000000003 289.5,-54.0 290.0,-54.99999999999997 290.5,-56.0 291.0,-57.0 291.5,-58.0 292.0,-59.0 292.5,-60.0 293.0,-61.00000000000006 293.5,-62.0 294.0,-63.0 294.5,-63.99999999999994 295.0,-65.0 295.5,-66.0 296.0,-67.0 296.5,-68.0 297.0,-69.0 297.5,-70.0 298.0,-71.0 298.5,-72.0 299.0,-73.0 299.5,-74.0 300.0,-75.0 300.5,-76.0 301.0,-77.0 301.5,-78.0 302.0,-79.0 302.5,-80.0 303.0,-81.0 303.5,-82.0 304.0,-83.0 304.5,-84.0 305.0,-85.0 305.5,-86.0 306.0,-87.0 306.5,-88.0 307.0,-89.0 307.5,-90.0 308.0,-91.0 308.5,-92.0 309.0,-93.0 309.5,-94.0 310.0,-95.0 310.5,-96.0 311.0,-97.0 311.5,-98.0 312.0,-99.0 312.5,-100.0 313.0,-101.0 313.5,-102.0 314.0,-103.0 314.5,-104.0 315.0,-105.0 315.5,-106.0 316.0,-107.0 316.5,-108.0 317.0,-109.0 317.5,-110.0 318.0,-111.0 318.5,-112.0 319.0,-113.0 319.5,-114.0 320.0,-115.0 320.5,-116.0 321.0,-117.0 321.5,-118.0 322.0,-119.0 322.5,-120.0 323.0,-121.0 323.5,-122.0 324.0,-123.0 324.5,-124.0 325.0,-125.0 325.5,-126.0 326.0,-127.0 326.5,-128.0 327.0,-129.0 327.5,-130.0 328.0,-131.0 328.5,-132.0 329.0,-133.0 329.5,-134.0 330.0,-135.0 330.5,-136.0 331.0,-137.0 331.5,-138.0 332.0,-139.0 332.5,-140.0 333.0,-141.0 333.5,-142.0 334.0,-143.0 334.5,-144.0 335.0,-145.0 335.5,-146.0 336.0,-147.0 336.5,-148.0 337.0,-149.0 337.5,-150.0 338.0,-151.0 338.5,-152.0 339.0,-153.0 339.5,-154.0 340.0,-155.0 340.5,-156.0 341.0,-157.0 341.5,-158.0 342.0,-159.0 342.5,-160.0 343.0,-161.0 343.5,-162.0 344.0,-163.0 344.5,-164.0 345.0,-165.0 345.5,-166.0 346.0,-167.0 346.5,-168.0 347.0,-169.0 347.5,-170.0 348.0,-171.0 348.5,-172.0 349.0,-173.0 349.5,-174.0 350.0,-175.0 350.5,-176.0 351.0,-177.0 351.5,-178.0 352.0,-179.0 352.5,-180.0 353.0,-181.0 353.5,-182.0 354.0,-183.0 354.5,-184.0 355.0,-185.0 355.5,-186.0 356.0,-187.0 356.5,-188.0 357.0,-189.0 357.5,-190.0 358.0,-191.0 358.5,-192.0 359.0,-193.0 359.5,-194.0 360.0,-195.0 360.5,-196.0 361.0,-197.0 361.5,-198.0 362.0,-199.0 362.5,-200.0 363.0,-201.0 363.5,-201.99999999999994 364.0,-202.99999999999994 364.5,-204.0 365.0,-205.0 365.5,-206.00000000000006 366.0,-207.0 366.5,-208.0 367.0,-209.0 367.5,-209.99999999999994 368.0,-210.99999999999994 368.5,-212.0 369.0,-213.0 369.5,-214.00000000000006 370.0,-215.00000000000006 370.5,-216.0 371.0,-217.0 371.5,-218.0 372.0,-218.99999999999994 372.5,-220.0 373.0,-221.0 373.5,-222.00000000000006 374.0,-223.00000000000006 374.5,-224.0 375.0,-225.0 375.5,-226.0 376.0,-226.99999999999994 376.5,-227.99999999999994 377.0,-229.0 377.5,-230.0 378.0,-231.00000000000006 378.5,-232.0 379.0,-233.0 379.5,-234.0 380.0,-234.99999999999994 380.5,-235.99999999999994 381.0,-237.0 381.5,-238.0 382.0,-239.00000000000006 382.5,-240.00000000000006 383.0,-241.0 383.5,-242.0 384.0,-243.0 384.5,-243.99999999999994 385.0,-245.0 385.5,-246.0 386.0,-247.00000000000006 386.5,-248.00000000000006 387.0,-249.0 387.5,-250.0 388.0,-251.0 388.5,-251.99999999999994 389.0,-252.99999999999994 389.5,-254.0 390.0,-255.0 390.5,-256.00000000000006 391.0,-257.0 391.5,-258.0 392.0,-259.0 392.5,-259.99999999999994 393.0,-260.99999999999994 393.5,-262.0 394.0,-263.0 394.5,-264.00000000000006 395.0,-265.00000000000006 395.5,-266.0 396.0,-267.0 396.5,-268.0 397.0,-268.99999999999994 397.5,-270.0 398.0,-271.0 398.5,-272.00000000000006 399.0,-273.00000000000006 399.5,-274.0 400.0,-275.0" fill="none" stroke="red" stroke-width="1.5" />
    <polyline points="0,-150.0 0.5,-149.5 1.0,-149.0 1.5,-148.50000000000006 2.0,-148.0 2.5,-147.5 3.0,-147.0 3.5,-146.5 4.0,-146.0 4.5,-145.5 5.0,-145.0 5.5,-144.5 6.0,-144.0 6.5,-143.5 7.0,-143.0 7.5,-142.5 8.0,-142.0 8.5,-141.5 9.0,-141.0 9.5,-140.5 10.0,-140.0 10.5,-139.5 11.0,-138.99999999999994 11.5,-138.5 12.0,-138.0 12.5,-137.5 13.0,-137.0 13.5,-136.5 14.0,-136.00000000000006 14.5,-135.5 15.0,-135.0 15.5,-134.5 16.0,-134.0 16.5,-133.5 17.0,-133.0 17.5,-132.5 18.0,-132.0 18.5,-131.5 19.0,-131.0 19.5,-130.5 20.0,-130.0 20.5,-129.5 21.0,-129.0 21.5,-128.5 22.0,-128.0 22.5,-127.5 23.0,-127.0 23.5,-126.49999999999994 24.0,-126.0 24.5,-125.5 25.0,-125.0 25.5,-124.5 26.0,-124.0 26.5,-123.50000000000006 27.0,-123.0 27.5,-122.5 28.0,-122.0 28.5,-121.5 29.0,-121.0 29.5,-120.5 30.0,-120.0 30.5,-119.5 31.0,-119.0 31.5,-118.5 32.0,-118.0 32.5,-117.5 33.0,-117.0 33.5,-116.5 34.0,-116.0 34.5,-115.5 35.0,-115.0 35.5,-114.5 36.0,-113.99999999999994 36.5,-113.5 37.0,-113.0 37.5,-112.5 38.0,-112.0 38.5,-111.5 39.0,-111.00000000000006 39.5,-110.5 40.0,-110.0 40.5,-109.5 41.0,-109.0 41.5,-108.5 42.0,-108.0 42.5,-107.5 43.0,-107.0 43.5,-106.5 44.0,-106.0 44.5,-105.5 45.0,-105.0 45.5,-104.5 46.0,-104.0 46.5,-103.5 47.0,-103.0 47.5,-102.5 48.0,-102.0 48.5,-101.49999999999994 49.0,-101.0 49.5,-100.5 50.0,-100.0 50.5,-99.5 51.0,-99.0 51.5,-98.50000000000006 52.0,-98.0 52.5,-97.5 53.0,-97.0 53.5,-96.5 54.0,-96.0 54.5,-95.5 55.0,-95.0 55.5,-94.5 56.0,-94.0 56.5,-93.5 57.0,-93.0 57.5,-92.5 58.0,-92.0 58.5,-91.5 59.0,-91.0 59.5,-90.5 60.0,-90.0 60.5,-89.5 61.0,-88.99999999999994 61.5,-88.5 62.0,-88.0 62.5,-87.5 63.0,-87.0 63.5,-86.5 64.0,-86.00000000000006 64.5,-85.5 65.0,-85.0 65.5,-84.5 66.0,-84.0 66.5,-83.5 67.0,-83.0 67.5,-82.5 68.0,-82.0 68.5,-81.5 69.0,-81.0 69.5,-80.5 70.0,-80.0 70.5,-79.5 71.0,-79.0 71.5,-78.5 72.0,-78.0 72.5,-77.5 73.0,-77.0 73.5,-76.49999999999994 74.0,-76.0 74.5,-75.5 75.0,-75.0 75.5,-74.5 76.0,-74.0 76.5,-73.50000000000006 77.0,-73.0 77.5,-72.5 78.0,-72.0 78.5,-71.5 79.0,-71.0 79.5,-70.5 80.0,-70.0 80.5,-69.5 81.0,-69.0 81.5,-68.5 82.0,-68.0 82.5,-67.5 83.0,-67.0 83.5,-66.5 84.0,-66.0 84.5,-65.5 85.0,-65.0 85.5,-64.5 86.0,-63.99999999999994 86.5,-63.5 87.0,-63.0 87.5,-62.5 88.0,-62.0 88.5,-61.5 89.0,-61.00000000000006 89.5,-60.5 90.0,-60.0 90.5,-59.5 91.0,-59.0 91.5,-58.5 92.0,-58.0 92.5,-57.5 93.0,-57.0 93.5,-56.5 94.0,-56.0 94.5,-55.49999999999997 95.0,-54.99999999999997 95.5,-54.5 96.0,-54.0 96.5,-53.5 97.0,-53.00000000000003 97.5,-52.5 98.0,-52.0 98.5,-51.49999999999997 99.0,-50.99999999999997 99.5,-50.5 100.0,-50.0 100.5,-49.5 101.0,-49.00000000000003 101.5,-48.5 102.0,-48.0 102.5,-47.5 103.0,-46.99999999999997 103.5,-46.5 104.0,-46.0 104.5,-45.5 105.0,-45.00000000000003 105.5,-44.49999999999997 106.0,-44.0 106.5,-43.5 107.0,-43.00000000000003 107.5,-42.49999999999997 108.0,-42.0 108.5,-41.5 109.0,-41.0 109.5,-40.50000000000003 110.0,-40.0 110.5,-39.5 111.0,-39.0 111.5,-38.49999999999997 112.0,-38.0 112.5,-37.5 113.0,-37.0 113.5,-36.50000000000003 114.0,-36.0 114.5,-35.5 115.0,-35.0 115.5,-34.49999999999997 116.0,-34.0 116.5,-33.5 117.0,-33.0 117.5,-32.50000000000003 118.0,-31.99999999999997 118.5,-31.5 119.0,-31.0 119.5,-30.50000000000003 120.0,-29.99999999999997 120.5,-29.5 121.0,-29.0 121.5,-28.5 122.0,-28.00000000000003 122.5,-27.5 123.0,-27.0 123.5,-26.5 124.0,-25.99999999999997 124.5,-25.5 125.0,-25.0 125.5,-24.5 126.0,-24.00000000000003 126.5,-23.5 127.0,-23.0 127.5,-22.5 128.0,-21.99999999999997 128.5,-21.5 129.0,-21.0 129.5,-20.5 130.0,-20.00000000000003 130.5,-19.49999999999997 131.0,-19.0 131.5,-18.5 132.0,-18.00000000000003 132.5,-17.49999999999997 133.0,-17.0 133.5,-16.5 134.0,-16.0 134.5,-15.500000000000028 135.0,-15.0 135.5,-14.5 136.0,-14.0 136.5,-13.499999999999972 137.0,-13.0 137.5,-12.5 138.0,-12.0 138.5,-11.500000000000028 139.0,-11.0 139.5,-10.5 140.0,-10.0 140.5,-9.499999999999972 141.0,-9.0 141.5,-8.5 142.0,-8.0 142.5,-7.500000000000028 143.0,-6.999999999999972 143.5,-6.5 144.0,-6.0 144.5,-5.500000000000028 145.0,-4.999999999999972 145.5,-4.5 146.0,-4.0 146.5,-3.5 147.0,-3.0000000000000284 147.5,-2.5 148.0,-2.0 148.5,-1.5 149.0,-0.9999999999999716 149.5,-0.5 150.0,0.0 150.5,0.5 151.0,1.0 151.5,1.5 152.0,2.0 152.5,2.5 153.0,3.0 153.5,3.5 154.0,4.0 154.5,4.5 155.0,5.0 155.5,5.5 156.0,6.0 156.5,6.5 157.0,7.0 157.5,7.5 158.0,8.0 158.5,8.5 159.0,9.0 159.5,9.5 160.0,10.0 160.5,10.5 161.0,11.0 161.5,11.5 162.0,12.0 162.5,12.5 163.0,13.0 163.5,13.5 164.0,14.0 164.5,14.5 165.0,15.0 165.5,15.5 166.0,16.0 166.5,16.5 167.0,17.0 167.5,17.5 168.0,18.0 168.5,18.5 169.0,19.0 169.5,19.5 170.0,20.0 170.5,20.5 171.0,21.0 171.5,21.5 172.0,22.0 172.5,22.5 173.0,23.0 173.5,23.5 174.0,24.0 174.5,24.5 175.0,25.0 175.5,25.5 176.0,26.0 176.5,26.5 177.0,27.0 177.5,27.5 178.0,28.0 178.5,28.5 179.0,29.0 179.5,29.5 180.0,30.0 180.5,30.5 181.0,31.0 181.5,31.5 182.0,32.0 182.5,32.5 183.0,33.0 183.5,33.5 184.0,34.0 184.5,34.5 185.0,35.0 185.5,35.5 186.0,36.0 186.5,36.5 187.0,37.0 187.5,37.5 188.0,38.0 188.5,38.5 189.0,39.0 189.5,39.5 190.0,40.0 190.5,40.5 191.0,41.0 191.5,41.5 192.0,42.0 192.5,42.5 193.0,43.0 193.5,43.5 194.0,44.0 194.5,44.5 195.0,45.0 195.5,45.5 196.0,46.0 196.5,46.5 197.0,47.0 197.5,47.5 198.0,48.0 198.5,48.5 199.0,49.0 199.5,49.5 200.0,50.0 200.5,50.5 201.0,51.0 201.5,51.5 202.0,52.0 202.5,52.5 203.0,53.0 203.5,53.5 204.0,54.0 204.5,54.5 205.0,55.0 205.5,55.5 206.0,56.0 206.5,56.5 207.0,57.0 207.5,57.5 208.0,58.0 208.5,58.5 209.0,59.0 209.5,59.5 210.0,60.0 210.5,60.5 211.0,61.0 211.5,61.5 212.0,62.0 212.5,62.5 213.0,63.0 213.5,63.5 214.0,64.0 214.5,64.5 215.0,65.0 215.5,65.5 216.0,66.0 216.5,66.5 217.0,67.0 217.5,67.5 218.0,68.0 218.5,68.5 219.0,69.0 219.5,69.5 220.0,70.0 220.5,70.5 221.0,71.0 221.5,71.5 222.0,72.0 222.5,72.50000000000001 223.0,73.0 223.5,73.49999999999999 224.0,74.0 224.5,74.50000000000001 225.0,75.0 225.5,75.49999999999999 226.0,76.0 226.5,76.50000000000001 227.0,77.0 227.5,77.49999999999999 228.0,78.0 228.5,78.49999999999999 229.0,79.0 229.5,79.5 230.0,80.0 230.5,80.5 231.0,81.0 231.5,81.5 232.0,82.0 232.5,82.5 233.0,83.0 233.5,83.5 234.0,84.00000000000001 234.5,84.5 235.0,85.00000000000001 235.5,85.5 236.0,85.99999999999999 236.5,86.5 237.0,87.00000000000001 237.5,87.5 238.0,87.99999999999999 238.5,88.5 239.0,89.00000000000001 239.5,89.5 240.0,89.99999999999999 240.5,90.5 241.0,90.99999999999999 241.5,91.5 242.0,92.0 242.5,92.5 243.0,93.0 243.5,93.5 244.0,94.0 244.5,94.5 245.0,95.0 245.5,95.5 246.0,96.0 246.5,96.50000000000001 247.0,97.0 247.5,97.50000000000001 248.0,98.0 248.5,98.49999999999999 249.0,99.0 249.5,99.50000000000001 250.0,100.0 250.5,100.5 251.0,101.0 251.5,101.5 252.0,102.0 252.5,102.5 253.0,103.0 253.5,103.5 254.0,104.0 254.5,104.5 255.0,105.0 255.5,105.5 256.0,106.0 256.5,106.5 257.0,107.0 257.5,107.5 258.0,108.0 258.5,108.5 259.0,109.0 259.5,109.5 260.0,110.0 260.5,110.5 261.0,111.0 261.5,111.5 262.0,112.0 262.5,112.5 263.0,113.0 263.5,113.5 264.0,114.0 264.5,114.5 265.0,115.0 265.5,115.5 266.0,116.0 266.5,116.5 267.0,117.0 267.5,117.5 268.0,118.0 268.5,118.5 269.0,119.0 269.5,119.5 270.0,120.0 270.5,120.5 271.0,121.0 271.5,121.5 272.0,122.0 272.5,122.5 273.0,123.0 273.5,123.5 274.0,124.0 274.5,124.5 275.0,125.0 275.5,125.5 276.0,126.0 276.5,126.5 277.0,127.0 277.5,127.5 278.0,128.0 278.5,128.5 279.0,129.0 279.5,129.5 280.0,130.0 280.5,130.5 281.0,131.0 281.5,131.5 282.0,132.0 282.5,132.5 283.0,133.0 283.5,133.5 284.0,134.0 284.5,134.5 285.0,135.0 285.5,135.5 286.0,136.0 286.5,136.5 287.0,137.0 287.5,137.5 288.0,138.0 288.5,138.5 289.0,139.0 289.5,139.5 290.0,140.0 290.5,140.5 291.0,141.0 291.5,141.5 292.0,142.0 292.5,142.5 293.0,143.0 293.5,143.5 294.0,144.0 294.5,144.5 295.0,145.0 295.5,145.5 296.0,146.0 296.5,146.5 297.0,147.0 297.5,147.5 298.0,148.0 298.5,148.5 299.0,149.0 299.5,149.5 300.0,150.0 300.5,150.5 301.0,151.0 301.5,151.5 302.0,152.0 302.5,152.5 303.0,153.0 303.5,153.5 304.0,154.0 304.5,154.5 305.0,155.0 305.5,155.5 306.0,156.0 306.5,156.5 307.0,157.0 307.5,157.5 308.0,158.0 308.5,158.5 309.0,159.0 309.5,159.5 310.0,160.0 310.5,160.5 311.0,161.0 311.5,161.5 312.0,162.0 312.5,162.5 313.0,163.0 313.5,163.5 314.0,164.0 314.5,164.5 315.0,165.0 315.5,165.5 316.0,166.0 316.5,166.5 317.0,167.0 317.5,167.5 318.0,168.0 318.5,168.5 319.0,169.0 319.5,169.5 320.0,170.0 320.5,170.5 321.0,171.0 321.5,171.5 322.0,172.0 322.5,172.5 323.0,173.0 323.5,173.5 324.0,174.0 324.5,174.5 325.0,175.0 325.5,175.5 326.0,176.0 326.5,176.5 327.0,177.0 327.5,177.5 328.0,178.0 328.5,178.5 329.0,179.0 329.5,179.5 330.0,180.0 330.5,180.5 331.0,181.0 331.5,181.5 332.0,182.0 332.5,182.5 333.0,183.0 333.5,183.5 334.0,184.0 334.5,184.5 335.0,185.0 335.5,185.5 336.0,186.0 336.5,186.5 337.0,187.0 337.5,187.5 338.0,188.0 338.5,188.5 339.0,189.0 339.5,189.5 340.0,190.0 340.5,190.5 341.0,191.0 341.5,191.5 342.0,192.0 342.5,192.5 343.0,193.0 343.5,193.5 344.0,194.0 344.5,194.5 345.0,195.0 345.5,195.5 346.0,196.0 346.5,196.5 347.0,197.0 347.5,197.5 348.0,198.0 348.5,198.5 349.0,199.0 349.5,199.5 350.0,200.0 350.5,200.5 351.0,201.0 351.5,201.5 352.0,202.0 352.5,202.5 353.0,203.0 353.5,203.5 354.0,204.0 354.5,204.5 355.0,205.0 355.5,205.5 356.0,206.0 356.5,206.5 357.0,207.0 357.5,207.5 358.0,208.0 358.5,208.5 359.0,209.0 359.5,209.5 360.0,210.0 360.5,210.5 361.0,211.0 361.5,211.5 362.0,212.0 362.5,212.5 363.0,213.0 363.5,213.5 364.0,214.0 364.5,214.5 365.0,215.0 365.5,215.5 366.0,216.0 366.5,216.5 367.0,217.0 367.5,217.5 368.0,218.0 368.5,218.5 369.0,219.0 369.5,219.5 370.0,220.0 370.5,220.5 371.0,221.0 371.5,221.5 372.0,222.0 372.5,222.5 373.0,223.0 373.5,223.5 374.0,224.0 374.5,224.5 375.0,225.0 375.5,225.5 376.0,226.0 376.5,226.5 377.0,227.0 377.5,227.5 378.0,228.0 378.5,228.5 379.0,229.0 379.5,229.5 380.0,230.0 380.5,230.5 381.0,231.0 381.5,231.5 382.0,232.0 382.5,232.5 383.0,233.0 383.5,233.5 384.0,234.0 384.5,234.5 385.0,235.0 385.5,235.5 386.0,236.0 386.5,236.5 387.0,237.0 387.5,237.5 388.0,238.0 388.5,238.5 389.0,239.0 389.5,239.5 390.0,240.0 390.5,240.5 391.0,241.0 391.5,241.5 392.0,242.0 392.5,242.5 393.0,243.0 393.5,243.5 394.0,244.0 394.5,244.5 395.0,245.0 395.5,245.5 396.0,246.0 396.5,246.5 397.0,247.0 397.5,247.5 398.0,248.0 398.5,248.5 399.0,249.0 399.5,249.5 400.0,250.0" fill="none" stroke="blue" stroke-width="1.5" />
    <circle cx="225.0" cy="75.0" r="4" fill="black" /><text x="227.0" y="73.0" font-size="14" fill="black">Schnittpunkt: (1/5)</text>
    <text x="50.0" y="89.0" font-size="14" fill="red">y=2x+3</text>
    <text x="50.0" y="164.0" font-size="14" fill="blue">y=-x+6</text>
</svg>