<svg width="400" height="400" xmlns="http://www.w3.org/2000/svg" style="background:white;">
    <line x1="0" y1="200.0" x2="400" y2="200.0" stroke="black" stroke-width="1.0" />
    <line x1="200.0" y1="0" x2="200.0" y2="400" stroke="black" stroke-width="1.0" />
    <line x1="0.0" y1="0" x2="0.0" y2="400" stroke="#eee" stroke-width="0.5" />
    <line x1="25.0" y1="0" x2="25.0" y2="400" stroke="#eee" stroke-width="0.5" />
    <line x1="50.0" y1="0" x2="50.0" y2="400" stroke="#eee" stroke-width="0.5" />
    <line x1="75.0" y1="0" x2="75.0" y2="400" stroke="#eee" stroke-width="0.5" />
    <line x1="100.0" y1="0" x2="100.0" y2="400" stroke="#eee" stroke-width="0.5" />
    <line x1="125.0" y1="0" x2="125.0" y2="400" stroke="#eee" stroke-width="0.5" />
    <line x1="150.0" y1="0" x2="150.0" y2="400" stroke="#eee" stroke-width="0.5" />
    <line x1="175.0" y1="0" x2="175.0" y2="400" stroke="#eee" stroke-width="0.5" />
    <line x1="200.0" y1="0" x2="200.0" y2="400" stroke="#eee" stroke-width="0.5" />
    <line x1="225.0" y1="0" x2="225.0" y2="400" stroke="#eee" stroke-width="0.5" />
    <line x1="250.0" y1="0" x2="250.0" y2="400" stroke="#eee" stroke-width="0.5" />
    <line x1="275.0" y1="0" x2="275.0" y2="400" stroke="#eee" stroke-width="0.5" />
    <line x1="300.0" y1="0" x2="300.0" y2="400" stroke="#eee" stroke-width="0.5" />
    <line x1="325.0" y1="0" x2="325.0" y2="400" stroke="#eee" stroke-width="0.5" />
    <line x1="350.0" y1="0" x2="350.0" y2="400" stroke="#eee" stroke-width="0.5" />
    <line x1="375.0" y1="0" x2="375.0" y2="400" stroke="#eee" stroke-width="0.5" />
    <line x1="400.0" y1="0" x2="400.0" y2="400" stroke="#eee" stroke-width="0.5" />
    <line x1="0" y1="400.0" x2="400" y2="400.0" stroke="#eee" stroke-width="0.5" />
    <line x1="0" y1="375.0" x2="400" y2="375.0" stroke="#eee" stroke-width="0.5" />
    <line x1="0" y1="350.0" x2="400" y2="350.0" stroke="#eee" stroke-width="0.5" />
    <line x1="0" y1="325.0" x2="400" y2="325.0" stroke="#eee" stroke-width="0.5" />
    <line x1="0" y1="300.0" x2="400" y2="300.0" stroke="#eee" stroke-width="0.5" />
    <line x1="0" y1="275.0" x2="400" y2="275.0" stroke="#eee" stroke-width="0.5" />
    <line x1="0" y1="250.0" x2="400" y2="250.0" stroke="#eee" stroke-width="0.5" />
    <line x1="0" y1="225.0" x2="400" y2="225.0" stroke="#eee" stroke-width="0.5" />
    <line x1="0" y1="200.0" x2="400" y2="200.0" stroke="#eee" stroke-width="0.5" />
    <line x1="0" y1="175.0" x2="400" y2="175.0" stroke="#eee" stroke-width="0.5" />
    <line x1="0" y1="150.0" x2="400" y2="150.0" stroke="#eee" stroke-width="0.5" />
    <line x1="0" y1="125.0" x2="400" y2="125.0" stroke="#eee" stroke-width="0.5" />
    <line x1="0" y1="100.0" x2="400" y2="100.0" stroke="#eee" stroke-width="0.5" />
    <line x1="0" y1="75.0" x2="400" y2="75.0" stroke="#eee" stroke-width="0.5" />
    <line x1="0" y1="50.0" x2="400" y2="50.0" stroke="#eee" stroke-width="0.5" />
    <line x1="0" y1="25.0" x2="400" y2="25.0" stroke="#eee" stroke-width="0.5" />
    <line x1="0" y1="0.0" x2="400" y2="0.0" stroke="#eee" stroke-width="0.5" />
    <line x1="0.0" y1="197.0" x2="0.0" y2="203.0" stroke="black" stroke-width="0.5" />
    <text x="-1.25" y="208.0" font-size="8" fill="black">-8</text>
    <line x1="25.0" y1="197.0" x2="25.0" y2="203.0" stroke="black" stroke-width="0.5" />
    <text x="23.75" y="208.0" font-size="8" fill="black">-7</text>
    <line x1="50.0" y1="197.0" x2="50.0" y2="203.0" stroke="black" stroke-width="0.5" />
    <text x="48.75" y="208.0" font-size="8" fill="black">-6</text>
    <line x1="75.0" y1="197.0" x2="75.0" y2="203.0" stroke="black" stroke-width="0.5" />
    <text x="73.75" y="208.0" font-size="8" fill="black">-5</text>
    <line x1="100.0" y1="197.0" x2="100.0" y2="203.0" stroke="black" stroke-width="0.5" />
    <text x="98.75" y="208.0" font-size="8" fill="black">-4</text>
    <line x1="125.0" y1="197.0" x2="125.0" y2="203.0" stroke="black" stroke-width="0.5" />
    <text x="123.75" y="208.0" font-size="8" fill="black">-3</text>
    <line x1="150.0" y1="197.0" x2="150.0" y2="203.0" stroke="black" stroke-width="0.5" />
    <text x="148.75" y="208.0" font-size="8" fill="black">-2</text>
    <line x1="175.0" y1="197.0" x2="175.0" y2="203.0" stroke="black" stroke-width="0.5" />
    <text x="173.75" y="208.0" font-size="8" fill="black">-1</text>
    <line x1="200.0" y1="197.0" x2="200.0" y2="203.0" stroke="black" stroke-width="0.5" />
    <text x="198.75" y="208.0" font-size="8" fill="black">0</text>
    <line x1="225.0" y1="197.0" x2="225.0" y2="203.0" stroke="black" stroke-width="0.5" />
    <text x="223.75" y="208.0" font-size="8" fill="black">1</text>
    <line x1="250.0" y1="197.0" x2="250.0" y2="203.0" stroke="black" stroke-width="0.5" />
    <text x="248.75" y="208.0" font-size="8" fill="black">2</text>
    <line x1="275.0" y1="197.0" x2="275.0" y2="203.0" stroke="black" stroke-width="0.5" />
    <text x="273.75" y="208.0" font-size="8" fill="black">3</text>
    <line x1="300.0" y1="197.0" x2="300.0" y2="203.0" stroke="black" stroke-width="0.5" />
    <text x="298.75" y="208.0" font-size="8" fill="black">4</text>
    <line x1="325.0" y1="197.0" x2="325.0" y2="203.0" stroke="black" stroke-width="0.5" />
    <text x="323.75" y="208.0" font-size="8" fill="black">5</text>
    <line x1="350.0" y1="197.0" x2="350.0" y2="203.0" stroke="black" stroke-width="0.5" />
    <text x="348.75" y="208.0" font-size="8" fill="black">6</text>
    <line x1="375.0" y1="197.0" x2="375.0" y2="203.0" stroke="black" stroke-width="0.5" />
    <text x="373.75" y="208.0" font-size="8" fill="black">7</text>
    <line x1="400.0" y1="197.0" x2="400.0" y2="203.0" stroke="black" stroke-width="0.5" />
    <text x="398.75" y="208.0" font-size="8" fill="black">8</text>
    <line x1="197.0" y1="400.0" x2="203.0" y2="400.0" stroke="black" stroke-width="0.5" />
    <text x="192.0" y="401.25" font-size="8" fill="black">-8</text>
    <line x1="197.0" y1="375.0" x2="203.0" y2="375.0" stroke="black" stroke-width="0.5" />
    <text x="192.0" y="376.25" font-size="8" fill="black">-7</text>
    <line x1="197.0" y1="350.0" x2="203.0" y2="350.0" stroke="black" stroke-width="0.5" />
    <text x="192.0" y="351.25" font-size="8" fill="black">-6</text>
    <line x1="197.0" y1="325.0" x2="203.0" y2="325.0" stroke="black" stroke-width="0.5" />
    <text x="192.0" y="326.25" font-size="8" fill="black">-5</text>
    <line x1="197.0" y1="300.0" x2="203.0" y2="300.0" stroke="black" stroke-width="0.5" />
    <text x="192.0" y="301.25" font-size="8" fill="black">-4</text>
    <line x1="197.0" y1="275.0" x2="203.0" y2="275.0" stroke="black" stroke-width="0.5" />
    <text x="192.0" y="276.25" font-size="8" fill="black">-3</text>
    <line x1="197.0" y1="250.0" x2="203.0" y2="250.0" stroke="black" stroke-width="0.5" />
    <text x="192.0" y="251.25" font-size="8" fill="black">-2</text>
    <line x1="197.0" y1="225.0" x2="203.0" y2="225.0" stroke="black" stroke-width="0.5" />
    <text x="192.0" y="226.25" font-size="8" fill="black">-1</text>
    <line x1="197.0" y1="200.0" x2="203.0" y2="200.0" stroke="black" stroke-width="0.5" />
    <text x="192.0" y="201.25" font-size="8" fill="black">0</text>
    <line x1="197.0" y1="175.0" x2="203.0" y2="175.0" stroke="black" stroke-width="0.5" />
    <text x="192.0" y="176.25" font-size="8" fill="black">1</text>
    <line x1="197.0" y1="150.0" x2="203.0" y2="150.0" stroke="black" stroke-width="0.5" />
    <text x="192.0" y="151.25" font-size="8" fill="black">2</text>
    <line x1="197.0" y1="125.0" x2="203.0" y2="125.0" stroke="black" stroke-width="0.5" />
    <text x="192.0" y="126.25" font-size="8" fill="black">3</text>
    <line x1="197.0" y1="100.0" x2="203.0" y2="100.0" stroke="black" stroke-width="0.5" />
    <text x="192.0" y="101.25" font-size="8" fill="black">4</text>
    <line x1="197.0" y1="75.0" x2="203.0" y2="75.0" stroke="black" stroke-width="0.5" />
    <text x="192.0" y="76.25" font-size="8" fill="black">5</text>
    <line x1="197.0" y1="50.0" x2="203.0" y2="50.0" stroke="black" stroke-width="0.5" />
    <text x="192.0" y="51.25" font-size="8" fill="black">6</text>
    <line x1="197.0" y1="25.0" x2="203.0" y2="25.0" stroke="black" stroke-width="0.5" />
    <text x="192.0" y="26.25" font-size="8" fill="black">7</text>
    <line x1="197.0" y1="0.0" x2="203.0" y2="0.0" stroke="black" stroke-width="0.5" />
    <text x="192.0" y="1.25" font-size="8" fill="black">8</text>
    <polyline points="0,-50.0 0.5,-49.5 1.0,-49.00000000000003 1.5,-48.50000000000003 2.0,-48.0 2.5,-47.5 3.0,-46.99999999999997 3.5,-46.5 4.0,-46.0 4.5,-45.5 5.0,-45.00000000000003 5.5,-44.50000000000003 6.0,-44.0 6.5,-43.5 7.0,-42.99999999999997 7.5,-42.49999999999997 8.0,-42.0 8.5,-41.5 9.0,-41.0 9.5,-40.50000000000003 10.0,-40.0 10.5,-39.5 11.0,-38.99999999999997 11.5,-38.49999999999997 12.0,-38.0 12.5,-37.5 13.0,-37.0 13.5,-36.50000000000003 14.0,-36.00000000000003 14.5,-35.5 15.0,-35.0 15.5,-34.49999999999997 16.0,-34.0 16.5,-33.5 17.0,-33.0 17.5,-32.50000000000003 18.0,-32.00000000000003 18.5,-31.5 19.0,-31.0 19.5,-30.49999999999997 20.0,-29.99999999999997 20.5,-29.5 21.0,-29.0 21.5,-28.5 22.0,-28.00000000000003 22.5,-27.5 23.0,-27.0 23.5,-26.49999999999997 24.0,-25.99999999999997 24.5,-25.5 25.0,-25.0 25.5,-24.5 26.0,-24.00000000000003 26.5,-23.50000000000003 27.0,-23.0 27.5,-22.5 28.0,-21.99999999999997 28.5,-21.5 29.0,-21.0 29.5,-20.5 30.0,-20.00000000000003 30.5,-19.50000000000003 31.0,-19.0 31.5,-18.5 32.0,-17.99999999999997 32.5,-17.49999999999997 33.0,-17.0 33.5,-16.5 34.0,-16.0 34.5,-15.500000000000028 35.0,-15.0 35.5,-14.5 36.0,-13.999999999999972 36.5,-13.499999999999972 37.0,-13.0 37.5,-12.5 38.0,-12.0 38.5,-11.500000000000028 39.0,-11.000000000000028 39.5,-10.5 40.0,-10.0 40.5,-9.499999999999972 41.0,-9.0 41.5,-8.5 42.0,-8.0 42.5,-7.500000000000028 43.0,-7.000000000000028 43.5,-6.5 44.0,-6.0 44.5,-5.499999999999972 45.0,-4.999999999999972 45.5,-4.5 46.0,-4.0 46.5,-3.5 47.0,-3.0000000000000284 47.5,-2.5 48.0,-2.0 48.5,-1.4999999999999716 49.0,-0.9999999999999716 49.5,-0.5 50.0,0.0 50.5,0.5 51.0,1.0 51.5,1.5 52.0,2.0 52.5,2.5 53.0,3.0 53.5,3.5 54.0,4.0 54.5,4.5 55.0,5.0 55.5,5.5 56.0,6.0 56.5,6.5 57.0,7.0 57.5,7.5 58.0,8.0 58.5,8.5 59.0,9.0 59.5,9.5 60.0,10.0 60.5,10.5 61.0,11.0 61.5,11.5 62.0,12.0 62.5,12.5 63.0,13.0 63.5,13.5 64.0,14.0 64.5,14.5 65.0,15.0 65.5,15.5 66.0,16.0 66.5,16.5 67.0,17.0 67.5,17.5 68.0,18.0 68.5,18.5 69.0,19.0 69.5,19.5 70.0,20.0 70.5,20.5 71.0,21.0 71.5,21.5 72.0,22.0 72.5,22.5 73.0,23.0 73.5,23.5 74.0,24.0 74.5,24.5 75.0,25.0 75.5,25.5 76.0,26.0 76.5,26.5 77.0,27.0 77.5,27.5 78.0,28.0 78.5,28.5 79.0,29.0 79.5,29.5 80.0,30.0 80.5,30.5 81.0,31.0 81.5,31.5 82.0,32.0 82.5,32.5 83.0,33.0 83.5,33.5 84.0,34.0 84.5,34.5 85.0,35.0 85.5,35.5 86.0,36.0 86.5,36.5 87.0,37.0 87.5,37.5 88.0,38.0 88.5,38.5 89.0,39.0 89.5,39.5 90.0,40.0 90.5,40.5 91.0,41.0 91.5,41.5 92.0,42.0 92.5,42.5 93.0,43.0 93.5,43.5 94.0,44.0 94.5,44.5 95.0,45.0 95.5,45.5 96.0,46.0 96.5,46.5 97.0,47.0 97.5,47.5 98.0,48.0 98.5,48.5 99.0,49.0 99.5,49.5 100.0,50.0 100.5,50.5 101.0,51.0 101.5,51.5 102.0,52.0 102.5,52.5 103.0,53.0 103.5,53.5 104.0,54.0 104.5,54.5 105.0,55.0 105.5,55.50000000000003 106.0,56.0 106.5,56.5 107.0,56.99999999999997 107.5,57.5 108.0,58.0 108.5,58.5 109.0,59.0 109.5,59.5 110.0,60.0 110.5,60.5 111.0,61.0 111.5,61.5 112.0,62.0 112.5,62.5 113.0,63.0 113.5,63.5 114.0,64.0 114.5,64.5 115.0,65.0 115.5,65.5 116.0,66.0 116.5,66.5 117.0,67.0 117.5,67.5 118.0,68.00000000000003 118.5,68.5 119.0,69.0 119.5,69.49999999999997 120.0,70.0 120.5,70.5 121.0,71.0 121.5,71.5 122.0,72.0 122.5,72.50000000000001 123.0,73.0 123.5,73.49999999999999 124.0,74.0 124.5,74.50000000000001 125.0,75.0 125.5,75.49999999999999 126.0,76.0 126.5,76.50000000000001 127.0,77.0 127.5,77.49999999999999 128.0,78.0 128.5,78.50000000000001 129.0,79.0 129.5,79.5 130.0,80.0 130.5,80.50000000000001 131.0,81.0 131.5,81.5 132.0,81.99999999999999 132.5,82.5 133.0,83.0 133.5,83.5 134.0,83.99999999999999 134.5,84.5 135.0,85.00000000000001 135.5,85.5 136.0,85.99999999999999 136.5,86.5 137.0,87.00000000000001 137.5,87.5 138.0,87.99999999999999 138.5,88.5 139.0,89.00000000000001 139.5,89.5 140.0,89.99999999999999 140.5,90.5 141.0,91.00000000000001 141.5,91.5 142.0,92.0 142.5,92.5 143.0,93.00000000000001 143.5,93.5 144.0,94.0 144.5,94.49999999999999 145.0,95.0 145.5,95.5 146.0,96.0 146.5,96.49999999999999 147.0,97.0 147.5,97.50000000000001 148.0,98.0 148.5,98.49999999999999 149.0,99.0 149.5,99.50000000000001 150.0,100.0 150.5,100.5 151.0,101.0 151.5,101.5 152.0,102.0 152.5,102.5 153.0,103.0 153.5,103.49999999999999 154.0,104.0 154.5,104.5 155.0,105.0 155.5,105.5 156.0,106.0 156.5,106.5 157.0,107.0 157.5,107.5 158.0,108.0 158.5,108.5 159.0,109.00000000000001 159.5,109.5 160.0,110.0 160.5,110.5 161.0,111.0 161.5,111.5 162.0,112.0 162.5,112.5 163.0,113.0 163.5,113.5 164.0,114.0 164.5,114.5 165.0,115.0 165.5,115.5 166.0,115.99999999999999 166.5,116.5 167.0,117.0 167.5,117.5 168.0,118.0 168.5,118.5 169.0,119.0 169.5,119.5 170.0,120.0 170.5,120.5 171.0,121.0 171.5,121.50000000000001 172.0,122.0 172.5,122.5 173.0,123.0 173.5,123.5 174.0,124.0 174.5,124.5 175.0,125.0 175.5,125.5 176.0,126.0 176.5,126.5 177.0,127.0 177.5,127.5 178.0,128.0 178.5,128.5 179.0,129.0 179.5,129.5 180.0,130.0 180.5,130.5 181.0,131.0 181.5,131.5 182.0,132.0 182.5,132.5 183.0,133.0 183.5,133.5 184.0,134.0 184.5,134.5 185.0,135.0 185.5,135.5 186.0,136.0 186.5,136.5 187.0,137.0 187.5,137.5 188.0,138.0 188.5,138.5 189.0,139.0 189.5,139.5 190.0,140.0 190.5,140.5 191.0,141.0 191.5,141.5 192.0,142.0 192.5,142.5 193.0,143.0 193.5,143.5 194.0,144.0 194.5,144.5 195.0,145.0 195.5,145.5 196.0,146.0 196.5,146.5 197.0,147.0 197.5,147.5 198.0,148.0 198.5,148.5 199.0,149.0 199.5,149.5 200.0,150.0 200.5,150.5 201.0,151.0 201.5,151.5 202.0,152.0 202.5,152.5 203.0,153.0 203.5,153.5 204.0,154.0 204.5,154.5 205.0,155.0 205.5,155.5 206.0,156.0 206.5,156.5 207.0,157.0 207.5,157.5 208.0,158.0 208.5,158.5 209.0,159.0 209.5,159.5 210.0,160.0 210.5,160.5 211.0,161.0 211.5,161.5 212.0,162.0 212.5,162.5 213.0,163.0 213.5,163.5 214.0,164.0 214.5,164.5 215.0,165.0 215.5,165.5 216.0,166.0 216.5,166.5 217.0,167.0 217.5,167.5 218.0,168.0 218.5,168.5 219.0,169.0 219.5,169.5 220.0,170.0 220.5,170.5 221.0,171.0 221.5,171.5 222.0,172.0 222.5,172.5 223.0,173.0 223.5,173.5 224.0,174.0 224.5,174.5 225.0,175.0 225.5,175.5 226.0,176.0 226.5,176.5 227.0,177.0 227.5,177.5 228.0,178.0 228.5,178.5 229.0,179.0 229.5,179.5 230.0,180.0 230.5,180.5 231.0,181.0 231.5,181.5 232.0,182.0 232.5,182.5 233.0,183.0 233.5,183.5 234.0,184.0 234.5,184.5 235.0,185.0 235.5,185.5 236.0,186.0 236.5,186.5 237.0,187.0 237.5,187.5 238.0,188.0 238.5,188.5 239.0,189.0 239.5,189.5 240.0,190.0 240.5,190.5 241.0,191.0 241.5,191.5 242.0,192.0 242.5,192.5 243.0,193.0 243.5,193.5 244.0,194.0 244.5,194.5 245.0,195.0 245.5,195.5 246.0,196.0 246.5,196.5 247.0,197.0 247.5,197.5 248.0,198.0 248.5,198.5 249.0,199.0 249.5,199.5 250.0,200.0 250.5,200.5 251.0,201.0 251.5,201.5 252.0,202.0 252.5,202.5 253.0,203.0 253.5,203.5 254.0,204.0 254.5,204.5 255.0,205.0 255.5,205.5 256.0,206.0 256.5,206.5 257.0,207.0 257.5,207.5 258.0,208.0 258.5,208.5 259.0,209.0 259.5,209.5 260.0,210.0 260.5,210.5 261.0,211.0 261.5,211.5 262.0,212.0 262.5,212.5 263.0,213.0 263.5,213.5 264.0,214.0 264.5,214.5 265.0,215.0 265.5,215.5 266.0,216.0 266.5,216.5 267.0,217.0 267.5,217.5 268.0,218.0 268.5,218.5 269.0,219.0 269.5,219.5 270.0,220.0 270.5,220.5 271.0,221.0 271.5,221.5 272.0,222.0 272.5,222.5 273.0,223.0 273.5,223.5 274.0,224.0 274.5,224.5 275.0,225.0 275.5,225.5 276.0,226.0 276.5,226.5 277.0,227.0 277.5,227.5 278.0,228.0 278.5,228.5 279.0,229.0 279.5,229.5 280.0,230.0 280.5,230.5 281.0,231.0 281.5,231.5 282.0,232.0 282.5,232.5 283.0,233.0 283.5,233.5 284.0,234.0 284.5,234.5 285.0,235.0 285.5,235.5 286.0,236.0 286.5,236.5 287.0,237.0 287.5,237.5 288.0,238.0 288.5,238.5 289.0,239.0 289.5,239.5 290.0,240.0 290.5,240.5 291.0,241.0 291.5,241.5 292.0,242.0 292.5,242.5 293.0,243.0 293.5,243.5 294.0,244.0 294.5,244.5 295.0,245.0 295.5,245.5 296.0,246.0 296.5,246.5 297.0,247.0 297.5,247.5 298.0,248.0 298.5,248.5 299.0,249.0 299.5,249.5 300.0,250.0 300.5,250.5 301.0,251.0 301.5,251.5 302.0,252.0 302.5,252.5 303.0,253.0 303.5,253.5 304.0,254.0 304.5,254.5 305.0,255.0 305.5,255.5 306.0,256.0 306.5,256.5 307.0,257.0 307.5,257.5 308.0,258.0 308.5,258.5 309.0,259.0 309.5,259.5 310.0,260.0 310.5,260.5 311.0,261.0 311.5,261.5 312.0,262.0 312.5,262.5 313.0,263.0 313.5,263.5 314.0,264.0 314.5,264.5 315.0,265.0 315.5,265.5 316.0,266.0 316.5,266.5 317.0,267.0 317.5,267.5 318.0,268.0 318.5,268.5 319.0,269.0 319.5,269.5 320.0,270.0 320.5,270.5 321.0,271.0 321.5,271.5 322.0,272.0 322.5,272.5 323.0,273.0 323.5,273.5 324.0,274.0 324.5,274.5 325.0,275.0 325.5,275.5 326.0,276.0 326.5,276.5 327.0,277.0 327.5,277.5 328.0,278.0 328.5,278.5 329.0,279.0 329.5,279.5 330.0,280.0 330.5,280.5 331.0,281.0 331.5,281.5 332.0,282.0 332.5,282.5 333.0,283.0 333.5,283.5 334.0,284.0 334.5,284.5 335.0,285.0 335.5,285.5 336.0,286.0 336.5,286.5 337.0,287.0 337.5,287.5 338.0,288.0 338.5,288.5 339.0,289.0 339.5,289.5 340.0,290.0 340.5,290.5 341.0,291.0 341.5,291.5 342.0,292.0 342.5,292.5 343.0,293.0 343.5,293.5 344.0,294.0 344.5,294.5 345.0,295.0 345.5,295.5 346.0,296.0 346.5,296.5 347.0,297.0 347.5,297.5 348.0,298.0 348.5,298.5 349.0,299.0 349.5,299.5 350.0,300.0 350.5,300.5 351.0,301.0 351.5,301.5 352.0,302.0 352.5,302.5 353.0,303.0 353.5,303.5 354.0,304.0 354.5,304.5 355.0,305.0 355.5,305.5 356.0,306.0 356.5,306.5 357.0,307.0 357.5,307.5 358.0,308.0 358.5,308.5 359.0,309.0 359.5,309.5 360.0,310.0 360.5,310.5 361.0,311.0 361.5,311.5 362.0,312.0 362.5,312.5 363.0,313.0 363.5,313.5 364.0,314.0 364.5,314.5 365.0,315.0 365.5,315.5 366.0,316.0 366.5,316.5 367.0,317.0 367.5,317.5 368.0,318.0 368.5,318.5 369.0,319.0 369.5,319.5 370.0,320.0 370.5,320.5 371.0,321.0 371.5,321.5 372.0,322.0 372.5,322.5 373.0,323.0 373.5,323.5 374.0,324.0 374.5,324.5 375.0,325.0 375.5,325.5 376.0,326.0 376.5,326.5 377.0,327.0 377.5,327.5 378.0,328.0 378.5,328.5 379.0,329.0 379.5,329.5 380.0,330.0 380.5,330.5 381.0,331.0 381.5,331.5 382.0,332.0 382.5,332.5 383.0,333.0 383.5,333.5 384.0,334.0 384.5,334.5 385.0,335.0 385.5,335.5 386.0,336.0 386.5,336.5 387.0,337.0 387.5,337.5 388.0,338.0 388.5,338.5 389.0,339.0 389.5,339.5 390.0,340.0 390.5,340.5 391.0,341.0 391.5,341.5 392.0,342.0 392.5,342.5 393.0,343.0 393.5,343.5 394.0,344.0 394.5,344.5 395.0,345.0 395.5,345.5 396.0,346.0 396.5,346.5 397.0,347.0 397.5,347.5 398.0,348.0 398.5,348.5 399.0,349.0 399.5,349.5 400.0,350.0" fill="none" stroke="pink" stroke-width="1.5" />
    <polyline points="0,-700.0 0.5,-698.0 1.0,-696.0000000000001 1.5,-694.0000000000001 2.0,-692.0 2.5,-690.0 3.0,-687.9999999999999 3.5,-686.0 4.0,-684.0 4.5,-682.0 5.0,-680.0000000000001 5.5,-678.0000000000001 6.0,-676.0 6.5,-674.0 7.0,-671.9999999999999 7.5,-669.9999999999999 8.0,-668.0 8.5,-666.0 9.0,-664.0 9.5,-662.0000000000001 10.0,-660.0 10.5,-658.0 11.0,-655.9999999999999 11.5,-653.9999999999999 12.0,-652.0 12.5,-650.0 13.0,-648.0 13.5,-646.0000000000001 14.0,-644.0000000000001 14.5,-642.0 15.0,-640.0 15.5,-637.9999999999999 16.0,-636.0 16.5,-634.0 17.0,-632.0 17.5,-630.0000000000001 18.0,-628.0000000000001 18.5,-626.0 19.0,-624.0 19.5,-621.9999999999999 20.0,-619.9999999999999 20.5,-618.0 21.0,-616.0 21.5,-614.0 22.0,-612.0000000000001 22.5,-610.0 23.0,-608.0 23.5,-605.9999999999999 24.0,-603.9999999999999 24.5,-602.0 25.0,-600.0 25.5,-598.0 26.0,-596.0 26.5,-594.0 27.0,-592.0 27.5,-590.0 28.0,-588.0 28.5,-586.0 29.0,-584.0 29.5,-582.0 30.0,-580.0 30.5,-578.0 31.0,-576.0 31.5,-574.0 32.0,-572.0 32.5,-570.0 33.0,-568.0 33.5,-566.0 34.0,-564.0 34.5,-562.0 35.0,-560.0 35.5,-558.0 36.0,-556.0 36.5,-554.0 37.0,-552.0 37.5,-550.0 38.0,-548.0 38.5,-546.0 39.0,-544.0 39.5,-542.0 40.0,-540.0 40.5,-538.0 41.0,-536.0 41.5,-534.0 42.0,-532.0 42.5,-530.0 43.0,-528.0 43.5,-526.0 44.0,-524.0 44.5,-522.0 45.0,-520.0 45.5,-518.0 46.0,-516.0 46.5,-514.0 47.0,-512.0 47.5,-510.0 48.0,-508.0 48.5,-506.0 49.0,-504.0 49.5,-502.0 50.0,-500.0 50.5,-498.0 51.0,-496.0 51.5,-494.0 52.0,-492.0 52.5,-490.0 53.0,-488.0 53.5,-486.0 54.0,-484.0 54.5,-482.0 55.0,-480.0 55.5,-478.0 56.0,-476.0 56.5,-474.0 57.0,-472.0 57.5,-470.0 58.0,-468.0 58.5,-466.0 59.0,-464.0 59.5,-462.0 60.0,-460.0 60.5,-458.0 61.0,-456.0 61.5,-454.0 62.0,-452.0 62.5,-450.0 63.0,-448.0 63.5,-446.0 64.0,-444.0 64.5,-442.0 65.0,-440.0 65.5,-438.0 66.0,-436.0 66.5,-434.0 67.0,-432.0 67.5,-430.0 68.0,-428.0 68.5,-426.0 69.0,-424.0 69.5,-422.0 70.0,-420.0 70.5,-418.0 71.0,-416.0 71.5,-414.0 72.0,-412.0 72.5,-410.0 73.0,-408.0 73.5,-406.0 74.0,-404.0 74.5,-402.0 75.0,-400.0 75.5,-398.0 76.0,-396.0 76.5,-394.0 77.0,-392.0 77.5,-390.0 78.0,-388.0 78.5,-386.0 79.0,-384.0 79.5,-382.0 80.0,-380.0 80.5,-378.0 81.0,-376.0 81.5,-374.0 82.0,-372.0 82.5,-370.0 83.0,-368.0 83.5,-366.0 84.0,-364.0 84.5,-362.0 85.0,-360.0 85.5,-358.0 86.0,-356.0 86.5,-354.0 87.0,-352.0 87.5,-350.0 88.0,-348.0 88.5,-346.0 89.0,-344.0 89.5,-342.0 90.0,-340.0 90.5,-338.0 91.0,-336.0 91.5,-334.0 92.0,-332.0 92.5,-330.0 93.0,-328.0 93.5,-326.0 94.0,-324.0 94.5,-322.0 95.0,-320.0 95.5,-318.0 96.0,-316.0 96.5,-314.0 97.0,-312.0 97.5,-309.99999999999994 98.0,-308.0 98.5,-305.99999999999994 99.0,-304.0 99.5,-301.99999999999994 100.0,-300.0 100.5,-298.00000000000006 101.0,-296.0 101.5,-293.99999999999994 102.0,-292.0 102.5,-290.00000000000006 103.0,-288.0 103.5,-285.99999999999994 104.0,-284.0 104.5,-282.0 105.0,-280.0 105.5,-277.99999999999994 106.0,-276.0 106.5,-274.0 107.0,-272.00000000000006 107.5,-270.0 108.0,-268.0 108.5,-266.0 109.0,-264.00000000000006 109.5,-262.0 110.0,-259.99999999999994 110.5,-258.0 111.0,-256.00000000000006 111.5,-254.0 112.0,-251.99999999999994 112.5,-250.0 113.0,-248.00000000000006 113.5,-246.0 114.0,-243.99999999999994 114.5,-242.0 115.0,-240.00000000000006 115.5,-238.0 116.0,-235.99999999999994 116.5,-234.0 117.0,-232.0 117.5,-230.0 118.0,-227.99999999999994 118.5,-226.0 119.0,-224.0 119.5,-222.00000000000006 120.0,-220.0 120.5,-218.0 121.0,-216.0 121.5,-214.00000000000006 122.0,-212.0 122.5,-209.99999999999994 123.0,-208.0 123.5,-206.00000000000006 124.0,-204.0 124.5,-201.99999999999994 125.0,-200.0 125.5,-198.0 126.0,-196.0 126.5,-194.0 127.0,-192.0 127.5,-190.0 128.0,-188.0 128.5,-186.0 129.0,-184.0 129.5,-182.0 130.0,-180.0 130.5,-178.0 131.0,-176.0 131.5,-174.0 132.0,-172.0 132.5,-170.0 133.0,-168.0 133.5,-166.0 134.0,-164.0 134.5,-162.0 135.0,-160.0 135.5,-158.0 136.0,-156.0 136.5,-154.0 137.0,-152.0 137.5,-150.0 138.0,-148.0 138.5,-146.0 139.0,-144.0 139.5,-142.0 140.0,-140.0 140.5,-138.0 141.0,-136.0 141.5,-134.0 142.0,-132.0 142.5,-130.0 143.0,-128.0 143.5,-126.0 144.0,-124.0 144.5,-122.0 145.0,-120.0 145.5,-118.0 146.0,-116.0 146.5,-114.0 147.0,-112.0 147.5,-110.0 148.0,-108.0 148.5,-106.0 149.0,-104.0 149.5,-102.0 150.0,-100.0 150.5,-98.0 151.0,-96.0 151.5,-94.0 152.0,-92.0 152.5,-90.0 153.0,-88.0 153.5,-86.00000000000006 154.0,-84.0 154.5,-82.0 155.0,-80.0 155.5,-78.0 156.0,-76.0 156.5,-74.0 157.0,-72.0 157.5,-70.0 158.0,-68.0 158.5,-66.0 159.0,-63.99999999999994 159.5,-62.0 160.0,-60.0 160.5,-58.0 161.0,-56.0 161.5,-54.0 162.0,-52.0 162.5,-50.0 163.0,-48.0 163.5,-46.0 164.0,-44.0 164.5,-42.0 165.0,-40.0 165.5,-38.0 166.0,-36.00000000000003 166.5,-34.0 167.0,-32.00000000000003 167.5,-29.99999999999997 168.0,-28.00000000000003 168.5,-25.99999999999997 169.0,-24.00000000000003 169.5,-21.99999999999997 170.0,-20.00000000000003 170.5,-17.99999999999997 171.0,-16.0 171.5,-13.999999999999972 172.0,-12.0 172.5,-10.0 173.0,-8.0 173.5,-6.0 174.0,-4.0 174.5,-2.0 175.0,0.0 175.5,2.0 176.0,4.0 176.5,6.0 177.0,8.0 177.5,10.0 178.0,12.0 178.5,14.0 179.0,16.0 179.5,18.00000000000003 180.0,20.0 180.5,22.0 181.0,24.0 181.5,26.0 182.0,28.0 182.5,30.0 183.0,31.99999999999997 183.5,34.0 184.0,36.0 184.5,38.0 185.0,40.0 185.5,42.0 186.0,44.0 186.5,46.0 187.0,48.0 187.5,50.0 188.0,52.0 188.5,54.0 189.0,56.0 189.5,58.0 190.0,60.0 190.5,62.0 191.0,64.0 191.5,66.0 192.0,68.0 192.5,70.0 193.0,72.0 193.5,74.0 194.0,76.0 194.5,78.0 195.0,80.0 195.5,82.0 196.0,84.00000000000001 196.5,85.99999999999999 197.0,87.99999999999999 197.5,89.99999999999999 198.0,92.0 198.5,94.0 199.0,96.0 199.5,98.0 200.0,100.0 200.5,102.0 201.0,104.0 201.5,106.0 202.0,108.0 202.5,110.0 203.0,112.0 203.5,114.0 204.0,116.0 204.5,118.0 205.0,120.0 205.5,122.0 206.0,124.0 206.5,126.0 207.0,128.0 207.5,130.0 208.0,132.0 208.5,134.0 209.0,136.0 209.5,138.0 210.0,140.0 210.5,142.0 211.0,144.0 211.5,146.0 212.0,148.0 212.5,150.0 213.0,152.0 213.5,154.0 214.0,156.0 214.5,158.0 215.0,160.0 215.5,162.0 216.0,164.0 216.5,166.0 217.0,168.0 217.5,170.0 218.0,172.0 218.5,174.0 219.0,176.0 219.5,178.0 220.0,180.0 220.5,182.0 221.0,184.0 221.5,186.0 222.0,188.0 222.5,190.0 223.0,192.0 223.5,194.0 224.0,196.0 224.5,198.0 225.0,200.0 225.5,202.0 226.0,204.0 226.5,206.0 227.0,208.0 227.5,210.0 228.0,212.0 228.5,214.0 229.0,216.0 229.5,218.0 230.0,220.0 230.5,222.0 231.0,224.0 231.5,226.0 232.0,228.0 232.5,230.0 233.0,232.0 233.5,234.0 234.0,236.0 234.5,238.0 235.0,240.0 235.5,242.0 236.0,244.0 236.5,246.0 237.0,248.0 237.5,250.0 238.0,252.0 238.5,254.0 239.0,256.0 239.5,258.0 240.0,260.0 240.5,262.0 241.0,264.0 241.5,266.0 242.0,268.0 242.5,270.0 243.0,272.0 243.5,274.0 244.0,276.0 244.5,278.0 245.0,280.0 245.5,282.0 246.0,284.0 246.5,286.0 247.0,288.0 247.5,290.0 248.0,292.0 248.5,294.0 249.0,296.0 249.5,298.0 250.0,300.0 250.5,302.0 251.0,304.0 251.5,306.0 252.0,308.0 252.5,310.0 253.0,312.0 253.5,314.0 254.0,316.0 254.5,318.0 255.0,320.0 255.5,322.0 256.0,324.0 256.5,326.0 257.0,328.0 257.5,330.0 258.0,332.0 258.5,334.0 259.0,336.0 259.5,338.0 260.0,340.0 260.5,342.0 261.0,344.0 261.5,346.0 262.0,348.0 262.5,350.0 263.0,352.0 263.5,354.0 264.0,356.0 264.5,358.0 265.0,360.0 265.5,362.0 266.0,364.0 266.5,366.0 267.0,368.0 267.5,370.0 268.0,372.0 268.5,374.0 269.0,376.0 269.5,378.0 270.0,380.0 270.5,382.0 271.0,384.0 271.5,386.0 272.0,388.0 272.5,390.0 273.0,392.0 273.5,394.0 274.0,396.0 274.5,398.0 275.0,400.0 275.5,402.0 276.0,404.0 276.5,406.0 277.0,408.0 277.5,410.0 278.0,412.0 278.5,414.0 279.0,416.0 279.5,418.0 280.0,420.0 280.5,422.0 281.0,424.0 281.5,426.0 282.0,428.0 282.5,430.0 283.0,432.0 283.5,434.0 284.0,436.0 284.5,438.0 285.0,440.0 285.5,442.0 286.0,444.0 286.5,446.0 287.0,448.0 287.5,450.0 288.0,452.0 288.5,454.0 289.0,456.0 289.5,458.0 290.0,460.0 290.5,462.0 291.0,464.0 291.5,466.0 292.0,468.0 292.5,470.0 293.0,472.0 293.5,474.0 294.0,476.0 294.5,478.0 295.0,480.0 295.5,482.0 296.0,484.0 296.5,486.0 297.0,488.0 297.5,490.0 298.0,492.0 298.5,494.0 299.0,496.0 299.5,498.0 300.0,500.0 300.5,501.99999999999994 301.0,504.0 301.5,505.99999999999994 302.0,508.0 302.5,509.99999999999994 303.0,512.0 303.5,514.0 304.0,516.0 304.5,518.0 305.0,520.0 305.5,522.0 306.0,524.0 306.5,526.0 307.0,528.0 307.5,530.0 308.0,532.0 308.5,534.0 309.0,536.0 309.5,538.0 310.0,540.0 310.5,542.0 311.0,544.0 311.5,546.0 312.0,548.0 312.5,550.0 313.0,552.0 313.5,554.0 314.0,556.0 314.5,558.0 315.0,560.0 315.5,562.0 316.0,564.0 316.5,566.0 317.0,568.0 317.5,570.0 318.0,572.0 318.5,574.0 319.0,576.0 319.5,578.0 320.0,580.0 320.5,582.0 321.0,584.0 321.5,586.0 322.0,588.0 322.5,590.0 323.0,592.0 323.5,594.0 324.0,596.0 324.5,598.0 325.0,600.0 325.5,602.0 326.0,604.0 326.5,606.0 327.0,608.0 327.5,610.0 328.0,612.0 328.5,614.0 329.0,616.0 329.5,618.0 330.0,620.0 330.5,622.0 331.0,624.0 331.5,626.0 332.0,628.0 332.5,630.0 333.0,632.0 333.5,634.0 334.0,636.0 334.5,638.0 335.0,640.0 335.5,642.0 336.0,644.0 336.5,646.0 337.0,648.0 337.5,650.0 338.0,652.0 338.5,654.0 339.0,656.0 339.5,658.0 340.0,660.0 340.5,662.0 341.0,664.0 341.5,666.0 342.0,668.0 342.5,670.0 343.0,672.0 343.5,674.0 344.0,676.0 344.5,678.0 345.0,680.0 345.5,682.0 346.0,684.0 346.5,686.0 347.0,688.0 347.5,690.0 348.0,692.0 348.5,694.0 349.0,696.0 349.5,698.0 350.0,700.0 350.5,702.0 351.0,704.0 351.5,706.0 352.0,708.0 352.5,710.0 353.0,712.0 353.5,714.0 354.0,716.0 354.5,718.0 355.0,720.0 355.5,722.0 356.0,724.0 356.5,726.0 357.0,728.0 357.5,730.0 358.0,732.0 358.5,734.0 359.0,736.0 359.5,738.0 360.0,740.0 360.5,742.0 361.0,744.0 361.5,746.0 362.0,748.0 362.5,750.0 363.0,752.0 363.5,754.0 364.0,756.0 364.5,758.0 365.0,760.0 365.5,762.0 366.0,764.0 366.5,766.0 367.0,768.0 367.5,770.0 368.0,772.0 368.5,774.0 369.0,776.0 369.5,778.0 370.0,780.0 370.5,782.0 371.0,784.0 371.5,786.0 372.0,788.0 372.5,790.0 373.0,792.0 373.5,794.0 374.0,796.0 374.5,798.0 375.0,800.0 375.5,802.0 376.0,804.0 376.5,806.0 377.0,808.0 377.5,810.0 378.0,812.0 378.5,814.0 379.0,816.0 379.5,818.0 380.0,820.0 380.5,822.0 381.0,824.0 381.5,826.0 382.0,828.0 382.5,830.0 383.0,832.0 383.5,834.0 384.0,836.0 384.5,838.0 385.0,840.0 385.5,842.0 386.0,844.0 386.5,846.0 387.0,848.0 387.5,850.0 388.0,852.0 388.5,854.0 389.0,856.0 389.5,858.0 390.0,860.0 390.5,862.0 391.0,864.0 391.5,866.0 392.0,868.0 392.5,870.0 393.0,872.0 393.5,874.0 394.0,876.0 394.5,878.0 395.0,880.0 395.5,882.0 396.0,884.0 396.5,886.0 397.0,888.0 397.5,890.0 398.0,892.0 398.5,894.0 399.0,896.0 399.5,898.0 400.0,900.0" fill="none" stroke="blue" stroke-width="1.5" />
    <polyline points="0,-275.0 0.5,-273.50000000000006 1.0,-272.0 1.5,-270.5 2.0,-268.99999999999994 2.5,-267.50000000000006 3.0,-266.0 3.5,-264.50000000000006 4.0,-263.0 4.5,-261.5 5.0,-259.99999999999994 5.5,-258.5 6.0,-257.0 6.5,-255.5 7.0,-254.0 7.5,-252.50000000000006 8.0,-251.0 8.5,-249.5 9.0,-247.99999999999994 9.5,-246.5 10.0,-244.99999999999994 10.5,-243.50000000000006 11.0,-242.0 11.5,-240.5 12.0,-238.99999999999994 12.5,-237.5 13.0,-236.00000000000006 13.5,-234.5 14.0,-233.0 14.5,-231.49999999999994 15.0,-230.00000000000006 15.5,-228.5 16.0,-227.00000000000006 16.5,-225.5 17.0,-224.0 17.5,-222.49999999999994 18.0,-221.0 18.5,-219.5 19.0,-218.0 19.5,-216.5 20.0,-215.00000000000006 20.5,-213.5 21.0,-212.0 21.5,-210.49999999999994 22.0,-209.0 22.5,-207.49999999999994 23.0,-206.00000000000006 23.5,-204.5 24.0,-203.0 24.5,-201.49999999999994 25.0,-200.0 25.5,-198.50000000000006 26.0,-197.0 26.5,-195.5 27.0,-193.99999999999994 27.5,-192.50000000000006 28.0,-191.0 28.5,-189.50000000000006 29.0,-188.0 29.5,-186.5 30.0,-184.99999999999994 30.5,-183.5 31.0,-182.0 31.5,-180.5 32.0,-179.0 32.5,-177.50000000000006 33.0,-176.0 33.5,-174.5 34.0,-172.99999999999994 34.5,-171.5 35.0,-169.99999999999994 35.5,-168.50000000000006 36.0,-167.0 36.5,-165.5 37.0,-163.99999999999994 37.5,-162.5 38.0,-161.00000000000006 38.5,-159.5 39.0,-158.0 39.5,-156.49999999999994 40.0,-155.00000000000006 40.5,-153.5 41.0,-152.00000000000006 41.5,-150.5 42.0,-149.0 42.5,-147.49999999999994 43.0,-146.0 43.5,-144.5 44.0,-143.0 44.5,-141.5 45.0,-140.00000000000006 45.5,-138.5 46.0,-137.0 46.5,-135.49999999999994 47.0,-134.0 47.5,-132.49999999999994 48.0,-131.00000000000006 48.5,-129.5 49.0,-128.0 49.5,-126.49999999999994 50.0,-125.0 50.5,-123.50000000000006 51.0,-122.0 51.5,-120.5 52.0,-118.99999999999994 52.5,-117.50000000000006 53.0,-116.0 53.5,-114.50000000000006 54.0,-113.0 54.5,-111.5 55.0,-109.99999999999994 55.5,-108.5 56.0,-107.0 56.5,-105.5 57.0,-104.0 57.5,-102.50000000000006 58.0,-101.0 58.5,-99.5 59.0,-97.99999999999994 59.5,-96.5 60.0,-94.99999999999994 60.5,-93.50000000000006 61.0,-92.0 61.5,-90.5 62.0,-88.99999999999994 62.5,-87.5 63.0,-86.00000000000006 63.5,-84.5 64.0,-83.0 64.5,-81.49999999999994 65.0,-80.00000000000006 65.5,-78.5 66.0,-77.00000000000006 66.5,-75.5 67.0,-74.0 67.5,-72.49999999999994 68.0,-71.0 68.5,-69.5 69.0,-68.0 69.5,-66.5 70.0,-65.00000000000006 70.5,-63.5 71.0,-62.0 71.5,-60.49999999999994 72.0,-59.0 72.5,-57.5 73.0,-56.0 73.5,-54.5 74.0,-53.00000000000003 74.5,-51.49999999999997 75.0,-50.0 75.5,-48.50000000000003 76.0,-46.99999999999997 76.5,-45.5 77.0,-44.0 77.5,-42.50000000000003 78.0,-41.0 78.5,-39.50000000000006 79.0,-38.0 79.5,-36.50000000000003 80.0,-34.99999999999997 80.5,-33.5 81.0,-31.99999999999997 81.5,-30.50000000000003 82.0,-29.0 82.5,-27.50000000000003 83.0,-25.99999999999997 83.5,-24.5 84.0,-22.999999999999943 84.5,-21.5 85.0,-19.99999999999997 85.5,-18.5 86.0,-17.0 86.5,-15.500000000000028 87.0,-13.999999999999972 87.5,-12.5 88.0,-11.000000000000028 88.5,-9.499999999999972 89.0,-8.0 89.5,-6.5 90.0,-5.000000000000028 90.5,-3.5 91.0,-2.000000000000057 91.5,-0.5 92.0,0.9999999999999716 92.5,2.5000000000000284 93.0,4.0 93.5,5.500000000000028 94.0,6.999999999999972 94.5,8.5 95.0,9.999999999999972 95.5,11.500000000000028 96.0,13.0 96.5,14.500000000000057 97.0,16.0 97.5,17.50000000000003 98.0,19.0 98.5,20.5 99.0,21.99999999999997 99.5,23.50000000000003 100.0,25.0 100.5,26.5 101.0,28.00000000000003 101.5,29.5 102.0,31.0 102.5,32.50000000000003 103.0,34.0 103.5,35.5 104.0,37.0 104.5,38.50000000000003 105.0,40.00000000000003 105.5,41.5 106.0,43.00000000000003 106.5,44.49999999999997 107.0,46.0 107.5,47.49999999999997 108.0,48.99999999999997 108.5,50.5 109.0,52.0 109.5,53.5 110.0,54.99999999999997 110.5,56.5 111.0,58.0 111.5,59.49999999999997 112.0,61.0 112.5,62.5 113.0,64.0 113.5,65.50000000000003 114.0,67.0 114.5,68.5 115.0,70.00000000000003 115.5,71.5 116.0,73.0 116.5,74.50000000000001 117.0,76.00000000000003 117.5,77.50000000000003 118.0,79.0 118.5,80.50000000000001 119.0,81.99999999999999 119.5,83.5 120.0,84.99999999999997 120.5,86.49999999999997 121.0,87.99999999999999 121.5,89.5 122.0,91.00000000000001 122.5,92.49999999999999 123.0,94.0 123.5,95.5 124.0,96.99999999999997 124.5,98.49999999999999 125.0,100.0 125.5,101.50000000000001 126.0,103.00000000000003 126.5,104.5 127.0,106.0 127.5,107.50000000000001 128.0,108.99999999999999 128.5,110.5 129.0,112.00000000000001 129.5,113.50000000000003 130.0,115.00000000000003 130.5,116.5 131.0,118.00000000000001 131.5,119.49999999999999 132.0,121.0 132.5,122.49999999999997 133.0,123.99999999999997 133.5,125.49999999999999 134.0,127.0 134.5,128.5 135.0,130.0 135.5,131.5 136.0,133.0 136.5,134.5 137.0,136.0 137.5,137.5 138.0,139.0 138.5,140.5 139.0,142.0 139.5,143.5 140.0,145.0 140.5,146.5 141.0,148.0 141.5,149.5 142.0,151.00000000000003 142.5,152.5 143.0,154.0 143.5,155.5 144.0,157.0 144.5,158.5 145.0,160.0 145.5,161.49999999999997 146.0,163.0 146.5,164.5 147.0,166.0 147.5,167.5 148.0,169.0 148.5,170.5 149.0,172.0 149.5,173.5 150.0,175.0 150.5,176.5 151.0,178.0 151.5,179.5 152.0,181.0 152.5,182.50000000000003 153.0,184.0 153.5,185.5 154.0,187.0 154.5,188.5 155.0,190.0 155.5,191.5 156.0,193.0 156.5,194.5 157.0,196.0 157.5,197.5 158.0,199.0 158.5,200.5 159.0,202.0 159.5,203.5 160.0,204.99999999999997 160.5,206.5 161.0,208.0 161.5,209.5 162.0,211.0 162.5,212.5 163.0,214.0 163.5,215.5 164.0,217.0 164.5,218.5 165.0,220.00000000000003 165.5,221.5 166.0,223.0 166.5,224.5 167.0,226.0 167.5,227.5 168.0,229.0 168.5,230.5 169.0,232.0 169.5,233.5 170.0,235.0 170.5,236.5 171.0,238.0 171.5,239.5 172.0,241.0 172.5,242.5 173.0,244.0 173.5,245.5 174.0,247.0 174.5,248.5 175.0,250.0 175.5,251.5 176.0,253.0 176.5,254.5 177.0,256.0 177.5,257.5 178.0,259.0 178.5,260.5 179.0,262.0 179.5,263.5 180.0,265.0 180.5,266.5 181.0,268.0 181.5,269.5 182.0,271.0 182.5,272.5 183.0,274.0 183.5,275.5 184.0,277.0 184.5,278.5 185.0,280.0 185.5,281.5 186.0,283.0 186.5,284.5 187.0,286.0 187.5,287.5 188.0,289.0 188.5,290.5 189.0,292.0 189.5,293.5 190.0,295.0 190.5,296.5 191.0,298.0 191.5,299.5 192.0,301.0 192.5,302.5 193.0,304.0 193.5,305.5 194.0,307.0 194.5,308.5 195.0,310.0 195.5,311.5 196.0,313.0 196.5,314.5 197.0,316.0 197.5,317.5 198.0,319.0 198.5,320.5 199.0,322.0 199.5,323.5 200.0,325.0 200.5,326.5 201.0,328.0 201.5,329.5 202.0,331.0 202.5,332.5 203.0,334.0 203.5,335.5 204.0,337.0 204.5,338.5 205.0,340.0 205.5,341.5 206.0,343.0 206.5,344.5 207.0,346.0 207.5,347.5 208.0,349.0 208.5,350.5 209.0,352.0 209.5,353.5 210.0,355.0 210.5,356.5 211.0,358.0 211.5,359.5 212.0,361.0 212.5,362.5 213.0,364.0 213.5,365.5 214.0,367.0 214.5,368.5 215.0,370.0 215.5,371.5 216.0,373.0 216.5,374.5 217.0,376.0 217.5,377.5 218.0,379.0 218.5,380.5 219.0,382.0 219.5,383.5 220.0,385.0 220.5,386.5 221.0,388.0 221.5,389.5 222.0,391.0 222.5,392.5 223.0,394.0 223.5,395.5 224.0,397.0 224.5,398.5 225.0,400.0 225.5,401.5 226.0,403.0 226.5,404.5 227.0,406.0 227.5,407.5 228.0,409.0 228.5,410.5 229.0,412.0 229.5,413.5 230.0,415.0 230.5,416.5 231.0,418.0 231.5,419.5 232.0,421.0 232.5,422.5 233.0,424.0 233.5,425.5 234.0,427.0 234.5,428.5 235.0,430.0 235.5,431.5 236.0,433.0 236.5,434.5 237.0,436.0 237.5,437.5 238.0,439.0 238.5,440.5 239.0,442.0 239.5,443.5 240.0,445.0 240.5,446.5 241.0,448.0 241.5,449.5 242.0,451.0 242.5,452.5 243.0,454.0 243.5,455.5 244.0,457.0 244.5,458.5 245.0,460.0 245.5,461.5 246.0,463.0 246.5,464.5 247.0,466.0 247.5,467.5 248.0,469.0 248.5,470.5 249.0,472.0 249.5,473.5 250.0,475.0 250.5,476.5 251.0,478.0 251.5,479.5 252.0,481.0 252.5,482.5 253.0,484.0 253.5,485.5 254.0,487.0 254.5,488.5 255.0,490.00000000000006 255.5,491.5 256.0,493.0 256.5,494.5 257.0,496.0 257.5,497.49999999999994 258.0,499.0 258.5,500.5 259.0,502.0 259.5,503.5 260.0,505.0 260.5,506.5 261.0,508.0 261.5,509.5 262.0,511.0 262.5,512.5 263.0,514.0 263.5,515.5 264.0,517.0 264.5,518.5 265.0,520.0 265.5,521.5 266.0,523.0 266.5,524.5 267.0,526.0 267.5,527.5 268.0,529.0 268.5,530.5 269.0,532.0 269.5,533.5 270.0,535.0 270.5,536.5 271.0,538.0 271.5,539.5 272.0,541.0 272.5,542.5 273.0,544.0 273.5,545.5 274.0,547.0 274.5,548.5 275.0,550.0 275.5,551.5 276.0,553.0 276.5,554.5 277.0,556.0 277.5,557.5 278.0,559.0 278.5,560.5 279.0,562.0 279.5,563.5 280.0,565.0 280.5,566.5 281.0,568.0 281.5,569.5 282.0,571.0 282.5,572.5 283.0,574.0 283.5,575.5 284.0,577.0 284.5,578.5 285.0,580.0 285.5,581.5 286.0,583.0 286.5,584.5 287.0,586.0 287.5,587.5 288.0,589.0 288.5,590.5 289.0,592.0 289.5,593.5 290.0,595.0 290.5,596.5 291.0,598.0 291.5,599.5 292.0,601.0 292.5,602.5 293.0,604.0 293.5,605.5 294.0,607.0 294.5,608.5 295.0,610.0 295.5,611.5 296.0,613.0 296.5,614.5 297.0,616.0 297.5,617.5 298.0,619.0 298.5,620.5 299.0,622.0 299.5,623.5 300.0,625.0 300.5,626.5 301.0,628.0 301.5,629.5 302.0,631.0 302.5,632.5 303.0,634.0 303.5,635.5 304.0,637.0 304.5,638.5 305.0,640.0 305.5,641.5 306.0,643.0 306.5,644.5 307.0,646.0 307.5,647.5 308.0,649.0 308.5,650.5 309.0,652.0 309.5,653.5 310.0,655.0 310.5,656.5 311.0,658.0 311.5,659.5 312.0,661.0 312.5,662.5 313.0,664.0 313.5,665.5 314.0,667.0 314.5,668.5 315.0,670.0 315.5,671.5 316.0,673.0 316.5,674.5 317.0,676.0 317.5,677.5 318.0,679.0 318.5,680.5 319.0,682.0 319.5,683.5 320.0,685.0 320.5,686.5 321.0,688.0 321.5,689.5 322.0,691.0 322.5,692.5 323.0,694.0 323.5,695.5 324.0,697.0 324.5,698.5 325.0,700.0 325.5,701.5 326.0,703.0 326.5,704.5 327.0,706.0 327.5,707.5 328.0,709.0 328.5,710.5 329.0,712.0 329.5,713.5 330.0,715.0 330.5,716.5 331.0,718.0 331.5,719.5 332.0,721.0 332.5,722.5 333.0,724.0 333.5,725.5 334.0,727.0 334.5,728.5 335.0,730.0000000000001 335.5,731.5 336.0,733.0 336.5,734.5 337.0,736.0 337.5,737.5 338.0,739.0 338.5,740.5 339.0,742.0 339.5,743.5 340.0,744.9999999999999 340.5,746.5 341.0,748.0 341.5,749.5 342.0,751.0 342.5,752.5 343.0,754.0 343.5,755.5 344.0,757.0 344.5,758.5 345.0,760.0 345.5,761.5 346.0,763.0 346.5,764.5 347.0,766.0 347.5,767.5000000000001 348.0,769.0 348.5,770.5 349.0,772.0 349.5,773.5 350.0,775.0 350.5,776.5 351.0,778.0 351.5,779.5 352.0,781.0 352.5,782.4999999999999 353.0,784.0 353.5,785.5 354.0,787.0 354.5,788.5 355.0,790.0 355.5,791.5 356.0,793.0 356.5,794.5 357.0,796.0 357.5,797.5 358.0,799.0 358.5,800.5 359.0,802.0 359.5,803.5 360.0,805.0000000000001 360.5,806.5 361.0,808.0 361.5,809.5 362.0,811.0 362.5,812.5 363.0,814.0 363.5,815.5 364.0,817.0 364.5,818.5 365.0,819.9999999999999 365.5,821.5 366.0,823.0 366.5,824.5 367.0,826.0 367.5,827.5 368.0,829.0 368.5,830.5 369.0,832.0 369.5,833.5 370.0,835.0 370.5,836.5 371.0,838.0 371.5,839.5 372.0,841.0 372.5,842.5000000000001 373.0,844.0 373.5,845.5 374.0,847.0 374.5,848.5 375.0,850.0 375.5,851.5 376.0,853.0 376.5,854.5 377.0,856.0 377.5,857.4999999999999 378.0,859.0 378.5,860.5 379.0,862.0 379.5,863.5 380.0,865.0 380.5,866.5 381.0,868.0 381.5,869.5 382.0,871.0 382.5,872.5 383.0,874.0 383.5,875.5 384.0,877.0 384.5,878.5 385.0,880.0000000000001 385.5,881.5 386.0,883.0 386.5,884.5 387.0,886.0 387.5,887.5 388.0,889.0 388.5,890.5 389.0,892.0 389.5,893.5 390.0,894.9999999999999 390.5,896.5 391.0,898.0 391.5,899.5 392.0,901.0 392.5,902.5 393.0,904.0 393.5,905.5 394.0,907.0 394.5,908.5 395.0,910.0 395.5,911.5 396.0,913.0 396.5,914.5 397.0,916.0 397.5,917.5000000000001 398.0,919.0 398.5,920.5 399.0,922.0 399.5,923.5 400.0,925.0" fill="none" stroke="green" stroke-width="1.5" />
    <polyline points="0,475.0 0.5,474.5 1.0,474.0 1.5,473.50000000000006 2.0,473.0 2.5,472.5 3.0,472.0 3.5,471.5 4.0,471.0 4.5,470.5 5.0,470.0 5.5,469.5 6.0,469.0 6.5,468.5 7.0,468.0 7.5,467.5 8.0,467.0 8.5,466.5 9.0,466.0 9.5,465.5 10.0,465.0 10.5,464.5 11.0,463.99999999999994 11.5,463.5 12.0,463.0 12.5,462.5 13.0,462.0 13.5,461.5 14.0,461.00000000000006 14.5,460.5 15.0,460.0 15.5,459.5 16.0,459.0 16.5,458.5 17.0,458.0 17.5,457.5 18.0,457.0 18.5,456.5 19.0,456.0 19.5,455.5 20.0,455.0 20.5,454.5 21.0,454.0 21.5,453.5 22.0,453.0 22.5,452.5 23.0,452.0 23.5,451.5 24.0,451.0 24.5,450.5 25.0,450.0 25.5,449.5 26.0,449.0 26.5,448.5 27.0,448.0 27.5,447.5 28.0,447.0 28.5,446.5 29.0,446.0 29.5,445.5 30.0,445.0 30.5,444.5 31.0,444.0 31.5,443.5 32.0,443.0 32.5,442.5 33.0,442.0 33.5,441.5 34.0,441.0 34.5,440.5 35.0,440.0 35.5,439.5 36.0,439.0 36.5,438.5 37.0,438.0 37.5,437.5 38.0,437.0 38.5,436.5 39.0,436.0 39.5,435.5 40.0,435.0 40.5,434.5 41.0,434.0 41.5,433.5 42.0,433.0 42.5,432.5 43.0,432.0 43.5,431.5 44.0,431.0 44.5,430.5 45.0,430.0 45.5,429.5 46.0,429.0 46.5,428.5 47.0,428.0 47.5,427.5 48.0,427.0 48.5,426.5 49.0,426.0 49.5,425.5 50.0,425.0 50.5,424.5 51.0,424.0 51.5,423.5 52.0,423.0 52.5,422.5 53.0,422.0 53.5,421.5 54.0,421.0 54.5,420.5 55.0,420.0 55.5,419.5 56.0,419.0 56.5,418.5 57.0,418.0 57.5,417.5 58.0,417.0 58.5,416.5 59.0,416.0 59.5,415.5 60.0,415.0 60.5,414.5 61.0,414.0 61.5,413.5 62.0,413.0 62.5,412.5 63.0,412.0 63.5,411.5 64.0,411.0 64.5,410.5 65.0,410.0 65.5,409.5 66.0,409.0 66.5,408.5 67.0,408.0 67.5,407.5 68.0,407.0 68.5,406.5 69.0,406.0 69.5,405.5 70.0,405.0 70.5,404.5 71.0,404.0 71.5,403.5 72.0,403.0 72.5,402.5 73.0,402.0 73.5,401.5 74.0,401.0 74.5,400.5 75.0,400.0 75.5,399.5 76.0,399.0 76.5,398.5 77.0,398.0 77.5,397.5 78.0,397.0 78.5,396.5 79.0,396.0 79.5,395.5 80.0,395.0 80.5,394.5 81.0,394.0 81.5,393.5 82.0,393.0 82.5,392.5 83.0,392.0 83.5,391.5 84.0,391.0 84.5,390.5 85.0,390.0 85.5,389.5 86.0,389.0 86.5,388.5 87.0,388.0 87.5,387.5 88.0,387.0 88.5,386.5 89.0,386.0 89.5,385.5 90.0,385.0 90.5,384.5 91.0,384.0 91.5,383.5 92.0,383.0 92.5,382.5 93.0,382.0 93.5,381.5 94.0,381.0 94.5,380.5 95.0,380.0 95.5,379.5 96.0,379.0 96.5,378.5 97.0,378.0 97.5,377.5 98.0,377.0 98.5,376.5 99.0,376.0 99.5,375.5 100.0,375.0 100.5,374.5 101.0,374.0 101.5,373.5 102.0,373.0 102.5,372.5 103.0,372.0 103.5,371.5 104.0,371.0 104.5,370.5 105.0,370.0 105.5,369.5 106.0,369.0 106.5,368.5 107.0,368.0 107.5,367.5 108.0,367.0 108.5,366.5 109.0,366.0 109.5,365.5 110.0,365.0 110.5,364.5 111.0,364.0 111.5,363.5 112.0,363.0 112.5,362.5 113.0,362.0 113.5,361.5 114.0,361.0 114.5,360.5 115.0,360.0 115.5,359.5 116.0,359.0 116.5,358.5 117.0,358.0 117.5,357.5 118.0,357.0 118.5,356.5 119.0,356.0 119.5,355.5 120.0,355.0 120.5,354.5 121.0,354.0 121.5,353.5 122.0,353.0 122.5,352.5 123.0,352.0 123.5,351.5 124.0,351.0 124.5,350.5 125.0,350.0 125.5,349.5 126.0,349.0 126.5,348.5 127.0,348.0 127.5,347.5 128.0,347.0 128.5,346.5 129.0,346.0 129.5,345.5 130.0,345.0 130.5,344.5 131.0,344.0 131.5,343.5 132.0,343.0 132.5,342.5 133.0,342.0 133.5,341.5 134.0,341.0 134.5,340.5 135.0,340.0 135.5,339.5 136.0,339.0 136.5,338.5 137.0,338.0 137.5,337.5 138.0,337.0 138.5,336.5 139.0,336.0 139.5,335.5 140.0,335.0 140.5,334.5 141.0,334.0 141.5,333.5 142.0,333.0 142.5,332.5 143.0,332.0 143.5,331.5 144.0,331.0 144.5,330.5 145.0,330.0 145.5,329.5 146.0,329.0 146.5,328.5 147.0,328.0 147.5,327.5 148.0,327.0 148.5,326.5 149.0,326.0 149.5,325.5 150.0,325.0 150.5,324.5 151.0,324.0 151.5,323.5 152.0,323.0 152.5,322.5 153.0,322.0 153.5,321.5 154.0,321.0 154.5,320.5 155.0,320.0 155.5,319.5 156.0,319.0 156.5,318.5 157.0,318.0 157.5,317.5 158.0,317.0 158.5,316.5 159.0,316.0 159.5,315.5 160.0,315.0 160.5,314.5 161.0,314.0 161.5,313.5 162.0,313.0 162.5,312.5 163.0,312.0 163.5,311.5 164.0,311.0 164.5,310.5 165.0,310.0 165.5,309.5 166.0,309.0 166.5,308.5 167.0,308.0 167.5,307.5 168.0,307.0 168.5,306.5 169.0,306.0 169.5,305.5 170.0,305.0 170.5,304.5 171.0,304.0 171.5,303.5 172.0,303.0 172.5,302.5 173.0,302.0 173.5,301.5 174.0,301.0 174.5,300.5 175.0,300.0 175.5,299.5 176.0,299.0 176.5,298.5 177.0,298.0 177.5,297.5 178.0,297.0 178.5,296.5 179.0,296.0 179.5,295.5 180.0,295.0 180.5,294.5 181.0,294.0 181.5,293.5 182.0,293.0 182.5,292.5 183.0,292.0 183.5,291.5 184.0,291.0 184.5,290.5 185.0,290.0 185.5,289.5 186.0,289.0 186.5,288.5 187.0,288.0 187.5,287.5 188.0,287.0 188.5,286.5 189.0,286.0 189.5,285.5 190.0,285.0 190.5,284.5 191.0,284.0 191.5,283.5 192.0,283.0 192.5,282.5 193.0,282.0 193.5,281.5 194.0,281.0 194.5,280.5 195.0,280.0 195.5,279.5 196.0,279.0 196.5,278.5 197.0,278.0 197.5,277.5 198.0,277.0 198.5,276.5 199.0,276.0 199.5,275.5 200.0,275.0 200.5,274.5 201.0,274.0 201.5,273.5 202.0,273.0 202.5,272.5 203.0,272.0 203.5,271.5 204.0,271.0 204.5,270.5 205.0,270.0 205.5,269.5 206.0,269.0 206.5,268.5 207.0,268.0 207.5,267.5 208.0,267.0 208.5,266.5 209.0,266.0 209.5,265.5 210.0,265.0 210.5,264.5 211.0,264.0 211.5,263.5 212.0,263.0 212.5,262.5 213.0,262.0 213.5,261.5 214.0,261.0 214.5,260.5 215.0,260.0 215.5,259.5 216.0,259.0 216.5,258.5 217.0,258.0 217.5,257.5 218.0,257.0 218.5,256.5 219.0,256.0 219.5,255.5 220.0,255.0 220.5,254.5 221.0,254.0 221.5,253.5 222.0,253.0 222.5,252.5 223.0,252.0 223.5,251.5 224.0,251.0 224.5,250.5 225.0,250.0 225.5,249.5 226.0,249.0 226.5,248.5 227.0,248.0 227.5,247.5 228.0,247.0 228.5,246.5 229.0,246.0 229.5,245.5 230.0,245.0 230.5,244.5 231.0,244.0 231.5,243.5 232.0,243.0 232.5,242.5 233.0,242.0 233.5,241.5 234.0,241.0 234.5,240.5 235.0,240.0 235.5,239.5 236.0,239.0 236.5,238.5 237.0,238.0 237.5,237.5 238.0,237.0 238.5,236.5 239.0,236.0 239.5,235.5 240.0,235.0 240.5,234.5 241.0,234.0 241.5,233.5 242.0,233.0 242.5,232.5 243.0,232.0 243.5,231.5 244.0,231.0 244.5,230.5 245.0,230.0 245.5,229.5 246.0,229.0 246.5,228.5 247.0,228.0 247.5,227.5 248.0,227.0 248.5,226.5 249.0,226.0 249.5,225.5 250.0,225.0 250.5,224.5 251.0,224.0 251.5,223.5 252.0,223.0 252.5,222.5 253.0,222.0 253.5,221.5 254.0,221.0 254.5,220.5 255.0,220.0 255.5,219.5 256.0,219.0 256.5,218.5 257.0,218.0 257.5,217.5 258.0,217.0 258.5,216.5 259.0,216.0 259.5,215.5 260.0,215.0 260.5,214.5 261.0,214.0 261.5,213.5 262.0,213.0 262.5,212.5 263.0,212.0 263.5,211.5 264.0,211.0 264.5,210.5 265.0,210.0 265.5,209.5 266.0,209.0 266.5,208.5 267.0,208.0 267.5,207.5 268.0,207.0 268.5,206.5 269.0,206.0 269.5,205.5 270.0,205.0 270.5,204.5 271.0,204.0 271.5,203.5 272.0,203.0 272.5,202.5 273.0,202.0 273.5,201.5 274.0,201.0 274.5,200.5 275.0,200.0 275.5,199.5 276.0,199.0 276.5,198.5 277.0,198.0 277.5,197.5 278.0,197.0 278.5,196.5 279.0,196.0 279.5,195.5 280.0,195.0 280.5,194.5 281.0,194.0 281.5,193.5 282.0,193.0 282.5,192.5 283.0,192.0 283.5,191.5 284.0,191.0 284.5,190.5 285.0,190.0 285.5,189.5 286.0,189.0 286.5,188.5 287.0,188.0 287.5,187.5 288.0,187.0 288.5,186.5 289.0,186.0 289.5,185.5 290.0,185.0 290.5,184.5 291.0,184.0 291.5,183.5 292.0,183.0 292.5,182.5 293.0,182.0 293.5,181.5 294.0,181.0 294.5,180.5 295.0,180.0 295.5,179.5 296.0,179.0 296.5,178.5 297.0,178.0 297.5,177.5 298.0,177.0 298.5,176.5 299.0,176.0 299.5,175.5 300.0,175.0 300.5,174.5 301.0,174.0 301.5,173.5 302.0,173.0 302.5,172.5 303.0,172.0 303.5,171.5 304.0,171.0 304.5,170.5 305.0,170.0 305.5,169.5 306.0,169.0 306.5,168.5 307.0,168.0 307.5,167.5 308.0,167.0 308.5,166.5 309.0,166.0 309.5,165.5 310.0,165.0 310.5,164.5 311.0,164.0 311.5,163.5 312.0,163.0 312.5,162.5 313.0,162.0 313.5,161.5 314.0,161.0 314.5,160.5 315.0,160.0 315.5,159.5 316.0,159.0 316.5,158.5 317.0,158.0 317.5,157.5 318.0,157.0 318.5,156.5 319.0,156.0 319.5,155.5 320.0,155.0 320.5,154.5 321.0,154.0 321.5,153.5 322.0,153.0 322.5,152.5 323.0,152.0 323.5,151.5 324.0,151.0 324.5,150.5 325.0,150.0 325.5,149.5 326.0,149.0 326.5,148.5 327.0,148.0 327.5,147.5 328.0,147.0 328.5,146.5 329.0,146.0 329.5,145.5 330.0,145.0 330.5,144.5 331.0,144.0 331.5,143.5 332.0,143.0 332.5,142.5 333.0,142.0 333.5,141.5 334.0,141.0 334.5,140.5 335.0,140.0 335.5,139.5 336.0,139.0 336.5,138.5 337.0,138.0 337.5,137.5 338.0,137.0 338.5,136.5 339.0,136.0 339.5,135.5 340.0,135.0 340.5,134.5 341.0,134.0 341.5,133.5 342.0,133.0 342.5,132.5 343.0,132.0 343.5,131.5 344.0,131.0 344.5,130.5 345.0,130.0 345.5,129.5 346.0,129.0 346.5,128.5 347.0,128.0 347.5,127.49999999999999 348.0,127.0 348.5,126.49999999999999 349.0,126.0 349.5,125.49999999999999 350.0,125.0 350.5,124.50000000000001 351.0,124.0 351.5,123.50000000000001 352.0,123.0 352.5,122.50000000000001 353.0,122.0 353.5,121.50000000000001 354.0,121.0 354.5,120.5 355.0,120.0 355.5,119.5 356.0,119.0 356.5,118.5 357.0,118.0 357.5,117.5 358.0,117.0 358.5,116.5 359.0,115.99999999999999 359.5,115.5 360.0,114.99999999999999 360.5,114.5 361.0,113.99999999999999 361.5,113.5 362.0,112.99999999999999 362.5,112.5 363.0,112.00000000000001 363.5,111.5 364.0,111.00000000000001 364.5,110.5 365.0,110.00000000000001 365.5,109.5 366.0,109.00000000000001 366.5,108.5 367.0,108.0 367.5,107.5 368.0,107.0 368.5,106.5 369.0,106.0 369.5,105.5 370.0,105.0 370.5,104.5 371.0,104.0 371.5,103.49999999999999 372.0,103.0 372.5,102.49999999999999 373.0,102.0 373.5,101.49999999999999 374.0,101.0 374.5,100.49999999999999 375.0,100.0 375.5,99.50000000000001 376.0,99.0 376.5,98.50000000000001 377.0,98.0 377.5,97.50000000000001 378.0,97.0 378.5,96.50000000000001 379.0,96.0 379.5,95.5 380.0,95.0 380.5,94.5 381.0,94.0 381.5,93.5 382.0,93.0 382.5,92.5 383.0,92.0 383.5,91.5 384.0,90.99999999999999 384.5,90.5 385.0,89.99999999999999 385.5,89.5 386.0,88.99999999999999 386.5,88.5 387.0,87.99999999999999 387.5,87.5 388.0,87.00000000000001 388.5,86.5 389.0,86.00000000000001 389.5,85.5 390.0,85.00000000000001 390.5,84.5 391.0,84.00000000000001 391.5,83.5 392.0,83.0 392.5,82.5 393.0,82.0 393.5,81.5 394.0,81.0 394.5,80.5 395.0,80.0 395.5,79.5 396.0,79.0 396.5,78.49999999999999 397.0,78.0 397.5,77.49999999999999 398.0,77.0 398.5,76.49999999999999 399.0,76.0 399.5,75.49999999999999 400.0,75.0" fill="none" stroke="black" stroke-width="1.5" />
    <text x="37.5" y="100.0" font-size="18" fill="black">y = mx+b</text>
    <text x="65.9" y="154.5" font-size="18" fill="black" text-anchor="end">m = </text>
    <text x="87.5" y="144.6" font-size="18" fill="black" text-anchor="middle">y - b</text>
    <text x="87.5" y="162.6" font-size="18" fill="black" text-anchor="middle">x</text>
    <line x1="69.5" y1="150.0" x2="105.5" y2="150.0" stroke="black" stroke-width="0.5" />
    <circle cx="125.0" cy="100.0" r="2.0" fill="black" /><text x="127.0" y="98.0" font-size="12" fill="black">A(-3/4)</text>
    <circle cx="100.0" cy="25.0" r="2.0" fill="black" /><text x="102.0" y="23.0" font-size="12" fill="black">B(-4/7)</text>
</svg>