<svg width="400" height="400" xmlns="http://www.w3.org/2000/svg" style="background:white;">
    <line x1="0" y1="200.0" x2="400" y2="200.0" stroke="black" stroke-width="1.0" />
    <line x1="200.0" y1="0" x2="200.0" y2="400" stroke="black" stroke-width="1.0" />
    <line x1="0.0" y1="0" x2="0.0" y2="400" stroke="#eee" stroke-width="0.5" />
    <line x1="25.0" y1="0" x2="25.0" y2="400" stroke="#eee" stroke-width="0.5" />
    <line x1="50.0" y1="0" x2="50.0" y2="400" stroke="#eee" stroke-width="0.5" />
    <line x1="75.0" y1="0" x2="75.0" y2="400" stroke="#eee" stroke-width="0.5" />
    <line x1="100.0" y1="0" x2="100.0" y2="400" stroke="#eee" stroke-width="0.5" />
    <line x1="125.0" y1="0" x2="125.0" y2="400" stroke="#eee" stroke-width="0.5" />
    <line x1="150.0" y1="0" x2="150.0" y2="400" stroke="#eee" stroke-width="0.5" />
    <line x1="175.0" y1="0" x2="175.0" y2="400" stroke="#eee" stroke-width="0.5" />
    <line x1="200.0" y1="0" x2="200.0" y2="400" stroke="#eee" stroke-width="0.5" />
    <line x1="225.0" y1="0" x2="225.0" y2="400" stroke="#eee" stroke-width="0.5" />
    <line x1="250.0" y1="0" x2="250.0" y2="400" stroke="#eee" stroke-width="0.5" />
    <line x1="275.0" y1="0" x2="275.0" y2="400" stroke="#eee" stroke-width="0.5" />
    <line x1="300.0" y1="0" x2="300.0" y2="400" stroke="#eee" stroke-width="0.5" />
    <line x1="325.0" y1="0" x2="325.0" y2="400" stroke="#eee" stroke-width="0.5" />
    <line x1="350.0" y1="0" x2="350.0" y2="400" stroke="#eee" stroke-width="0.5" />
    <line x1="375.0" y1="0" x2="375.0" y2="400" stroke="#eee" stroke-width="0.5" />
    <line x1="400.0" y1="0" x2="400.0" y2="400" stroke="#eee" stroke-width="0.5" />
    <line x1="0" y1="400.0" x2="400" y2="400.0" stroke="#eee" stroke-width="0.5" />
    <line x1="0" y1="375.0" x2="400" y2="375.0" stroke="#eee" stroke-width="0.5" />
    <line x1="0" y1="350.0" x2="400" y2="350.0" stroke="#eee" stroke-width="0.5" />
    <line x1="0" y1="325.0" x2="400" y2="325.0" stroke="#eee" stroke-width="0.5" />
    <line x1="0" y1="300.0" x2="400" y2="300.0" stroke="#eee" stroke-width="0.5" />
    <line x1="0" y1="275.0" x2="400" y2="275.0" stroke="#eee" stroke-width="0.5" />
    <line x1="0" y1="250.0" x2="400" y2="250.0" stroke="#eee" stroke-width="0.5" />
    <line x1="0" y1="225.0" x2="400" y2="225.0" stroke="#eee" stroke-width="0.5" />
    <line x1="0" y1="200.0" x2="400" y2="200.0" stroke="#eee" stroke-width="0.5" />
    <line x1="0" y1="175.0" x2="400" y2="175.0" stroke="#eee" stroke-width="0.5" />
    <line x1="0" y1="150.0" x2="400" y2="150.0" stroke="#eee" stroke-width="0.5" />
    <line x1="0" y1="125.0" x2="400" y2="125.0" stroke="#eee" stroke-width="0.5" />
    <line x1="0" y1="100.0" x2="400" y2="100.0" stroke="#eee" stroke-width="0.5" />
    <line x1="0" y1="75.0" x2="400" y2="75.0" stroke="#eee" stroke-width="0.5" />
    <line x1="0" y1="50.0" x2="400" y2="50.0" stroke="#eee" stroke-width="0.5" />
    <line x1="0" y1="25.0" x2="400" y2="25.0" stroke="#eee" stroke-width="0.5" />
    <line x1="0" y1="0.0" x2="400" y2="0.0" stroke="#eee" stroke-width="0.5" />
    <line x1="0.0" y1="197.0" x2="0.0" y2="203.0" stroke="black" stroke-width="0.5" />
    <text x="-1.25" y="208.0" font-size="8" fill="black">-8</text>
    <line x1="25.0" y1="197.0" x2="25.0" y2="203.0" stroke="black" stroke-width="0.5" />
    <text x="23.75" y="208.0" font-size="8" fill="black">-7</text>
    <line x1="50.0" y1="197.0" x2="50.0" y2="203.0" stroke="black" stroke-width="0.5" />
    <text x="48.75" y="208.0" font-size="8" fill="black">-6</text>
    <line x1="75.0" y1="197.0" x2="75.0" y2="203.0" stroke="black" stroke-width="0.5" />
    <text x="73.75" y="208.0" font-size="8" fill="black">-5</text>
    <line x1="100.0" y1="197.0" x2="100.0" y2="203.0" stroke="black" stroke-width="0.5" />
    <text x="98.75" y="208.0" font-size="8" fill="black">-4</text>
    <line x1="125.0" y1="197.0" x2="125.0" y2="203.0" stroke="black" stroke-width="0.5" />
    <text x="123.75" y="208.0" font-size="8" fill="black">-3</text>
    <line x1="150.0" y1="197.0" x2="150.0" y2="203.0" stroke="black" stroke-width="0.5" />
    <text x="148.75" y="208.0" font-size="8" fill="black">-2</text>
    <line x1="175.0" y1="197.0" x2="175.0" y2="203.0" stroke="black" stroke-width="0.5" />
    <text x="173.75" y="208.0" font-size="8" fill="black">-1</text>
    <line x1="200.0" y1="197.0" x2="200.0" y2="203.0" stroke="black" stroke-width="0.5" />
    <text x="198.75" y="208.0" font-size="8" fill="black">0</text>
    <line x1="225.0" y1="197.0" x2="225.0" y2="203.0" stroke="black" stroke-width="0.5" />
    <text x="223.75" y="208.0" font-size="8" fill="black">1</text>
    <line x1="250.0" y1="197.0" x2="250.0" y2="203.0" stroke="black" stroke-width="0.5" />
    <text x="248.75" y="208.0" font-size="8" fill="black">2</text>
    <line x1="275.0" y1="197.0" x2="275.0" y2="203.0" stroke="black" stroke-width="0.5" />
    <text x="273.75" y="208.0" font-size="8" fill="black">3</text>
    <line x1="300.0" y1="197.0" x2="300.0" y2="203.0" stroke="black" stroke-width="0.5" />
    <text x="298.75" y="208.0" font-size="8" fill="black">4</text>
    <line x1="325.0" y1="197.0" x2="325.0" y2="203.0" stroke="black" stroke-width="0.5" />
    <text x="323.75" y="208.0" font-size="8" fill="black">5</text>
    <line x1="350.0" y1="197.0" x2="350.0" y2="203.0" stroke="black" stroke-width="0.5" />
    <text x="348.75" y="208.0" font-size="8" fill="black">6</text>
    <line x1="375.0" y1="197.0" x2="375.0" y2="203.0" stroke="black" stroke-width="0.5" />
    <text x="373.75" y="208.0" font-size="8" fill="black">7</text>
    <line x1="400.0" y1="197.0" x2="400.0" y2="203.0" stroke="black" stroke-width="0.5" />
    <text x="398.75" y="208.0" font-size="8" fill="black">8</text>
    <line x1="197.0" y1="400.0" x2="203.0" y2="400.0" stroke="black" stroke-width="0.5" />
    <text x="192.0" y="401.25" font-size="8" fill="black">-8</text>
    <line x1="197.0" y1="375.0" x2="203.0" y2="375.0" stroke="black" stroke-width="0.5" />
    <text x="192.0" y="376.25" font-size="8" fill="black">-7</text>
    <line x1="197.0" y1="350.0" x2="203.0" y2="350.0" stroke="black" stroke-width="0.5" />
    <text x="192.0" y="351.25" font-size="8" fill="black">-6</text>
    <line x1="197.0" y1="325.0" x2="203.0" y2="325.0" stroke="black" stroke-width="0.5" />
    <text x="192.0" y="326.25" font-size="8" fill="black">-5</text>
    <line x1="197.0" y1="300.0" x2="203.0" y2="300.0" stroke="black" stroke-width="0.5" />
    <text x="192.0" y="301.25" font-size="8" fill="black">-4</text>
    <line x1="197.0" y1="275.0" x2="203.0" y2="275.0" stroke="black" stroke-width="0.5" />
    <text x="192.0" y="276.25" font-size="8" fill="black">-3</text>
    <line x1="197.0" y1="250.0" x2="203.0" y2="250.0" stroke="black" stroke-width="0.5" />
    <text x="192.0" y="251.25" font-size="8" fill="black">-2</text>
    <line x1="197.0" y1="225.0" x2="203.0" y2="225.0" stroke="black" stroke-width="0.5" />
    <text x="192.0" y="226.25" font-size="8" fill="black">-1</text>
    <line x1="197.0" y1="200.0" x2="203.0" y2="200.0" stroke="black" stroke-width="0.5" />
    <text x="192.0" y="201.25" font-size="8" fill="black">0</text>
    <line x1="197.0" y1="175.0" x2="203.0" y2="175.0" stroke="black" stroke-width="0.5" />
    <text x="192.0" y="176.25" font-size="8" fill="black">1</text>
    <line x1="197.0" y1="150.0" x2="203.0" y2="150.0" stroke="black" stroke-width="0.5" />
    <text x="192.0" y="151.25" font-size="8" fill="black">2</text>
    <line x1="197.0" y1="125.0" x2="203.0" y2="125.0" stroke="black" stroke-width="0.5" />
    <text x="192.0" y="126.25" font-size="8" fill="black">3</text>
    <line x1="197.0" y1="100.0" x2="203.0" y2="100.0" stroke="black" stroke-width="0.5" />
    <text x="192.0" y="101.25" font-size="8" fill="black">4</text>
    <line x1="197.0" y1="75.0" x2="203.0" y2="75.0" stroke="black" stroke-width="0.5" />
    <text x="192.0" y="76.25" font-size="8" fill="black">5</text>
    <line x1="197.0" y1="50.0" x2="203.0" y2="50.0" stroke="black" stroke-width="0.5" />
    <text x="192.0" y="51.25" font-size="8" fill="black">6</text>
    <line x1="197.0" y1="25.0" x2="203.0" y2="25.0" stroke="black" stroke-width="0.5" />
    <text x="192.0" y="26.25" font-size="8" fill="black">7</text>
    <line x1="197.0" y1="0.0" x2="203.0" y2="0.0" stroke="black" stroke-width="0.5" />
    <text x="192.0" y="1.25" font-size="8" fill="black">8</text>
    <text x="0.0" y="50.0" font-size="14" fill="black">Bestimme die Punkte (x/y)</text>
    <circle cx="225.0" cy="100.0" r="2.0" fill="black" /><text x="227.0" y="98.0" font-size="8" fill="black">A(_/_)</text>
    <circle cx="100.0" cy="175.0" r="2.0" fill="black" /><text x="102.0" y="173.0" font-size="8" fill="black">B(_/_)</text>
    <circle cx="275.0" cy="50.0" r="2.0" fill="black" /><text x="277.0" y="48.0" font-size="8" fill="black">C(_/_)</text>
    <circle cx="125.0" cy="350.0" r="2.0" fill="black" /><text x="127.0" y="348.0" font-size="8" fill="black">D(_/_)</text>
    <circle cx="150.0" cy="300.0" r="2.0" fill="black" /><text x="152.0" y="298.0" font-size="8" fill="black">E(_/_)</text>
    <circle cx="125.0" cy="75.0" r="2.0" fill="black" /><text x="127.0" y="73.0" font-size="8" fill="black">F(_/_)</text>
    <circle cx="325.0" cy="275.0" r="2.0" fill="black" /><text x="327.0" y="273.0" font-size="8" fill="black">G(_/_)</text>
</svg>