<svg width="400" height="400" xmlns="http://www.w3.org/2000/svg" style="background:white;">
    <line x1="0" y1="200.0" x2="400" y2="200.0" stroke="black" stroke-width="1.0" />
    <line x1="200.0" y1="0" x2="200.0" y2="400" stroke="black" stroke-width="1.0" />
    <line x1="0.0" y1="0" x2="0.0" y2="400" stroke="#eee" stroke-width="0.5" />
    <line x1="25.0" y1="0" x2="25.0" y2="400" stroke="#eee" stroke-width="0.5" />
    <line x1="50.0" y1="0" x2="50.0" y2="400" stroke="#eee" stroke-width="0.5" />
    <line x1="75.0" y1="0" x2="75.0" y2="400" stroke="#eee" stroke-width="0.5" />
    <line x1="100.0" y1="0" x2="100.0" y2="400" stroke="#eee" stroke-width="0.5" />
    <line x1="125.0" y1="0" x2="125.0" y2="400" stroke="#eee" stroke-width="0.5" />
    <line x1="150.0" y1="0" x2="150.0" y2="400" stroke="#eee" stroke-width="0.5" />
    <line x1="175.0" y1="0" x2="175.0" y2="400" stroke="#eee" stroke-width="0.5" />
    <line x1="200.0" y1="0" x2="200.0" y2="400" stroke="#eee" stroke-width="0.5" />
    <line x1="225.0" y1="0" x2="225.0" y2="400" stroke="#eee" stroke-width="0.5" />
    <line x1="250.0" y1="0" x2="250.0" y2="400" stroke="#eee" stroke-width="0.5" />
    <line x1="275.0" y1="0" x2="275.0" y2="400" stroke="#eee" stroke-width="0.5" />
    <line x1="300.0" y1="0" x2="300.0" y2="400" stroke="#eee" stroke-width="0.5" />
    <line x1="325.0" y1="0" x2="325.0" y2="400" stroke="#eee" stroke-width="0.5" />
    <line x1="350.0" y1="0" x2="350.0" y2="400" stroke="#eee" stroke-width="0.5" />
    <line x1="375.0" y1="0" x2="375.0" y2="400" stroke="#eee" stroke-width="0.5" />
    <line x1="400.0" y1="0" x2="400.0" y2="400" stroke="#eee" stroke-width="0.5" />
    <line x1="0" y1="400.0" x2="400" y2="400.0" stroke="#eee" stroke-width="0.5" />
    <line x1="0" y1="375.0" x2="400" y2="375.0" stroke="#eee" stroke-width="0.5" />
    <line x1="0" y1="350.0" x2="400" y2="350.0" stroke="#eee" stroke-width="0.5" />
    <line x1="0" y1="325.0" x2="400" y2="325.0" stroke="#eee" stroke-width="0.5" />
    <line x1="0" y1="300.0" x2="400" y2="300.0" stroke="#eee" stroke-width="0.5" />
    <line x1="0" y1="275.0" x2="400" y2="275.0" stroke="#eee" stroke-width="0.5" />
    <line x1="0" y1="250.0" x2="400" y2="250.0" stroke="#eee" stroke-width="0.5" />
    <line x1="0" y1="225.0" x2="400" y2="225.0" stroke="#eee" stroke-width="0.5" />
    <line x1="0" y1="200.0" x2="400" y2="200.0" stroke="#eee" stroke-width="0.5" />
    <line x1="0" y1="175.0" x2="400" y2="175.0" stroke="#eee" stroke-width="0.5" />
    <line x1="0" y1="150.0" x2="400" y2="150.0" stroke="#eee" stroke-width="0.5" />
    <line x1="0" y1="125.0" x2="400" y2="125.0" stroke="#eee" stroke-width="0.5" />
    <line x1="0" y1="100.0" x2="400" y2="100.0" stroke="#eee" stroke-width="0.5" />
    <line x1="0" y1="75.0" x2="400" y2="75.0" stroke="#eee" stroke-width="0.5" />
    <line x1="0" y1="50.0" x2="400" y2="50.0" stroke="#eee" stroke-width="0.5" />
    <line x1="0" y1="25.0" x2="400" y2="25.0" stroke="#eee" stroke-width="0.5" />
    <line x1="0" y1="0.0" x2="400" y2="0.0" stroke="#eee" stroke-width="0.5" />
    <line x1="0.0" y1="197.0" x2="0.0" y2="203.0" stroke="black" stroke-width="0.5" />
    <text x="-1.25" y="208.0" font-size="8" fill="black">-8</text>
    <line x1="25.0" y1="197.0" x2="25.0" y2="203.0" stroke="black" stroke-width="0.5" />
    <text x="23.75" y="208.0" font-size="8" fill="black">-7</text>
    <line x1="50.0" y1="197.0" x2="50.0" y2="203.0" stroke="black" stroke-width="0.5" />
    <text x="48.75" y="208.0" font-size="8" fill="black">-6</text>
    <line x1="75.0" y1="197.0" x2="75.0" y2="203.0" stroke="black" stroke-width="0.5" />
    <text x="73.75" y="208.0" font-size="8" fill="black">-5</text>
    <line x1="100.0" y1="197.0" x2="100.0" y2="203.0" stroke="black" stroke-width="0.5" />
    <text x="98.75" y="208.0" font-size="8" fill="black">-4</text>
    <line x1="125.0" y1="197.0" x2="125.0" y2="203.0" stroke="black" stroke-width="0.5" />
    <text x="123.75" y="208.0" font-size="8" fill="black">-3</text>
    <line x1="150.0" y1="197.0" x2="150.0" y2="203.0" stroke="black" stroke-width="0.5" />
    <text x="148.75" y="208.0" font-size="8" fill="black">-2</text>
    <line x1="175.0" y1="197.0" x2="175.0" y2="203.0" stroke="black" stroke-width="0.5" />
    <text x="173.75" y="208.0" font-size="8" fill="black">-1</text>
    <line x1="200.0" y1="197.0" x2="200.0" y2="203.0" stroke="black" stroke-width="0.5" />
    <text x="198.75" y="208.0" font-size="8" fill="black">0</text>
    <line x1="225.0" y1="197.0" x2="225.0" y2="203.0" stroke="black" stroke-width="0.5" />
    <text x="223.75" y="208.0" font-size="8" fill="black">1</text>
    <line x1="250.0" y1="197.0" x2="250.0" y2="203.0" stroke="black" stroke-width="0.5" />
    <text x="248.75" y="208.0" font-size="8" fill="black">2</text>
    <line x1="275.0" y1="197.0" x2="275.0" y2="203.0" stroke="black" stroke-width="0.5" />
    <text x="273.75" y="208.0" font-size="8" fill="black">3</text>
    <line x1="300.0" y1="197.0" x2="300.0" y2="203.0" stroke="black" stroke-width="0.5" />
    <text x="298.75" y="208.0" font-size="8" fill="black">4</text>
    <line x1="325.0" y1="197.0" x2="325.0" y2="203.0" stroke="black" stroke-width="0.5" />
    <text x="323.75" y="208.0" font-size="8" fill="black">5</text>
    <line x1="350.0" y1="197.0" x2="350.0" y2="203.0" stroke="black" stroke-width="0.5" />
    <text x="348.75" y="208.0" font-size="8" fill="black">6</text>
    <line x1="375.0" y1="197.0" x2="375.0" y2="203.0" stroke="black" stroke-width="0.5" />
    <text x="373.75" y="208.0" font-size="8" fill="black">7</text>
    <line x1="400.0" y1="197.0" x2="400.0" y2="203.0" stroke="black" stroke-width="0.5" />
    <text x="398.75" y="208.0" font-size="8" fill="black">8</text>
    <line x1="197.0" y1="400.0" x2="203.0" y2="400.0" stroke="black" stroke-width="0.5" />
    <text x="192.0" y="401.25" font-size="8" fill="black">-8</text>
    <line x1="197.0" y1="375.0" x2="203.0" y2="375.0" stroke="black" stroke-width="0.5" />
    <text x="192.0" y="376.25" font-size="8" fill="black">-7</text>
    <line x1="197.0" y1="350.0" x2="203.0" y2="350.0" stroke="black" stroke-width="0.5" />
    <text x="192.0" y="351.25" font-size="8" fill="black">-6</text>
    <line x1="197.0" y1="325.0" x2="203.0" y2="325.0" stroke="black" stroke-width="0.5" />
    <text x="192.0" y="326.25" font-size="8" fill="black">-5</text>
    <line x1="197.0" y1="300.0" x2="203.0" y2="300.0" stroke="black" stroke-width="0.5" />
    <text x="192.0" y="301.25" font-size="8" fill="black">-4</text>
    <line x1="197.0" y1="275.0" x2="203.0" y2="275.0" stroke="black" stroke-width="0.5" />
    <text x="192.0" y="276.25" font-size="8" fill="black">-3</text>
    <line x1="197.0" y1="250.0" x2="203.0" y2="250.0" stroke="black" stroke-width="0.5" />
    <text x="192.0" y="251.25" font-size="8" fill="black">-2</text>
    <line x1="197.0" y1="225.0" x2="203.0" y2="225.0" stroke="black" stroke-width="0.5" />
    <text x="192.0" y="226.25" font-size="8" fill="black">-1</text>
    <line x1="197.0" y1="200.0" x2="203.0" y2="200.0" stroke="black" stroke-width="0.5" />
    <text x="192.0" y="201.25" font-size="8" fill="black">0</text>
    <line x1="197.0" y1="175.0" x2="203.0" y2="175.0" stroke="black" stroke-width="0.5" />
    <text x="192.0" y="176.25" font-size="8" fill="black">1</text>
    <line x1="197.0" y1="150.0" x2="203.0" y2="150.0" stroke="black" stroke-width="0.5" />
    <text x="192.0" y="151.25" font-size="8" fill="black">2</text>
    <line x1="197.0" y1="125.0" x2="203.0" y2="125.0" stroke="black" stroke-width="0.5" />
    <text x="192.0" y="126.25" font-size="8" fill="black">3</text>
    <line x1="197.0" y1="100.0" x2="203.0" y2="100.0" stroke="black" stroke-width="0.5" />
    <text x="192.0" y="101.25" font-size="8" fill="black">4</text>
    <line x1="197.0" y1="75.0" x2="203.0" y2="75.0" stroke="black" stroke-width="0.5" />
    <text x="192.0" y="76.25" font-size="8" fill="black">5</text>
    <line x1="197.0" y1="50.0" x2="203.0" y2="50.0" stroke="black" stroke-width="0.5" />
    <text x="192.0" y="51.25" font-size="8" fill="black">6</text>
    <line x1="197.0" y1="25.0" x2="203.0" y2="25.0" stroke="black" stroke-width="0.5" />
    <text x="192.0" y="26.25" font-size="8" fill="black">7</text>
    <line x1="197.0" y1="0.0" x2="203.0" y2="0.0" stroke="black" stroke-width="0.5" />
    <text x="192.0" y="1.25" font-size="8" fill="black">8</text>
    <polyline points="0,750.0 0.5,749.0 1.0,748.0 1.5,747.0000000000001 2.0,746.0 2.5,745.0 3.0,744.0 3.5,743.0 4.0,742.0 4.5,741.0 5.0,740.0 5.5,739.0 6.0,738.0 6.5,737.0 7.0,736.0 7.5,735.0 8.0,734.0 8.5,733.0 9.0,732.0 9.5,731.0 10.0,730.0 10.5,729.0 11.0,727.9999999999999 11.5,727.0 12.0,726.0 12.5,725.0 13.0,724.0 13.5,723.0 14.0,722.0000000000001 14.5,721.0 15.0,720.0 15.5,719.0 16.0,718.0 16.5,717.0 17.0,716.0 17.5,715.0 18.0,714.0 18.5,713.0 19.0,712.0 19.5,711.0 20.0,710.0 20.5,709.0 21.0,708.0 21.5,707.0 22.0,706.0 22.5,705.0 23.0,704.0 23.5,703.0 24.0,702.0 24.5,701.0 25.0,700.0 25.5,699.0 26.0,698.0 26.5,697.0 27.0,696.0 27.5,695.0 28.0,694.0 28.5,693.0 29.0,692.0 29.5,691.0 30.0,690.0 30.5,689.0 31.0,688.0 31.5,687.0 32.0,686.0 32.5,685.0 33.0,684.0 33.5,683.0 34.0,682.0 34.5,681.0 35.0,680.0 35.5,679.0 36.0,678.0 36.5,677.0 37.0,676.0 37.5,675.0 38.0,674.0 38.5,673.0 39.0,672.0 39.5,671.0 40.0,670.0 40.5,669.0 41.0,668.0 41.5,667.0 42.0,666.0 42.5,665.0 43.0,664.0 43.5,663.0 44.0,662.0 44.5,661.0 45.0,660.0 45.5,659.0 46.0,658.0 46.5,657.0 47.0,656.0 47.5,655.0 48.0,654.0 48.5,653.0 49.0,652.0 49.5,651.0 50.0,650.0 50.5,649.0 51.0,648.0 51.5,647.0 52.0,646.0 52.5,645.0 53.0,644.0 53.5,643.0 54.0,642.0 54.5,641.0 55.0,640.0 55.5,639.0 56.0,638.0 56.5,637.0 57.0,636.0 57.5,635.0 58.0,634.0 58.5,633.0 59.0,632.0 59.5,631.0 60.0,630.0 60.5,629.0 61.0,628.0 61.5,627.0 62.0,626.0 62.5,625.0 63.0,624.0 63.5,623.0 64.0,622.0 64.5,621.0 65.0,620.0 65.5,619.0 66.0,618.0 66.5,617.0 67.0,616.0 67.5,615.0 68.0,614.0 68.5,613.0 69.0,612.0 69.5,611.0 70.0,610.0 70.5,609.0 71.0,608.0 71.5,607.0 72.0,606.0 72.5,605.0 73.0,604.0 73.5,603.0 74.0,602.0 74.5,601.0 75.0,600.0 75.5,599.0 76.0,598.0 76.5,597.0 77.0,596.0 77.5,595.0 78.0,594.0 78.5,593.0 79.0,592.0 79.5,591.0 80.0,590.0 80.5,589.0 81.0,588.0 81.5,587.0 82.0,586.0 82.5,585.0 83.0,584.0 83.5,583.0 84.0,582.0 84.5,581.0 85.0,580.0 85.5,579.0 86.0,578.0 86.5,577.0 87.0,576.0 87.5,575.0 88.0,574.0 88.5,573.0 89.0,572.0 89.5,571.0 90.0,570.0 90.5,569.0 91.0,568.0 91.5,567.0 92.0,566.0 92.5,565.0 93.0,564.0 93.5,563.0 94.0,562.0 94.5,561.0 95.0,560.0 95.5,559.0 96.0,558.0 96.5,557.0 97.0,556.0 97.5,555.0 98.0,554.0 98.5,553.0 99.0,552.0 99.5,551.0 100.0,550.0 100.5,549.0 101.0,548.0 101.5,547.0 102.0,546.0 102.5,545.0 103.0,544.0 103.5,543.0 104.0,542.0 104.5,541.0 105.0,540.0 105.5,539.0 106.0,538.0 106.5,537.0 107.0,536.0 107.5,535.0 108.0,534.0 108.5,533.0 109.0,532.0 109.5,531.0 110.0,530.0 110.5,529.0 111.0,528.0 111.5,527.0 112.0,526.0 112.5,525.0 113.0,524.0 113.5,523.0 114.0,522.0 114.5,521.0 115.0,520.0 115.5,519.0 116.0,518.0 116.5,517.0 117.0,516.0 117.5,515.0 118.0,514.0 118.5,513.0 119.0,512.0 119.5,511.00000000000006 120.0,510.0 120.5,509.0 121.0,508.0 121.5,507.0 122.0,506.0 122.5,505.0 123.0,504.0 123.5,503.0 124.0,502.0 124.5,501.0 125.0,500.0 125.5,499.0 126.0,498.0 126.5,497.0 127.0,496.0 127.5,495.0 128.0,494.0 128.5,493.0 129.0,492.0 129.5,491.0 130.0,490.0 130.5,488.99999999999994 131.0,488.0 131.5,487.0 132.0,486.00000000000006 132.5,485.0 133.0,484.0 133.5,483.0 134.0,482.0 134.5,481.0 135.0,480.0 135.5,479.0 136.0,478.0 136.5,477.0 137.0,476.0 137.5,475.0 138.0,474.0 138.5,473.0 139.0,472.0 139.5,471.0 140.0,470.0 140.5,469.0 141.0,468.0 141.5,467.0 142.0,466.0 142.5,465.0 143.0,463.99999999999994 143.5,463.0 144.0,462.0 144.5,461.00000000000006 145.0,460.0 145.5,459.0 146.0,458.0 146.5,457.0 147.0,456.0 147.5,455.0 148.0,454.0 148.5,453.0 149.0,452.0 149.5,451.0 150.0,450.0 150.5,449.0 151.0,448.0 151.5,447.0 152.0,446.0 152.5,445.0 153.0,444.0 153.5,443.0 154.0,442.0 154.5,441.0 155.0,440.0 155.5,439.0 156.0,438.0 156.5,437.0 157.0,436.0 157.5,435.0 158.0,434.0 158.5,433.0 159.0,432.0 159.5,431.0 160.0,430.0 160.5,429.0 161.0,428.0 161.5,427.0 162.0,426.0 162.5,425.0 163.0,424.0 163.5,423.0 164.0,422.0 164.5,421.0 165.0,420.0 165.5,419.0 166.0,418.0 166.5,417.0 167.0,416.0 167.5,415.0 168.0,414.0 168.5,413.0 169.0,412.0 169.5,411.0 170.0,410.0 170.5,409.0 171.0,408.0 171.5,407.0 172.0,406.0 172.5,405.0 173.0,404.0 173.5,403.0 174.0,402.0 174.5,401.0 175.0,400.0 175.5,399.0 176.0,398.0 176.5,397.0 177.0,396.0 177.5,395.0 178.0,394.0 178.5,393.0 179.0,392.0 179.5,391.0 180.0,390.0 180.5,389.0 181.0,388.0 181.5,387.0 182.0,386.0 182.5,385.0 183.0,384.0 183.5,383.0 184.0,382.0 184.5,381.0 185.0,380.0 185.5,379.0 186.0,378.0 186.5,377.0 187.0,376.0 187.5,375.0 188.0,374.0 188.5,373.0 189.0,372.0 189.5,371.0 190.0,370.0 190.5,369.0 191.0,368.0 191.5,367.0 192.0,366.0 192.5,365.0 193.0,364.0 193.5,363.0 194.0,362.0 194.5,361.0 195.0,360.0 195.5,359.0 196.0,358.0 196.5,357.0 197.0,356.0 197.5,355.0 198.0,354.0 198.5,353.0 199.0,352.0 199.5,351.0 200.0,350.0 200.5,349.0 201.0,348.0 201.5,347.0 202.0,346.0 202.5,345.0 203.0,344.0 203.5,343.0 204.0,342.0 204.5,341.0 205.0,340.0 205.5,339.0 206.0,338.0 206.5,337.0 207.0,336.0 207.5,335.0 208.0,334.0 208.5,333.0 209.0,332.0 209.5,331.0 210.0,330.0 210.5,329.0 211.0,328.0 211.5,327.0 212.0,326.0 212.5,325.0 213.0,324.0 213.5,323.0 214.0,322.0 214.5,321.0 215.0,320.0 215.5,319.0 216.0,318.0 216.5,317.0 217.0,316.0 217.5,315.0 218.0,314.0 218.5,313.0 219.0,312.0 219.5,311.0 220.0,310.0 220.5,309.0 221.0,308.0 221.5,307.0 222.0,306.0 222.5,305.0 223.0,304.0 223.5,303.0 224.0,302.0 224.5,301.0 225.0,300.0 225.5,299.0 226.0,298.0 226.5,297.0 227.0,296.0 227.5,295.0 228.0,294.0 228.5,293.0 229.0,292.0 229.5,291.0 230.0,290.0 230.5,289.0 231.0,288.0 231.5,287.0 232.0,286.0 232.5,285.0 233.0,284.0 233.5,283.0 234.0,282.0 234.5,281.0 235.0,280.0 235.5,279.0 236.0,278.0 236.5,277.0 237.0,276.0 237.5,275.0 238.0,274.0 238.5,273.0 239.0,272.0 239.5,271.0 240.0,270.0 240.5,269.0 241.0,268.0 241.5,267.0 242.0,266.0 242.5,265.0 243.0,264.0 243.5,263.0 244.0,262.0 244.5,261.0 245.0,260.0 245.5,259.0 246.0,258.0 246.5,257.0 247.0,256.0 247.5,255.0 248.0,254.0 248.5,253.0 249.0,252.0 249.5,251.0 250.0,250.0 250.5,249.0 251.0,248.0 251.5,247.0 252.0,246.0 252.5,245.0 253.0,244.0 253.5,243.0 254.0,242.0 254.5,241.0 255.0,240.0 255.5,239.0 256.0,238.0 256.5,237.0 257.0,236.0 257.5,235.0 258.0,234.0 258.5,233.0 259.0,232.0 259.5,231.0 260.0,230.0 260.5,229.0 261.0,228.0 261.5,227.0 262.0,226.0 262.5,225.0 263.0,224.0 263.5,223.0 264.0,222.0 264.5,221.0 265.0,220.0 265.5,219.0 266.0,218.0 266.5,217.0 267.0,216.0 267.5,215.0 268.0,214.0 268.5,213.0 269.0,212.0 269.5,211.0 270.0,210.0 270.5,209.0 271.0,208.0 271.5,207.0 272.0,206.0 272.5,205.0 273.0,204.0 273.5,203.0 274.0,202.0 274.5,201.0 275.0,200.0 275.5,199.0 276.0,198.0 276.5,197.0 277.0,196.0 277.5,195.0 278.0,194.0 278.5,193.0 279.0,192.0 279.5,191.0 280.0,190.0 280.5,189.0 281.0,188.0 281.5,187.0 282.0,186.0 282.5,185.0 283.0,184.0 283.5,183.0 284.0,182.0 284.5,181.0 285.0,180.0 285.5,179.0 286.0,178.0 286.5,177.0 287.0,176.0 287.5,175.0 288.0,174.0 288.5,173.0 289.0,172.0 289.5,171.0 290.0,170.0 290.5,169.0 291.0,168.0 291.5,167.0 292.0,166.0 292.5,165.0 293.0,164.0 293.5,163.0 294.0,162.0 294.5,161.0 295.0,160.0 295.5,159.0 296.0,158.0 296.5,157.0 297.0,156.0 297.5,155.0 298.0,154.0 298.5,153.0 299.0,152.0 299.5,151.0 300.0,150.0 300.5,149.00000000000003 301.0,148.0 301.5,147.00000000000003 302.0,146.0 302.5,145.0 303.0,144.0 303.5,143.0 304.0,142.0 304.5,141.0 305.0,140.0 305.5,139.0 306.0,138.0 306.5,137.0 307.0,136.0 307.5,135.0 308.0,134.0 308.5,133.0 309.0,132.0 309.5,131.0 310.0,130.0 310.5,129.0 311.0,127.99999999999999 311.5,127.0 312.0,125.99999999999997 312.5,125.0 313.0,124.00000000000003 313.5,123.0 314.0,122.00000000000001 314.5,121.0 315.0,120.00000000000001 315.5,119.0 316.0,118.00000000000001 316.5,117.0 317.0,116.00000000000001 317.5,114.99999999999999 318.0,114.00000000000001 318.5,112.99999999999999 319.0,112.00000000000001 319.5,110.99999999999999 320.0,110.00000000000001 320.5,108.99999999999999 321.0,108.0 321.5,106.99999999999999 322.0,106.0 322.5,104.99999999999999 323.0,104.0 323.5,102.99999999999999 324.0,102.0 324.5,100.99999999999997 325.0,100.0 325.5,99.00000000000003 326.0,98.0 326.5,97.00000000000001 327.0,96.0 327.5,95.00000000000001 328.0,94.0 328.5,93.00000000000001 329.0,92.0 329.5,91.00000000000001 330.0,89.99999999999999 330.5,89.00000000000001 331.0,87.99999999999999 331.5,87.00000000000001 332.0,85.99999999999999 332.5,85.00000000000001 333.0,83.99999999999999 333.5,83.0 334.0,81.99999999999999 334.5,81.0 335.0,79.99999999999999 335.5,79.0 336.0,77.99999999999999 336.5,77.0 337.0,75.99999999999997 337.5,75.0 338.0,74.00000000000003 338.5,73.0 339.0,72.00000000000001 339.5,71.0 340.0,70.00000000000003 340.5,69.0 341.0,68.00000000000003 341.5,67.0 342.0,66.0 342.5,65.0 343.0,64.0 343.5,63.0 344.0,62.0 344.5,61.0 345.0,60.0 345.5,59.0 346.0,58.0 346.5,56.99999999999997 347.0,56.0 347.5,54.99999999999997 348.0,54.0 348.5,52.99999999999997 349.0,52.0 349.5,50.99999999999997 350.0,50.0 350.5,49.00000000000003 351.0,48.0 351.5,47.00000000000003 352.0,46.0 352.5,45.00000000000003 353.0,44.0 353.5,43.00000000000003 354.0,42.0 354.5,41.0 355.0,40.0 355.5,39.0 356.0,38.0 356.5,37.0 357.0,36.0 357.5,35.0 358.0,34.0 358.5,33.0 359.0,31.99999999999997 359.5,31.0 360.0,29.99999999999997 360.5,29.0 361.0,27.99999999999997 361.5,27.0 362.0,25.99999999999997 362.5,25.0 363.0,24.00000000000003 363.5,23.0 364.0,22.00000000000003 364.5,21.0 365.0,20.00000000000003 365.5,19.0 366.0,18.00000000000003 366.5,17.0 367.0,16.0 367.5,15.0 368.0,14.0 368.5,13.0 369.0,12.0 369.5,11.0 370.0,10.0 370.5,9.0 371.0,8.0 371.5,6.999999999999972 372.0,6.0 372.5,4.999999999999972 373.0,4.0 373.5,2.9999999999999716 374.0,2.0 374.5,0.9999999999999716 375.0,0.0 375.5,-0.9999999999999716 376.0,-2.0 376.5,-2.9999999999999716 377.0,-4.0 377.5,-4.999999999999972 378.0,-6.0 378.5,-6.999999999999972 379.0,-8.0 379.5,-9.0 380.0,-10.0 380.5,-11.0 381.0,-12.0 381.5,-13.0 382.0,-14.0 382.5,-15.0 383.0,-16.0 383.5,-17.0 384.0,-18.00000000000003 384.5,-19.0 385.0,-20.00000000000003 385.5,-21.0 386.0,-22.00000000000003 386.5,-23.0 387.0,-24.00000000000003 387.5,-25.0 388.0,-25.99999999999997 388.5,-27.0 389.0,-27.99999999999997 389.5,-29.0 390.0,-29.99999999999997 390.5,-31.0 391.0,-31.99999999999997 391.5,-33.0 392.0,-34.0 392.5,-35.0 393.0,-36.0 393.5,-37.0 394.0,-38.0 394.5,-39.0 395.0,-40.0 395.5,-41.0 396.0,-42.0 396.5,-43.00000000000003 397.0,-44.0 397.5,-45.00000000000003 398.0,-46.0 398.5,-47.00000000000003 399.0,-48.0 399.5,-49.00000000000003 400.0,-50.0" fill="none" stroke="green" stroke-width="1.5" />
    <polyline points="0,50.0 0.5,50.25 1.0,50.5 1.5,50.74999999999997 2.0,51.0 2.5,51.25 3.0,51.5 3.5,51.75 4.0,52.0 4.5,52.25 5.0,52.5 5.5,52.75 6.0,53.0 6.5,53.25 7.0,53.5 7.5,53.75 8.0,54.0 8.5,54.25 9.0,54.5 9.5,54.75 10.0,55.0 10.5,55.25 11.0,55.50000000000003 11.5,55.75 12.0,56.0 12.5,56.25 13.0,56.5 13.5,56.75 14.0,56.99999999999997 14.5,57.25 15.0,57.5 15.5,57.75 16.0,58.0 16.5,58.25 17.0,58.5 17.5,58.75 18.0,59.0 18.5,59.25 19.0,59.5 19.5,59.75 20.0,60.0 20.5,60.25 21.0,60.5 21.5,60.75 22.0,61.0 22.5,61.25 23.0,61.5 23.5,61.75000000000003 24.0,62.0 24.5,62.25 25.0,62.5 25.5,62.75 26.0,63.0 26.5,63.24999999999997 27.0,63.5 27.5,63.75 28.0,64.0 28.5,64.25 29.0,64.5 29.5,64.75 30.0,65.0 30.5,65.25 31.0,65.5 31.5,65.75 32.0,66.0 32.5,66.25 33.0,66.5 33.5,66.75 34.0,67.0 34.5,67.25 35.0,67.5 35.5,67.75 36.0,68.00000000000003 36.5,68.25 37.0,68.5 37.5,68.75 38.0,69.0 38.5,69.25 39.0,69.49999999999997 39.5,69.75 40.0,70.0 40.5,70.25 41.0,70.5 41.5,70.75 42.0,71.0 42.5,71.25 43.0,71.5 43.5,71.75 44.0,72.0 44.5,72.25000000000001 45.0,72.50000000000001 45.5,72.75 46.0,73.0 46.5,73.25 47.0,73.49999999999999 47.5,73.75 48.0,74.0 48.5,74.25000000000001 49.0,74.50000000000001 49.5,74.75 50.0,75.0 50.5,75.25 51.0,75.49999999999999 51.5,75.74999999999999 52.0,76.0 52.5,76.25 53.0,76.50000000000001 53.5,76.75 54.0,77.0 54.5,77.25 55.0,77.49999999999999 55.5,77.74999999999999 56.0,78.0 56.5,78.25 57.0,78.50000000000001 57.5,78.75000000000001 58.0,79.0 58.5,79.25 59.0,79.5 59.5,79.74999999999999 60.0,80.0 60.5,80.25 61.0,80.50000000000001 61.5,80.75000000000001 62.0,81.0 62.5,81.25 63.0,81.5 63.5,81.74999999999999 64.0,81.99999999999999 64.5,82.25 65.0,82.5 65.5,82.75000000000001 66.0,83.0 66.5,83.25 67.0,83.5 67.5,83.74999999999999 68.0,83.99999999999999 68.5,84.25 69.0,84.5 69.5,84.75000000000001 70.0,85.00000000000001 70.5,85.25 71.0,85.5 71.5,85.75 72.0,85.99999999999999 72.5,86.25 73.0,86.5 73.5,86.75000000000001 74.0,87.00000000000001 74.5,87.25 75.0,87.5 75.5,87.75 76.0,87.99999999999999 76.5,88.24999999999999 77.0,88.5 77.5,88.75 78.0,89.00000000000001 78.5,89.25 79.0,89.5 79.5,89.75 80.0,89.99999999999999 80.5,90.24999999999999 81.0,90.5 81.5,90.75 82.0,91.00000000000001 82.5,91.25000000000001 83.0,91.5 83.5,91.75 84.0,92.0 84.5,92.24999999999999 85.0,92.5 85.5,92.75 86.0,93.00000000000001 86.5,93.25000000000001 87.0,93.5 87.5,93.75 88.0,94.0 88.5,94.24999999999999 89.0,94.49999999999999 89.5,94.75 90.0,95.0 90.5,95.25000000000001 91.0,95.5 91.5,95.75 92.0,96.0 92.5,96.24999999999999 93.0,96.49999999999999 93.5,96.75 94.0,97.0 94.5,97.25000000000001 95.0,97.50000000000001 95.5,97.75 96.0,98.0 96.5,98.25 97.0,98.49999999999999 97.5,98.75 98.0,99.0 98.5,99.25000000000001 99.0,99.50000000000001 99.5,99.75 100.0,100.0 100.5,100.25 101.0,100.5 101.5,100.75 102.0,101.0 102.5,101.25 103.0,101.5 103.5,101.75 104.0,102.0 104.5,102.25 105.0,102.5 105.5,102.75000000000001 106.0,103.0 106.5,103.25 107.0,103.49999999999999 107.5,103.75 108.0,104.0 108.5,104.25 109.0,104.5 109.5,104.75 110.0,105.0 110.5,105.25 111.0,105.5 111.5,105.75 112.0,106.0 112.5,106.25 113.0,106.5 113.5,106.75 114.0,107.0 114.5,107.25 115.0,107.5 115.5,107.75 116.0,108.0 116.5,108.25 117.0,108.5 117.5,108.75 118.0,109.00000000000001 118.5,109.25 119.0,109.5 119.5,109.74999999999999 120.0,110.0 120.5,110.25 121.0,110.5 121.5,110.75 122.0,111.0 122.5,111.25 123.0,111.5 123.5,111.75 124.0,112.0 124.5,112.25 125.0,112.5 125.5,112.75 126.0,113.0 126.5,113.25 127.0,113.5 127.5,113.75 128.0,114.0 128.5,114.25 129.0,114.5 129.5,114.75 130.0,115.0 130.5,115.25000000000001 131.0,115.5 131.5,115.75 132.0,115.99999999999999 132.5,116.25 133.0,116.5 133.5,116.75 134.0,117.0 134.5,117.25 135.0,117.5 135.5,117.75 136.0,118.0 136.5,118.25 137.0,118.5 137.5,118.75 138.0,119.0 138.5,119.25 139.0,119.5 139.5,119.75 140.0,120.0 140.5,120.25 141.0,120.5 141.5,120.75 142.0,121.0 142.5,121.25 143.0,121.50000000000001 143.5,121.75 144.0,122.0 144.5,122.24999999999999 145.0,122.5 145.5,122.75 146.0,123.0 146.5,123.25 147.0,123.5 147.5,123.75 148.0,124.0 148.5,124.25 149.0,124.5 149.5,124.75 150.0,125.0 150.5,125.25 151.0,125.5 151.5,125.75 152.0,126.0 152.5,126.25 153.0,126.5 153.5,126.75 154.0,127.0 154.5,127.25 155.0,127.5 155.5,127.75 156.0,128.0 156.5,128.25 157.0,128.5 157.5,128.75 158.0,129.0 158.5,129.25 159.0,129.5 159.5,129.75 160.0,130.0 160.5,130.25 161.0,130.5 161.5,130.75 162.0,131.0 162.5,131.25 163.0,131.5 163.5,131.75 164.0,132.0 164.5,132.25 165.0,132.5 165.5,132.75 166.0,133.0 166.5,133.25 167.0,133.5 167.5,133.75 168.0,134.0 168.5,134.25 169.0,134.5 169.5,134.75 170.0,135.0 170.5,135.25 171.0,135.5 171.5,135.75 172.0,136.0 172.5,136.25 173.0,136.5 173.5,136.75 174.0,137.0 174.5,137.25 175.0,137.5 175.5,137.75 176.0,138.0 176.5,138.25 177.0,138.5 177.5,138.75 178.0,139.0 178.5,139.25 179.0,139.5 179.5,139.75 180.0,140.0 180.5,140.25 181.0,140.5 181.5,140.75 182.0,141.0 182.5,141.25 183.0,141.5 183.5,141.75 184.0,142.0 184.5,142.25 185.0,142.5 185.5,142.75 186.0,143.0 186.5,143.25 187.0,143.5 187.5,143.75 188.0,144.0 188.5,144.25 189.0,144.5 189.5,144.75 190.0,145.0 190.5,145.25 191.0,145.5 191.5,145.75 192.0,146.0 192.5,146.25 193.0,146.5 193.5,146.75 194.0,147.0 194.5,147.25 195.0,147.5 195.5,147.75 196.0,148.0 196.5,148.25 197.0,148.5 197.5,148.75 198.0,149.0 198.5,149.25 199.0,149.5 199.5,149.75 200.0,150.0 200.5,150.25 201.0,150.5 201.5,150.75 202.0,151.0 202.5,151.25 203.0,151.5 203.5,151.75 204.0,152.0 204.5,152.25 205.0,152.5 205.5,152.75 206.0,153.0 206.5,153.25 207.0,153.5 207.5,153.75 208.0,154.0 208.5,154.25 209.0,154.5 209.5,154.75 210.0,155.0 210.5,155.25 211.0,155.5 211.5,155.75 212.0,156.0 212.5,156.25 213.0,156.5 213.5,156.75 214.0,157.0 214.5,157.25 215.0,157.5 215.5,157.75 216.0,158.0 216.5,158.25 217.0,158.5 217.5,158.75 218.0,159.0 218.5,159.25 219.0,159.5 219.5,159.75 220.0,160.0 220.5,160.25 221.0,160.5 221.5,160.75 222.0,161.0 222.5,161.25 223.0,161.5 223.5,161.75 224.0,162.0 224.5,162.25 225.0,162.5 225.5,162.75 226.0,163.0 226.5,163.25 227.0,163.5 227.5,163.75 228.0,164.0 228.5,164.25 229.0,164.5 229.5,164.75 230.0,165.0 230.5,165.25 231.0,165.5 231.5,165.75 232.0,166.0 232.5,166.25 233.0,166.5 233.5,166.75 234.0,167.0 234.5,167.25 235.0,167.5 235.5,167.75 236.0,168.0 236.5,168.25 237.0,168.5 237.5,168.75 238.0,169.0 238.5,169.25 239.0,169.5 239.5,169.75 240.0,170.0 240.5,170.25 241.0,170.5 241.5,170.75 242.0,171.0 242.5,171.25 243.0,171.5 243.5,171.75 244.0,172.0 244.5,172.25 245.0,172.5 245.5,172.75 246.0,173.0 246.5,173.25 247.0,173.5 247.5,173.75 248.0,174.0 248.5,174.25 249.0,174.5 249.5,174.75 250.0,175.0 250.5,175.25 251.0,175.5 251.5,175.75 252.0,176.0 252.5,176.25 253.0,176.5 253.5,176.75 254.0,177.0 254.5,177.25 255.0,177.5 255.5,177.75 256.0,178.0 256.5,178.25 257.0,178.5 257.5,178.75 258.0,179.0 258.5,179.25 259.0,179.5 259.5,179.75 260.0,180.0 260.5,180.25 261.0,180.5 261.5,180.75 262.0,181.0 262.5,181.25 263.0,181.5 263.5,181.75 264.0,182.0 264.5,182.25 265.0,182.5 265.5,182.75 266.0,183.0 266.5,183.25 267.0,183.5 267.5,183.75 268.0,184.0 268.5,184.25 269.0,184.5 269.5,184.75 270.0,185.0 270.5,185.25 271.0,185.5 271.5,185.75 272.0,186.0 272.5,186.25 273.0,186.5 273.5,186.75 274.0,187.0 274.5,187.25 275.0,187.5 275.5,187.75 276.0,188.0 276.5,188.25 277.0,188.5 277.5,188.75 278.0,189.0 278.5,189.25 279.0,189.5 279.5,189.75 280.0,190.0 280.5,190.25 281.0,190.5 281.5,190.75 282.0,191.0 282.5,191.25 283.0,191.5 283.5,191.75 284.0,192.0 284.5,192.25 285.0,192.5 285.5,192.75 286.0,193.0 286.5,193.25 287.0,193.5 287.5,193.75 288.0,194.0 288.5,194.25 289.0,194.5 289.5,194.75 290.0,195.0 290.5,195.25 291.0,195.5 291.5,195.75 292.0,196.0 292.5,196.25 293.0,196.5 293.5,196.75 294.0,197.0 294.5,197.25 295.0,197.5 295.5,197.75 296.0,198.0 296.5,198.25 297.0,198.5 297.5,198.75 298.0,199.0 298.5,199.25 299.0,199.5 299.5,199.75 300.0,200.0 300.5,200.25 301.0,200.5 301.5,200.75 302.0,201.0 302.5,201.25 303.0,201.5 303.5,201.75 304.0,202.0 304.5,202.25 305.0,202.5 305.5,202.75 306.0,203.0 306.5,203.25 307.0,203.5 307.5,203.75 308.0,204.0 308.5,204.25 309.0,204.5 309.5,204.75 310.0,205.0 310.5,205.25 311.0,205.5 311.5,205.75 312.0,206.0 312.5,206.25 313.0,206.5 313.5,206.75 314.0,207.0 314.5,207.25 315.0,207.5 315.5,207.75 316.0,208.0 316.5,208.25 317.0,208.5 317.5,208.75 318.0,209.0 318.5,209.25 319.0,209.5 319.5,209.75 320.0,210.0 320.5,210.25 321.0,210.5 321.5,210.75 322.0,211.0 322.5,211.25 323.0,211.5 323.5,211.75 324.0,212.0 324.5,212.25 325.0,212.5 325.5,212.75 326.0,213.0 326.5,213.25 327.0,213.5 327.5,213.75 328.0,214.0 328.5,214.25 329.0,214.5 329.5,214.75 330.0,215.0 330.5,215.25 331.0,215.5 331.5,215.75 332.0,216.0 332.5,216.25 333.0,216.5 333.5,216.75 334.0,217.0 334.5,217.25 335.0,217.5 335.5,217.75 336.0,218.0 336.5,218.25 337.0,218.5 337.5,218.75 338.0,219.0 338.5,219.25 339.0,219.5 339.5,219.75 340.0,220.0 340.5,220.25 341.0,220.5 341.5,220.75 342.0,221.0 342.5,221.25 343.0,221.5 343.5,221.75 344.0,222.0 344.5,222.25 345.0,222.5 345.5,222.75 346.0,223.0 346.5,223.25 347.0,223.5 347.5,223.75 348.0,224.0 348.5,224.25 349.0,224.5 349.5,224.75 350.0,225.0 350.5,225.25 351.0,225.5 351.5,225.75 352.0,226.0 352.5,226.25 353.0,226.5 353.5,226.75 354.0,227.0 354.5,227.25 355.0,227.5 355.5,227.75 356.0,228.0 356.5,228.25 357.0,228.5 357.5,228.75 358.0,229.0 358.5,229.25 359.0,229.5 359.5,229.75 360.0,230.0 360.5,230.25 361.0,230.5 361.5,230.75 362.0,231.0 362.5,231.25 363.0,231.5 363.5,231.75 364.0,232.0 364.5,232.25 365.0,232.5 365.5,232.75 366.0,233.0 366.5,233.25 367.0,233.5 367.5,233.75 368.0,234.0 368.5,234.25 369.0,234.5 369.5,234.75 370.0,235.0 370.5,235.25 371.0,235.5 371.5,235.75 372.0,236.0 372.5,236.25 373.0,236.5 373.5,236.75 374.0,237.0 374.5,237.25 375.0,237.5 375.5,237.75 376.0,238.0 376.5,238.25 377.0,238.5 377.5,238.75 378.0,239.0 378.5,239.25 379.0,239.5 379.5,239.75 380.0,240.0 380.5,240.25 381.0,240.5 381.5,240.75 382.0,241.0 382.5,241.25 383.0,241.5 383.5,241.75 384.0,242.0 384.5,242.25 385.0,242.5 385.5,242.75 386.0,243.0 386.5,243.25 387.0,243.5 387.5,243.75 388.0,244.0 388.5,244.25 389.0,244.5 389.5,244.75 390.0,245.0 390.5,245.25 391.0,245.5 391.5,245.75 392.0,246.0 392.5,246.25 393.0,246.5 393.5,246.75 394.0,247.0 394.5,247.25 395.0,247.5 395.5,247.75 396.0,248.0 396.5,248.25 397.0,248.5 397.5,248.75 398.0,249.0 398.5,249.25 399.0,249.5 399.5,249.75 400.0,250.0" fill="none" stroke="blue" stroke-width="1.5" />
    <polyline points="0,800.0 0.5,798.5 1.0,797.0 1.5,795.5 2.0,794.0 2.5,792.5000000000001 3.0,791.0 3.5,789.5 4.0,788.0 4.5,786.5 5.0,785.0 5.5,783.5 6.0,782.0 6.5,780.5 7.0,779.0 7.5,777.5 8.0,776.0 8.5,774.5 9.0,773.0 9.5,771.5 10.0,769.9999999999999 10.5,768.5 11.0,767.0 11.5,765.5 12.0,764.0 12.5,762.5 13.0,761.0 13.5,759.5 14.0,758.0 14.5,756.5 15.0,755.0000000000001 15.5,753.5 16.0,752.0 16.5,750.5 17.0,749.0 17.5,747.5 18.0,746.0 18.5,744.5 19.0,743.0 19.5,741.5 20.0,740.0 20.5,738.5 21.0,737.0 21.5,735.5 22.0,734.0 22.5,732.4999999999999 23.0,731.0 23.5,729.5 24.0,728.0 24.5,726.5 25.0,725.0 25.5,723.5 26.0,722.0 26.5,720.5 27.0,719.0 27.5,717.5000000000001 28.0,716.0 28.5,714.5 29.0,713.0 29.5,711.5 30.0,710.0 30.5,708.5 31.0,707.0 31.5,705.5 32.0,704.0 32.5,702.5 33.0,701.0 33.5,699.5 34.0,698.0 34.5,696.5 35.0,695.0 35.5,693.5 36.0,692.0 36.5,690.5 37.0,689.0 37.5,687.5 38.0,686.0 38.5,684.5 39.0,683.0 39.5,681.5 40.0,680.0 40.5,678.5 41.0,677.0 41.5,675.5 42.0,674.0 42.5,672.5 43.0,671.0 43.5,669.5 44.0,668.0 44.5,666.5 45.0,665.0 45.5,663.5 46.0,662.0 46.5,660.5 47.0,659.0 47.5,657.5 48.0,656.0 48.5,654.5 49.0,653.0 49.5,651.5 50.0,650.0 50.5,648.5 51.0,647.0 51.5,645.5 52.0,644.0 52.5,642.5 53.0,641.0 53.5,639.5 54.0,638.0 54.5,636.5 55.0,635.0 55.5,633.5 56.0,632.0 56.5,630.5 57.0,629.0 57.5,627.5 58.0,626.0 58.5,624.5 59.0,623.0 59.5,621.5 60.0,620.0 60.5,618.5 61.0,617.0 61.5,615.5 62.0,614.0 62.5,612.5 63.0,611.0 63.5,609.5 64.0,608.0 64.5,606.5 65.0,605.0 65.5,603.5 66.0,602.0 66.5,600.5 67.0,599.0 67.5,597.5 68.0,596.0 68.5,594.5 69.0,593.0 69.5,591.5 70.0,590.0 70.5,588.5 71.0,587.0 71.5,585.5 72.0,584.0 72.5,582.5 73.0,581.0 73.5,579.5 74.0,578.0 74.5,576.5 75.0,575.0 75.5,573.5 76.0,572.0 76.5,570.5 77.0,569.0 77.5,567.5 78.0,566.0 78.5,564.5 79.0,563.0 79.5,561.5 80.0,560.0 80.5,558.5 81.0,557.0 81.5,555.5 82.0,554.0 82.5,552.5 83.0,551.0 83.5,549.5 84.0,548.0 84.5,546.5 85.0,545.0 85.5,543.5 86.0,542.0 86.5,540.5 87.0,539.0 87.5,537.5 88.0,536.0 88.5,534.5 89.0,533.0 89.5,531.5 90.0,530.0 90.5,528.5 91.0,527.0 91.5,525.5 92.0,524.0 92.5,522.5 93.0,521.0 93.5,519.5 94.0,518.0 94.5,516.5 95.0,515.0 95.5,513.5 96.0,512.0 96.5,510.49999999999994 97.0,509.0 97.5,507.5 98.0,506.0 98.5,504.5 99.0,503.0 99.5,501.49999999999994 100.0,500.0 100.5,498.5 101.0,497.0 101.5,495.5 102.0,494.0 102.5,492.5 103.0,491.0 103.5,489.5 104.0,488.0 104.5,486.5 105.0,484.99999999999994 105.5,483.5 106.0,482.0 106.5,480.5 107.0,479.0 107.5,477.50000000000006 108.0,476.0 108.5,474.5 109.0,473.0 109.5,471.5 110.0,470.0 110.5,468.5 111.0,467.0 111.5,465.5 112.0,464.0 112.5,462.5 113.0,461.0 113.5,459.5 114.0,458.0 114.5,456.5 115.0,455.0 115.5,453.5 116.0,452.0 116.5,450.5 117.0,449.0 117.5,447.5 118.0,446.0 118.5,444.5 119.0,443.0 119.5,441.5 120.0,440.0 120.5,438.5 121.0,437.0 121.5,435.5 122.0,434.0 122.5,432.5 123.0,431.0 123.5,429.5 124.0,428.0 124.5,426.5 125.0,425.0 125.5,423.5 126.0,422.0 126.5,420.5 127.0,419.0 127.5,417.5 128.0,416.0 128.5,414.5 129.0,413.0 129.5,411.5 130.0,410.0 130.5,408.5 131.0,407.0 131.5,405.5 132.0,404.0 132.5,402.5 133.0,401.0 133.5,399.5 134.0,398.0 134.5,396.5 135.0,395.0 135.5,393.5 136.0,392.0 136.5,390.5 137.0,389.0 137.5,387.5 138.0,386.0 138.5,384.5 139.0,383.0 139.5,381.5 140.0,380.0 140.5,378.5 141.0,377.0 141.5,375.5 142.0,374.0 142.5,372.5 143.0,371.0 143.5,369.5 144.0,368.0 144.5,366.5 145.0,365.0 145.5,363.5 146.0,362.0 146.5,360.5 147.0,359.0 147.5,357.5 148.0,356.0 148.5,354.5 149.0,353.0 149.5,351.5 150.0,350.0 150.5,348.5 151.0,347.0 151.5,345.5 152.0,344.0 152.5,342.5 153.0,341.0 153.5,339.5 154.0,338.0 154.5,336.5 155.0,335.0 155.5,333.5 156.0,332.0 156.5,330.5 157.0,329.0 157.5,327.5 158.0,326.0 158.5,324.5 159.0,323.0 159.5,321.5 160.0,320.0 160.5,318.5 161.0,317.0 161.5,315.5 162.0,314.0 162.5,312.5 163.0,311.0 163.5,309.5 164.0,308.0 164.5,306.5 165.0,305.0 165.5,303.5 166.0,302.0 166.5,300.5 167.0,299.0 167.5,297.5 168.0,296.0 168.5,294.5 169.0,293.0 169.5,291.5 170.0,290.0 170.5,288.5 171.0,287.0 171.5,285.5 172.0,284.0 172.5,282.5 173.0,281.0 173.5,279.5 174.0,278.0 174.5,276.5 175.0,275.0 175.5,273.5 176.0,272.0 176.5,270.5 177.0,269.0 177.5,267.5 178.0,266.0 178.5,264.5 179.0,263.0 179.5,261.5 180.0,260.0 180.5,258.5 181.0,257.0 181.5,255.5 182.0,254.0 182.5,252.5 183.0,251.0 183.5,249.5 184.0,248.0 184.5,246.5 185.0,245.0 185.5,243.5 186.0,242.0 186.5,240.5 187.0,239.0 187.5,237.5 188.0,236.0 188.5,234.5 189.0,233.0 189.5,231.5 190.0,230.0 190.5,228.5 191.0,227.0 191.5,225.5 192.0,224.0 192.5,222.5 193.0,221.0 193.5,219.5 194.0,218.0 194.5,216.5 195.0,215.0 195.5,213.5 196.0,212.0 196.5,210.5 197.0,209.0 197.5,207.5 198.0,206.0 198.5,204.5 199.0,203.0 199.5,201.5 200.0,200.0 200.5,198.5 201.0,197.0 201.5,195.5 202.0,194.0 202.5,192.5 203.0,191.0 203.5,189.5 204.0,188.0 204.5,186.5 205.0,185.0 205.5,183.5 206.0,182.0 206.5,180.5 207.0,179.0 207.5,177.5 208.0,176.0 208.5,174.5 209.0,173.0 209.5,171.5 210.0,170.0 210.5,168.5 211.0,167.0 211.5,165.5 212.0,164.0 212.5,162.5 213.0,161.0 213.5,159.5 214.0,158.0 214.5,156.5 215.0,155.0 215.5,153.5 216.0,152.0 216.5,150.5 217.0,149.0 217.5,147.5 218.0,146.0 218.5,144.5 219.0,143.0 219.5,141.5 220.0,140.0 220.5,138.5 221.0,137.0 221.5,135.5 222.0,134.0 222.5,132.5 223.0,131.0 223.5,129.5 224.0,128.0 224.5,126.5 225.0,125.0 225.5,123.5 226.0,122.0 226.5,120.5 227.0,119.0 227.5,117.5 228.0,115.99999999999999 228.5,114.5 229.0,113.00000000000001 229.5,111.5 230.0,110.00000000000001 230.5,108.5 231.0,107.0 231.5,105.5 232.0,104.0 232.5,102.49999999999999 233.0,101.0 233.5,99.49999999999999 234.0,98.0 234.5,96.50000000000001 235.0,95.00000000000001 235.5,93.5 236.0,92.0 236.5,90.5 237.0,89.00000000000001 237.5,87.5 238.0,85.99999999999999 238.5,84.5 239.0,83.0 239.5,81.5 240.0,79.99999999999999 240.5,78.49999999999999 241.0,77.0 241.5,75.50000000000001 242.0,74.0 242.5,72.50000000000001 243.0,71.0 243.5,69.5 244.0,68.0 244.5,66.5 245.0,65.0 245.5,63.5 246.0,62.0 246.5,60.5 247.0,59.0 247.5,57.50000000000003 248.0,56.0 248.5,54.5 249.0,53.0 249.5,51.5 250.0,50.0 250.5,48.5 251.0,47.0 251.5,45.5 252.0,44.0 252.5,42.49999999999997 253.0,41.0 253.5,39.5 254.0,38.0 254.5,36.49999999999997 255.0,35.0 255.5,33.5 256.0,31.99999999999997 256.5,30.50000000000003 257.0,29.0 257.5,27.5 258.0,26.00000000000003 258.5,24.5 259.0,23.0 259.5,21.5 260.0,20.00000000000003 260.5,18.5 261.0,17.0 261.5,15.5 262.0,14.0 262.5,12.5 263.0,11.0 263.5,9.5 264.0,8.0 264.5,6.5 265.0,4.999999999999972 265.5,3.5 266.0,2.0 266.5,0.5 267.0,-1.0000000000000284 267.5,-2.5000000000000284 268.0,-4.0 268.5,-5.500000000000028 269.0,-6.999999999999972 269.5,-8.5 270.0,-9.999999999999972 270.5,-11.499999999999972 271.0,-13.0 271.5,-14.5 272.0,-16.0 272.5,-17.49999999999997 273.0,-19.0 273.5,-20.5 274.0,-21.99999999999997 274.5,-23.5 275.0,-25.0 275.5,-26.5 276.0,-28.00000000000003 276.5,-29.5 277.0,-31.0 277.5,-32.50000000000003 278.0,-34.0 278.5,-35.5 279.0,-37.0 279.5,-38.50000000000003 280.0,-40.00000000000003 280.5,-41.5 281.0,-43.00000000000003 281.5,-44.49999999999997 282.0,-46.0 282.5,-47.49999999999997 283.0,-48.99999999999997 283.5,-50.5 284.0,-52.0 284.5,-53.5 285.0,-54.99999999999997 285.5,-56.5 286.0,-58.0 286.5,-59.5 287.0,-61.0 287.5,-62.5 288.0,-64.0 288.5,-65.5 289.0,-67.0 289.5,-68.5 290.0,-70.0 290.5,-71.5 291.0,-73.0 291.5,-74.5 292.0,-76.0 292.5,-77.50000000000006 293.0,-79.0 293.5,-80.5 294.0,-82.0 294.5,-83.5 295.0,-84.99999999999994 295.5,-86.5 296.0,-88.0 296.5,-89.5 297.0,-91.0 297.5,-92.5 298.0,-94.0 298.5,-95.5 299.0,-97.0 299.5,-98.5 300.0,-100.0 300.5,-101.49999999999994 301.0,-103.0 301.5,-104.5 302.0,-106.0 302.5,-107.5 303.0,-109.0 303.5,-110.49999999999994 304.0,-112.0 304.5,-113.5 305.0,-115.00000000000006 305.5,-116.5 306.0,-118.0 306.5,-119.5 307.0,-121.0 307.5,-122.49999999999994 308.0,-124.0 308.5,-125.5 309.0,-127.00000000000006 309.5,-128.5 310.0,-130.0 310.5,-131.5 311.0,-133.0 311.5,-134.5 312.0,-136.00000000000006 312.5,-137.5 313.0,-138.99999999999994 313.5,-140.5 314.0,-142.0 314.5,-143.5 315.0,-145.0 315.5,-146.5 316.0,-147.99999999999994 316.5,-149.5 317.0,-151.0 317.5,-152.50000000000006 318.0,-154.0 318.5,-155.5 319.0,-157.0 319.5,-158.5 320.0,-159.99999999999994 320.5,-161.5 321.0,-163.0 321.5,-164.50000000000006 322.0,-166.0 322.5,-167.5 323.0,-169.0 323.5,-170.5 324.0,-172.0 324.5,-173.50000000000006 325.0,-175.0 325.5,-176.49999999999994 326.0,-178.0 326.5,-179.5 327.0,-181.0 327.5,-182.5 328.0,-184.0 328.5,-185.49999999999994 329.0,-187.0 329.5,-188.5 330.0,-190.00000000000006 330.5,-191.5 331.0,-193.0 331.5,-194.5 332.0,-196.0 332.5,-197.49999999999994 333.0,-199.0 333.5,-200.5 334.0,-202.00000000000006 334.5,-203.5 335.0,-205.00000000000006 335.5,-206.49999999999994 336.0,-208.0 336.5,-209.5 337.0,-211.00000000000006 337.5,-212.5 338.0,-213.99999999999994 338.5,-215.5 339.0,-217.0 339.5,-218.50000000000006 340.0,-219.99999999999994 340.5,-221.5 341.0,-222.99999999999994 341.5,-224.5 342.0,-226.0 342.5,-227.50000000000006 343.0,-229.0 343.5,-230.5 344.0,-232.0 344.5,-233.5 345.0,-234.99999999999994 345.5,-236.5 346.0,-238.0 346.5,-239.50000000000006 347.0,-241.0 347.5,-242.50000000000006 348.0,-243.99999999999994 348.5,-245.5 349.0,-247.0 349.5,-248.50000000000006 350.0,-250.0 350.5,-251.49999999999994 351.0,-253.0 351.5,-254.5 352.0,-256.00000000000006 352.5,-257.49999999999994 353.0,-259.0 353.5,-260.49999999999994 354.0,-262.0 354.5,-263.5 355.0,-265.00000000000006 355.5,-266.5 356.0,-268.0 356.5,-269.5 357.0,-271.0 357.5,-272.49999999999994 358.0,-274.0 358.5,-275.5 359.0,-277.00000000000006 359.5,-278.5 360.0,-280.00000000000006 360.5,-281.49999999999994 361.0,-283.0 361.5,-284.5 362.0,-286.00000000000006 362.5,-287.5 363.0,-288.99999999999994 363.5,-290.5 364.0,-292.0 364.5,-293.50000000000006 365.0,-294.99999999999994 365.5,-296.5 366.0,-297.99999999999994 366.5,-299.5 367.0,-301.0 367.5,-302.50000000000006 368.0,-304.0 368.5,-305.5 369.0,-307.0 369.5,-308.5 370.0,-309.99999999999994 370.5,-311.5 371.0,-313.0 371.5,-314.5 372.0,-316.0 372.5,-317.5000000000001 373.0,-319.0 373.5,-320.5 374.0,-322.0 374.5,-323.5 375.0,-325.0 375.5,-326.5 376.0,-328.0 376.5,-329.5 377.0,-331.0 377.5,-332.4999999999999 378.0,-334.0 378.5,-335.5 379.0,-337.0 379.5,-338.5 380.0,-340.0 380.5,-341.5 381.0,-343.0 381.5,-344.5 382.0,-346.0 382.5,-347.5 383.0,-349.0 383.5,-350.5 384.0,-352.0 384.5,-353.5 385.0,-355.0000000000001 385.5,-356.5 386.0,-358.0 386.5,-359.5 387.0,-361.0 387.5,-362.5 388.0,-364.0 388.5,-365.5 389.0,-367.0 389.5,-368.5 390.0,-369.9999999999999 390.5,-371.5 391.0,-373.0 391.5,-374.5 392.0,-376.0 392.5,-377.5 393.0,-379.0 393.5,-380.5 394.0,-382.0 394.5,-383.5 395.0,-385.0 395.5,-386.5 396.0,-388.0 396.5,-389.5 397.0,-391.0 397.5,-392.5000000000001 398.0,-394.0 398.5,-395.5 399.0,-397.0 399.5,-398.5 400.0,-400.0" fill="none" stroke="pink" stroke-width="1.5" />
    <polyline points="0,-900.0 0.5,-897.0 1.0,-894.0 1.5,-891.0 2.0,-888.0 2.5,-885.0000000000002 3.0,-882.0 3.5,-879.0 4.0,-876.0 4.5,-873.0 5.0,-870.0 5.5,-867.0 6.0,-864.0 6.5,-861.0 7.0,-858.0 7.5,-855.0 8.0,-852.0 8.5,-849.0 9.0,-846.0 9.5,-843.0 10.0,-839.9999999999998 10.5,-837.0 11.0,-834.0 11.5,-831.0 12.0,-828.0 12.5,-825.0 13.0,-822.0000000000001 13.5,-819.0 14.0,-816.0 14.5,-812.9999999999999 15.0,-810.0000000000001 15.5,-807.0 16.0,-804.0000000000001 16.5,-801.0 17.0,-798.0 17.5,-794.9999999999999 18.0,-792.0 18.5,-789.0 19.0,-786.0 19.5,-783.0 20.0,-780.0000000000001 20.5,-777.0 21.0,-774.0 21.5,-770.9999999999999 22.0,-768.0 22.5,-764.9999999999999 23.0,-762.0000000000001 23.5,-759.0 24.0,-756.0 24.5,-752.9999999999999 25.0,-750.0 25.5,-747.0000000000001 26.0,-744.0 26.5,-741.0 27.0,-737.9999999999999 27.5,-735.0000000000001 28.0,-732.0 28.5,-729.0000000000001 29.0,-726.0 29.5,-723.0 30.0,-719.9999999999999 30.5,-717.0 31.0,-714.0 31.5,-711.0 32.0,-708.0 32.5,-705.0000000000001 33.0,-702.0 33.5,-699.0 34.0,-695.9999999999999 34.5,-693.0 35.0,-689.9999999999999 35.5,-687.0000000000001 36.0,-684.0 36.5,-681.0 37.0,-677.9999999999999 37.5,-675.0 38.0,-672.0000000000001 38.5,-669.0 39.0,-666.0 39.5,-662.9999999999999 40.0,-660.0000000000001 40.5,-657.0 41.0,-654.0000000000001 41.5,-651.0 42.0,-648.0 42.5,-644.9999999999999 43.0,-642.0 43.5,-639.0 44.0,-636.0 44.5,-633.0 45.0,-630.0000000000001 45.5,-627.0 46.0,-624.0 46.5,-620.9999999999999 47.0,-618.0 47.5,-614.9999999999999 48.0,-612.0000000000001 48.5,-609.0 49.0,-606.0 49.5,-602.9999999999999 50.0,-600.0 50.5,-597.0000000000001 51.0,-594.0 51.5,-591.0 52.0,-587.9999999999999 52.5,-585.0000000000001 53.0,-582.0 53.5,-579.0000000000001 54.0,-576.0 54.5,-573.0 55.0,-569.9999999999999 55.5,-567.0 56.0,-564.0 56.5,-561.0 57.0,-558.0 57.5,-555.0000000000001 58.0,-552.0 58.5,-549.0 59.0,-545.9999999999999 59.5,-543.0 60.0,-539.9999999999999 60.5,-537.0000000000001 61.0,-534.0 61.5,-531.0 62.0,-527.9999999999999 62.5,-525.0 63.0,-522.0000000000001 63.5,-519.0 64.0,-516.0 64.5,-512.9999999999999 65.0,-510.0000000000001 65.5,-507.0 66.0,-504.0000000000001 66.5,-501.0 67.0,-498.0 67.5,-494.9999999999999 68.0,-492.0 68.5,-489.0 69.0,-486.0 69.5,-483.0 70.0,-480.0000000000001 70.5,-477.0 71.0,-474.0 71.5,-470.9999999999999 72.0,-468.0 72.5,-465.0 73.0,-462.0 73.5,-459.0 74.0,-456.0 74.5,-452.9999999999999 75.0,-450.0 75.5,-447.0000000000001 76.0,-444.0 76.5,-441.0 77.0,-438.0 77.5,-435.0 78.0,-432.0 78.5,-429.0000000000001 79.0,-426.0 79.5,-423.0 80.0,-419.9999999999999 80.5,-417.0 81.0,-414.0 81.5,-411.0 82.0,-408.0 82.5,-405.0000000000001 83.0,-402.0 83.5,-399.0 84.0,-395.9999999999999 84.5,-393.0 85.0,-390.0 85.5,-387.0 86.0,-384.0 86.5,-381.0 87.0,-377.9999999999999 87.5,-375.0 88.0,-372.0000000000001 88.5,-369.0 89.0,-366.0 89.5,-363.0 90.0,-360.0 90.5,-357.0 91.0,-354.0000000000001 91.5,-351.0 92.0,-348.0 92.5,-344.9999999999999 93.0,-342.0 93.5,-339.0 94.0,-336.0 94.5,-333.0 95.0,-330.0000000000001 95.5,-327.0 96.0,-324.0 96.5,-320.9999999999999 97.0,-318.0 97.5,-315.0 98.0,-312.0 98.5,-309.0 99.0,-306.00000000000006 99.5,-302.99999999999994 100.0,-300.0 100.5,-297.0 101.0,-293.99999999999994 101.5,-291.0 102.0,-288.0 102.5,-284.99999999999994 103.0,-282.0 103.5,-279.0 104.0,-276.0 104.5,-272.99999999999994 105.0,-269.99999999999994 105.5,-267.0 106.0,-263.99999999999994 106.5,-261.00000000000006 107.0,-258.0 107.5,-255.00000000000006 108.0,-252.00000000000006 108.5,-249.0 109.0,-246.0 109.5,-243.0 110.0,-240.00000000000006 110.5,-237.0 111.0,-234.0 111.5,-231.00000000000006 112.0,-228.0 112.5,-225.0 113.0,-222.0 113.5,-218.99999999999994 114.0,-216.0 114.5,-213.0 115.0,-209.99999999999994 115.5,-207.0 116.0,-204.0 116.5,-201.0 117.0,-197.99999999999994 117.5,-194.99999999999994 118.0,-192.0 118.5,-188.99999999999994 119.0,-186.00000000000006 119.5,-183.0 120.0,-180.00000000000006 120.5,-177.00000000000006 121.0,-174.0 121.5,-171.0 122.0,-168.0 122.5,-165.00000000000006 123.0,-162.0 123.5,-159.0 124.0,-156.00000000000006 124.5,-153.0 125.0,-150.0 125.5,-147.0 126.0,-143.99999999999994 126.5,-141.0 127.0,-138.0 127.5,-134.99999999999994 128.0,-132.0 128.5,-129.0 129.0,-126.0 129.5,-122.99999999999994 130.0,-119.99999999999994 130.5,-117.0 131.0,-113.99999999999994 131.5,-111.00000000000006 132.0,-108.0 132.5,-105.00000000000006 133.0,-102.00000000000006 133.5,-99.0 134.0,-96.0 134.5,-93.0 135.0,-90.00000000000006 135.5,-87.0 136.0,-84.0 136.5,-81.0 137.0,-78.0 137.5,-75.0 138.0,-72.0 138.5,-69.0 139.0,-66.0 139.5,-63.0 140.0,-59.99999999999994 140.5,-57.0 141.0,-54.0 141.5,-50.99999999999997 142.0,-47.99999999999994 142.5,-44.99999999999997 143.0,-42.0 143.5,-38.99999999999997 144.0,-36.00000000000003 144.5,-33.0 145.0,-30.00000000000003 145.5,-27.000000000000057 146.0,-24.00000000000003 146.5,-21.0 147.0,-18.00000000000003 147.5,-15.000000000000028 148.0,-12.0 148.5,-9.0 149.0,-6.0 149.5,-3.0000000000000284 150.0,0.0 150.5,3.0000000000000284 151.0,6.0 151.5,9.0 152.0,12.0 152.5,15.000000000000028 153.0,18.00000000000003 153.5,21.0 154.0,23.99999999999997 154.5,27.0 155.0,29.99999999999997 155.5,33.0 156.0,36.0 156.5,39.0 157.0,42.0 157.5,45.00000000000003 158.0,48.0 158.5,51.00000000000003 159.0,54.0 159.5,56.99999999999997 160.0,59.99999999999997 160.5,63.0 161.0,66.0 161.5,69.0 162.0,71.99999999999997 162.5,75.0 163.0,78.00000000000003 163.5,81.0 164.0,83.99999999999999 164.5,87.00000000000001 165.0,90.00000000000003 165.5,93.00000000000001 166.0,96.0 166.5,98.99999999999997 167.0,102.0 167.5,104.99999999999999 168.0,108.0 168.5,110.99999999999999 169.0,114.00000000000001 169.5,117.0 170.0,120.00000000000001 170.5,123.0 171.0,126.00000000000003 171.5,129.0 172.0,132.0 172.5,135.0 173.0,138.0 173.5,141.0 174.0,144.0 174.5,147.0 175.0,150.0 175.5,153.0 176.0,156.0 176.5,159.0 177.0,162.0 177.5,165.0 178.0,168.0 178.5,171.0 179.0,174.0 179.5,177.0 180.0,179.99999999999997 180.5,183.0 181.0,186.0 181.5,189.0 182.0,192.0 182.5,195.00000000000003 183.0,198.0 183.5,201.0 184.0,204.0 184.5,207.0 185.0,210.0 185.5,213.0 186.0,216.0 186.5,219.0 187.0,222.0 187.5,225.0 188.0,228.0 188.5,231.0 189.0,234.0 189.5,237.0 190.0,240.0 190.5,243.0 191.0,246.0 191.5,249.0 192.0,252.0 192.5,255.0 193.0,258.0 193.5,261.0 194.0,264.0 194.5,267.0 195.0,270.0 195.5,273.0 196.0,276.0 196.5,279.0 197.0,282.0 197.5,285.0 198.0,288.0 198.5,291.0 199.0,294.0 199.5,297.0 200.0,300.0 200.5,303.0 201.0,306.0 201.5,309.0 202.0,312.0 202.5,315.0 203.0,318.0 203.5,321.0 204.0,324.0 204.5,327.0 205.0,330.0 205.5,333.0 206.0,336.0 206.5,339.0 207.0,342.0 207.5,345.0 208.0,348.0 208.5,351.0 209.0,354.0 209.5,357.0 210.0,360.0 210.5,363.0 211.0,366.0 211.5,369.0 212.0,372.0 212.5,375.0 213.0,378.0 213.5,381.0 214.0,384.0 214.5,387.0 215.0,390.0 215.5,393.0 216.0,396.0 216.5,399.0 217.0,402.0 217.5,405.0 218.0,408.0 218.5,411.0 219.0,414.0 219.5,417.0 220.0,420.0 220.5,423.0 221.0,426.0 221.5,429.0 222.0,432.0 222.5,435.0 223.0,438.0 223.5,441.0 224.0,444.0 224.5,447.0 225.0,450.0 225.5,453.0 226.0,456.0 226.5,459.0 227.0,462.0 227.5,465.00000000000006 228.0,468.0 228.5,471.0 229.0,474.0 229.5,477.0 230.0,480.0 230.5,483.0 231.0,486.0 231.5,489.0 232.0,492.0 232.5,495.0 233.0,498.0 233.5,501.0 234.0,504.0 234.5,507.0 235.0,509.99999999999994 235.5,513.0 236.0,516.0 236.5,519.0 237.0,522.0 237.5,525.0 238.0,528.0 238.5,531.0 239.0,534.0 239.5,537.0 240.0,540.0 240.5,543.0 241.0,546.0 241.5,549.0 242.0,552.0 242.5,555.0 243.0,558.0 243.5,561.0 244.0,564.0 244.5,567.0 245.0,570.0 245.5,573.0 246.0,576.0 246.5,579.0 247.0,582.0 247.5,585.0 248.0,588.0 248.5,591.0 249.0,594.0 249.5,597.0 250.0,600.0 250.5,603.0 251.0,606.0 251.5,609.0 252.0,612.0 252.5,615.0 253.0,618.0 253.5,621.0 254.0,624.0 254.5,627.0 255.0,630.0 255.5,633.0 256.0,636.0 256.5,639.0 257.0,642.0 257.5,645.0 258.0,648.0 258.5,651.0 259.0,654.0 259.5,657.0 260.0,660.0 260.5,663.0 261.0,666.0 261.5,669.0 262.0,672.0 262.5,675.0 263.0,678.0 263.5,681.0 264.0,684.0 264.5,687.0 265.0,690.0 265.5,693.0 266.0,696.0 266.5,699.0 267.0,702.0 267.5,705.0 268.0,708.0 268.5,711.0 269.0,714.0 269.5,717.0 270.0,719.9999999999999 270.5,723.0 271.0,726.0 271.5,729.0 272.0,732.0 272.5,735.0 273.0,738.0 273.5,741.0 274.0,744.0 274.5,747.0 275.0,750.0 275.5,753.0 276.0,756.0 276.5,759.0 277.0,762.0 277.5,765.0 278.0,768.0 278.5,771.0 279.0,774.0 279.5,777.0 280.0,780.0000000000001 280.5,783.0 281.0,786.0 281.5,789.0 282.0,792.0 282.5,794.9999999999999 283.0,798.0 283.5,801.0 284.0,804.0 284.5,807.0 285.0,810.0 285.5,813.0 286.0,816.0 286.5,819.0 287.0,822.0 287.5,825.0 288.0,828.0 288.5,831.0 289.0,834.0 289.5,837.0 290.0,840.0 290.5,843.0 291.0,846.0 291.5,849.0 292.0,852.0 292.5,855.0000000000001 293.0,858.0 293.5,861.0 294.0,864.0 294.5,867.0 295.0,869.9999999999999 295.5,873.0 296.0,876.0 296.5,879.0 297.0,882.0 297.5,885.0 298.0,888.0 298.5,891.0 299.0,894.0 299.5,897.0 300.0,900.0 300.5,902.9999999999999 301.0,906.0 301.5,909.0 302.0,912.0 302.5,915.0 303.0,918.0 303.5,920.9999999999999 304.0,924.0 304.5,927.0 305.0,930.0000000000001 305.5,933.0 306.0,936.0 306.5,939.0 307.0,942.0 307.5,944.9999999999999 308.0,948.0 308.5,951.0 309.0,954.0000000000001 309.5,957.0 310.0,960.0 310.5,963.0 311.0,966.0 311.5,969.0 312.0,972.0000000000001 312.5,975.0 313.0,977.9999999999999 313.5,981.0 314.0,984.0 314.5,987.0 315.0,990.0 315.5,993.0 316.0,995.9999999999999 316.5,999.0 317.0,1002.0 317.5,1005.0000000000001 318.0,1008.0 318.5,1011.0 319.0,1014.0 319.5,1017.0 320.0,1019.9999999999999 320.5,1023.0 321.0,1026.0 321.5,1029.0 322.0,1032.0 322.5,1035.0 323.0,1038.0 323.5,1041.0 324.0,1044.0 324.5,1047.0 325.0,1050.0 325.5,1053.0 326.0,1056.0 326.5,1059.0 327.0,1062.0 327.5,1065.0 328.0,1068.0 328.5,1071.0 329.0,1074.0 329.5,1077.0 330.0,1080.0 330.5,1083.0 331.0,1086.0 331.5,1089.0 332.0,1092.0 332.5,1095.0 333.0,1098.0 333.5,1101.0 334.0,1104.0 334.5,1107.0 335.0,1110.0 335.5,1113.0 336.0,1116.0 336.5,1119.0 337.0,1122.0 337.5,1125.0 338.0,1128.0 338.5,1131.0 339.0,1134.0 339.5,1137.0 340.0,1140.0 340.5,1143.0 341.0,1146.0 341.5,1149.0 342.0,1152.0 342.5,1155.0 343.0,1158.0 343.5,1161.0 344.0,1164.0 344.5,1167.0 345.0,1170.0 345.5,1173.0 346.0,1176.0 346.5,1179.0 347.0,1182.0 347.5,1185.0 348.0,1188.0 348.5,1191.0 349.0,1194.0 349.5,1197.0 350.0,1200.0 350.5,1203.0 351.0,1206.0 351.5,1209.0 352.0,1212.0 352.5,1215.0 353.0,1218.0 353.5,1221.0 354.0,1224.0 354.5,1227.0 355.0,1230.0 355.5,1233.0 356.0,1236.0 356.5,1239.0 357.0,1242.0 357.5,1245.0 358.0,1248.0 358.5,1251.0 359.0,1254.0 359.5,1257.0 360.0,1260.0000000000002 360.5,1263.0 361.0,1266.0 361.5,1269.0 362.0,1272.0 362.5,1275.0 363.0,1278.0 363.5,1281.0 364.0,1284.0 364.5,1287.0 365.0,1289.9999999999998 365.5,1293.0 366.0,1296.0 366.5,1299.0 367.0,1302.0 367.5,1305.0 368.0,1308.0 368.5,1311.0 369.0,1314.0 369.5,1317.0 370.0,1320.0 370.5,1323.0 371.0,1326.0 371.5,1329.0 372.0,1332.0 372.5,1335.0000000000002 373.0,1338.0 373.5,1341.0 374.0,1344.0 374.5,1347.0 375.0,1350.0 375.5,1353.0 376.0,1356.0 376.5,1359.0 377.0,1362.0 377.5,1364.9999999999998 378.0,1368.0 378.5,1371.0 379.0,1374.0 379.5,1377.0 380.0,1380.0 380.5,1383.0 381.0,1386.0 381.5,1389.0 382.0,1392.0 382.5,1395.0 383.0,1398.0 383.5,1401.0 384.0,1404.0 384.5,1407.0 385.0,1410.0000000000002 385.5,1413.0 386.0,1416.0 386.5,1419.0 387.0,1422.0 387.5,1425.0 388.0,1428.0 388.5,1431.0 389.0,1434.0 389.5,1437.0 390.0,1439.9999999999998 390.5,1443.0 391.0,1446.0 391.5,1449.0 392.0,1452.0 392.5,1455.0 393.0,1458.0 393.5,1461.0 394.0,1464.0 394.5,1467.0 395.0,1470.0 395.5,1473.0 396.0,1476.0 396.5,1479.0 397.0,1482.0 397.5,1485.0000000000002 398.0,1488.0 398.5,1491.0 399.0,1494.0 399.5,1497.0 400.0,1500.0" fill="none" stroke="black" stroke-width="1.5" />
    <text x="37.5" y="100.0" font-size="18" fill="black">y = mx+b</text>
    <text x="65.9" y="154.5" font-size="18" fill="black" text-anchor="end">m = </text>
    <text x="87.5" y="144.6" font-size="18" fill="black" text-anchor="middle">y - b</text>
    <text x="87.5" y="162.6" font-size="18" fill="black" text-anchor="middle">x</text>
    <line x1="69.5" y1="150.0" x2="105.5" y2="150.0" stroke="black" stroke-width="0.5" />
    <circle cx="225.0" cy="125.0" r="2.0" fill="black" /><text x="227.0" y="123.0" font-size="12" fill="black">A(1/3)</text>
</svg>