<svg width="400" height="400" xmlns="http://www.w3.org/2000/svg" style="background:white;">
    <line x1="0" y1="200.0" x2="400" y2="200.0" stroke="black" stroke-width="1.0" />
    <line x1="200.0" y1="0" x2="200.0" y2="400" stroke="black" stroke-width="1.0" />
    <line x1="0.0" y1="0" x2="0.0" y2="400" stroke="#eee" stroke-width="0.5" />
    <line x1="25.0" y1="0" x2="25.0" y2="400" stroke="#eee" stroke-width="0.5" />
    <line x1="50.0" y1="0" x2="50.0" y2="400" stroke="#eee" stroke-width="0.5" />
    <line x1="75.0" y1="0" x2="75.0" y2="400" stroke="#eee" stroke-width="0.5" />
    <line x1="100.0" y1="0" x2="100.0" y2="400" stroke="#eee" stroke-width="0.5" />
    <line x1="125.0" y1="0" x2="125.0" y2="400" stroke="#eee" stroke-width="0.5" />
    <line x1="150.0" y1="0" x2="150.0" y2="400" stroke="#eee" stroke-width="0.5" />
    <line x1="175.0" y1="0" x2="175.0" y2="400" stroke="#eee" stroke-width="0.5" />
    <line x1="200.0" y1="0" x2="200.0" y2="400" stroke="#eee" stroke-width="0.5" />
    <line x1="225.0" y1="0" x2="225.0" y2="400" stroke="#eee" stroke-width="0.5" />
    <line x1="250.0" y1="0" x2="250.0" y2="400" stroke="#eee" stroke-width="0.5" />
    <line x1="275.0" y1="0" x2="275.0" y2="400" stroke="#eee" stroke-width="0.5" />
    <line x1="300.0" y1="0" x2="300.0" y2="400" stroke="#eee" stroke-width="0.5" />
    <line x1="325.0" y1="0" x2="325.0" y2="400" stroke="#eee" stroke-width="0.5" />
    <line x1="350.0" y1="0" x2="350.0" y2="400" stroke="#eee" stroke-width="0.5" />
    <line x1="375.0" y1="0" x2="375.0" y2="400" stroke="#eee" stroke-width="0.5" />
    <line x1="400.0" y1="0" x2="400.0" y2="400" stroke="#eee" stroke-width="0.5" />
    <line x1="0" y1="400.0" x2="400" y2="400.0" stroke="#eee" stroke-width="0.5" />
    <line x1="0" y1="375.0" x2="400" y2="375.0" stroke="#eee" stroke-width="0.5" />
    <line x1="0" y1="350.0" x2="400" y2="350.0" stroke="#eee" stroke-width="0.5" />
    <line x1="0" y1="325.0" x2="400" y2="325.0" stroke="#eee" stroke-width="0.5" />
    <line x1="0" y1="300.0" x2="400" y2="300.0" stroke="#eee" stroke-width="0.5" />
    <line x1="0" y1="275.0" x2="400" y2="275.0" stroke="#eee" stroke-width="0.5" />
    <line x1="0" y1="250.0" x2="400" y2="250.0" stroke="#eee" stroke-width="0.5" />
    <line x1="0" y1="225.0" x2="400" y2="225.0" stroke="#eee" stroke-width="0.5" />
    <line x1="0" y1="200.0" x2="400" y2="200.0" stroke="#eee" stroke-width="0.5" />
    <line x1="0" y1="175.0" x2="400" y2="175.0" stroke="#eee" stroke-width="0.5" />
    <line x1="0" y1="150.0" x2="400" y2="150.0" stroke="#eee" stroke-width="0.5" />
    <line x1="0" y1="125.0" x2="400" y2="125.0" stroke="#eee" stroke-width="0.5" />
    <line x1="0" y1="100.0" x2="400" y2="100.0" stroke="#eee" stroke-width="0.5" />
    <line x1="0" y1="75.0" x2="400" y2="75.0" stroke="#eee" stroke-width="0.5" />
    <line x1="0" y1="50.0" x2="400" y2="50.0" stroke="#eee" stroke-width="0.5" />
    <line x1="0" y1="25.0" x2="400" y2="25.0" stroke="#eee" stroke-width="0.5" />
    <line x1="0" y1="0.0" x2="400" y2="0.0" stroke="#eee" stroke-width="0.5" />
    <line x1="0.0" y1="197.0" x2="0.0" y2="203.0" stroke="black" stroke-width="0.5" />
    <text x="-6.0" y="214.0" font-size="12" fill="black">-8</text>
    <line x1="25.0" y1="197.0" x2="25.0" y2="203.0" stroke="black" stroke-width="0.5" />
    <text x="19.0" y="214.0" font-size="12" fill="black">-7</text>
    <line x1="50.0" y1="197.0" x2="50.0" y2="203.0" stroke="black" stroke-width="0.5" />
    <text x="44.0" y="214.0" font-size="12" fill="black">-6</text>
    <line x1="75.0" y1="197.0" x2="75.0" y2="203.0" stroke="black" stroke-width="0.5" />
    <text x="69.0" y="214.0" font-size="12" fill="black">-5</text>
    <line x1="100.0" y1="197.0" x2="100.0" y2="203.0" stroke="black" stroke-width="0.5" />
    <text x="94.0" y="214.0" font-size="12" fill="black">-4</text>
    <line x1="125.0" y1="197.0" x2="125.0" y2="203.0" stroke="black" stroke-width="0.5" />
    <text x="119.0" y="214.0" font-size="12" fill="black">-3</text>
    <line x1="150.0" y1="197.0" x2="150.0" y2="203.0" stroke="black" stroke-width="0.5" />
    <text x="144.0" y="214.0" font-size="12" fill="black">-2</text>
    <line x1="175.0" y1="197.0" x2="175.0" y2="203.0" stroke="black" stroke-width="0.5" />
    <text x="169.0" y="214.0" font-size="12" fill="black">-1</text>
    <line x1="200.0" y1="197.0" x2="200.0" y2="203.0" stroke="black" stroke-width="0.5" />
    <text x="194.0" y="214.0" font-size="12" fill="black">0</text>
    <line x1="225.0" y1="197.0" x2="225.0" y2="203.0" stroke="black" stroke-width="0.5" />
    <text x="219.0" y="214.0" font-size="12" fill="black">1</text>
    <line x1="250.0" y1="197.0" x2="250.0" y2="203.0" stroke="black" stroke-width="0.5" />
    <text x="244.0" y="214.0" font-size="12" fill="black">2</text>
    <line x1="275.0" y1="197.0" x2="275.0" y2="203.0" stroke="black" stroke-width="0.5" />
    <text x="269.0" y="214.0" font-size="12" fill="black">3</text>
    <line x1="300.0" y1="197.0" x2="300.0" y2="203.0" stroke="black" stroke-width="0.5" />
    <text x="294.0" y="214.0" font-size="12" fill="black">4</text>
    <line x1="325.0" y1="197.0" x2="325.0" y2="203.0" stroke="black" stroke-width="0.5" />
    <text x="319.0" y="214.0" font-size="12" fill="black">5</text>
    <line x1="350.0" y1="197.0" x2="350.0" y2="203.0" stroke="black" stroke-width="0.5" />
    <text x="344.0" y="214.0" font-size="12" fill="black">6</text>
    <line x1="375.0" y1="197.0" x2="375.0" y2="203.0" stroke="black" stroke-width="0.5" />
    <text x="369.0" y="214.0" font-size="12" fill="black">7</text>
    <line x1="400.0" y1="197.0" x2="400.0" y2="203.0" stroke="black" stroke-width="0.5" />
    <text x="394.0" y="214.0" font-size="12" fill="black">8</text>
    <line x1="197.0" y1="400.0" x2="203.0" y2="400.0" stroke="black" stroke-width="0.5" />
    <text x="186.0" y="404.0" font-size="12" fill="black">-8</text>
    <line x1="197.0" y1="375.0" x2="203.0" y2="375.0" stroke="black" stroke-width="0.5" />
    <text x="186.0" y="379.0" font-size="12" fill="black">-7</text>
    <line x1="197.0" y1="350.0" x2="203.0" y2="350.0" stroke="black" stroke-width="0.5" />
    <text x="186.0" y="354.0" font-size="12" fill="black">-6</text>
    <line x1="197.0" y1="325.0" x2="203.0" y2="325.0" stroke="black" stroke-width="0.5" />
    <text x="186.0" y="329.0" font-size="12" fill="black">-5</text>
    <line x1="197.0" y1="300.0" x2="203.0" y2="300.0" stroke="black" stroke-width="0.5" />
    <text x="186.0" y="304.0" font-size="12" fill="black">-4</text>
    <line x1="197.0" y1="275.0" x2="203.0" y2="275.0" stroke="black" stroke-width="0.5" />
    <text x="186.0" y="279.0" font-size="12" fill="black">-3</text>
    <line x1="197.0" y1="250.0" x2="203.0" y2="250.0" stroke="black" stroke-width="0.5" />
    <text x="186.0" y="254.0" font-size="12" fill="black">-2</text>
    <line x1="197.0" y1="225.0" x2="203.0" y2="225.0" stroke="black" stroke-width="0.5" />
    <text x="186.0" y="229.0" font-size="12" fill="black">-1</text>
    <line x1="197.0" y1="200.0" x2="203.0" y2="200.0" stroke="black" stroke-width="0.5" />
    <text x="186.0" y="204.0" font-size="12" fill="black">0</text>
    <line x1="197.0" y1="175.0" x2="203.0" y2="175.0" stroke="black" stroke-width="0.5" />
    <text x="186.0" y="179.0" font-size="12" fill="black">1</text>
    <line x1="197.0" y1="150.0" x2="203.0" y2="150.0" stroke="black" stroke-width="0.5" />
    <text x="186.0" y="154.0" font-size="12" fill="black">2</text>
    <line x1="197.0" y1="125.0" x2="203.0" y2="125.0" stroke="black" stroke-width="0.5" />
    <text x="186.0" y="129.0" font-size="12" fill="black">3</text>
    <line x1="197.0" y1="100.0" x2="203.0" y2="100.0" stroke="black" stroke-width="0.5" />
    <text x="186.0" y="104.0" font-size="12" fill="black">4</text>
    <line x1="197.0" y1="75.0" x2="203.0" y2="75.0" stroke="black" stroke-width="0.5" />
    <text x="186.0" y="79.0" font-size="12" fill="black">5</text>
    <line x1="197.0" y1="50.0" x2="203.0" y2="50.0" stroke="black" stroke-width="0.5" />
    <text x="186.0" y="54.0" font-size="12" fill="black">6</text>
    <line x1="197.0" y1="25.0" x2="203.0" y2="25.0" stroke="black" stroke-width="0.5" />
    <text x="186.0" y="29.0" font-size="12" fill="black">7</text>
    <line x1="197.0" y1="0.0" x2="203.0" y2="0.0" stroke="black" stroke-width="0.5" />
    <text x="186.0" y="4.0" font-size="12" fill="black">8</text>
    <line x1="150.0" y1="225.0" x2="250.0" y2="175.0" stroke="red" stroke-width="1.5" />
    <circle cx="250.0" cy="175.0" r="3.0" fill="black" /><text x="253.0" y="172.0" font-size="16" fill="black">A(2/1)</text>
    <circle cx="150.0" cy="225.0" r="3.0" fill="black" /><text x="135.0" y="240.0" font-size="16" fill="black">B(-2/-1)</text>
</svg>